%TF.GenerationSoftware,KiCad,Pcbnew,7.0.2*%
%TF.CreationDate,2023-10-13T13:02:30+05:00*%
%TF.ProjectId,IM100_Override,494d3130-305f-44f7-9665-72726964652e,V1.0*%
%TF.SameCoordinates,Original*%
%TF.FileFunction,Soldermask,Top*%
%TF.FilePolarity,Negative*%
%FSLAX46Y46*%
G04 Gerber Fmt 4.6, Leading zero omitted, Abs format (unit mm)*
G04 Created by KiCad (PCBNEW 7.0.2) date 2023-10-13 13:02:30*
%MOMM*%
%LPD*%
G01*
G04 APERTURE LIST*
G04 Aperture macros list*
%AMRoundRect*
0 Rectangle with rounded corners*
0 $1 Rounding radius*
0 $2 $3 $4 $5 $6 $7 $8 $9 X,Y pos of 4 corners*
0 Add a 4 corners polygon primitive as box body*
4,1,4,$2,$3,$4,$5,$6,$7,$8,$9,$2,$3,0*
0 Add four circle primitives for the rounded corners*
1,1,$1+$1,$2,$3*
1,1,$1+$1,$4,$5*
1,1,$1+$1,$6,$7*
1,1,$1+$1,$8,$9*
0 Add four rect primitives between the rounded corners*
20,1,$1+$1,$2,$3,$4,$5,0*
20,1,$1+$1,$4,$5,$6,$7,0*
20,1,$1+$1,$6,$7,$8,$9,0*
20,1,$1+$1,$8,$9,$2,$3,0*%
G04 Aperture macros list end*
%ADD10C,0.200000*%
%ADD11C,0.100000*%
%ADD12C,0.000000*%
%ADD13C,0.150000*%
%ADD14RoundRect,0.250000X0.350000X0.625000X-0.350000X0.625000X-0.350000X-0.625000X0.350000X-0.625000X0*%
%ADD15O,1.200000X1.750000*%
%ADD16C,7.500000*%
%ADD17RoundRect,0.250000X0.475000X-0.250000X0.475000X0.250000X-0.475000X0.250000X-0.475000X-0.250000X0*%
%ADD18RoundRect,0.250000X-0.475000X0.250000X-0.475000X-0.250000X0.475000X-0.250000X0.475000X0.250000X0*%
%ADD19R,2.000000X1.600000*%
%ADD20RoundRect,0.135000X0.185000X-0.135000X0.185000X0.135000X-0.185000X0.135000X-0.185000X-0.135000X0*%
%ADD21RoundRect,0.218750X-0.218750X-0.256250X0.218750X-0.256250X0.218750X0.256250X-0.218750X0.256250X0*%
%ADD22RoundRect,0.150000X0.750000X0.150000X-0.750000X0.150000X-0.750000X-0.150000X0.750000X-0.150000X0*%
%ADD23RoundRect,0.135000X-0.135000X-0.185000X0.135000X-0.185000X0.135000X0.185000X-0.135000X0.185000X0*%
%ADD24RoundRect,0.135000X0.135000X0.185000X-0.135000X0.185000X-0.135000X-0.185000X0.135000X-0.185000X0*%
%ADD25RoundRect,0.225000X0.225000X0.375000X-0.225000X0.375000X-0.225000X-0.375000X0.225000X-0.375000X0*%
%ADD26R,1.600000X1.600000*%
%ADD27O,1.600000X1.600000*%
%ADD28R,2.000000X1.500000*%
%ADD29R,2.000000X3.800000*%
%ADD30R,1.700000X1.700000*%
%ADD31O,1.700000X1.700000*%
G04 APERTURE END LIST*
D10*
X108985996Y-91562101D02*
X108984709Y-91558093D01*
X110656553Y-95550901D02*
X110656340Y-95546306D01*
X108718154Y-95093221D02*
X108717046Y-95094904D01*
X110453847Y-96987302D02*
X110455638Y-96988225D01*
X105499405Y-91971227D02*
X105498088Y-91972760D01*
X109214590Y-93733997D02*
X109234418Y-93777856D01*
X107376548Y-93868825D02*
X107392115Y-93822819D01*
X109342687Y-96658711D02*
X109343732Y-96660334D01*
D11*
X105263949Y-98376240D02*
X105266942Y-98364543D01*
D10*
X108220926Y-93178249D02*
X108271206Y-93174426D01*
X111857877Y-94628973D02*
X111858884Y-94627188D01*
X105690411Y-94820499D02*
X105694066Y-94823214D01*
X107927371Y-95094904D02*
X107925081Y-95091588D01*
X108709604Y-95117743D02*
X108709508Y-95119756D01*
X107276406Y-96675535D02*
X107278199Y-96675221D01*
X110940256Y-94832634D02*
X110943383Y-94829331D01*
X108810423Y-90639378D02*
X108809318Y-90637670D01*
X111845867Y-94642875D02*
X111847433Y-94641558D01*
X109215113Y-94591196D02*
X109186785Y-94645716D01*
X111827899Y-94651852D02*
X111829847Y-94651342D01*
X105981228Y-95576809D02*
X105979283Y-95580545D01*
X111860674Y-94623513D02*
X111861450Y-94621627D01*
X111853151Y-94635681D02*
X111854432Y-94634074D01*
X107429674Y-93733997D02*
X107451541Y-93691305D01*
X111154510Y-96297281D02*
X111153833Y-96295372D01*
X107931088Y-95102072D02*
X107929377Y-95098408D01*
X109745212Y-96504612D02*
X109749318Y-96505971D01*
X105489026Y-96325481D02*
X105490197Y-96329400D01*
X107457489Y-94645716D02*
X107429159Y-94591196D01*
X106009308Y-92783943D02*
X106010485Y-92788245D01*
X109347278Y-96664760D02*
X109348586Y-96666084D01*
X107345035Y-94324050D02*
X107340397Y-94292491D01*
X107558140Y-93533446D02*
X107589261Y-93497520D01*
X108814057Y-90646607D02*
X108813273Y-90644745D01*
X105492640Y-91981262D02*
X105491780Y-91983104D01*
X110918602Y-93479879D02*
X110915596Y-93476459D01*
X105488384Y-92013141D02*
X105488808Y-92015130D01*
X111825926Y-94652264D02*
X111827899Y-94651852D01*
X107913267Y-95080783D02*
X107837120Y-95034164D01*
X104795210Y-93676147D02*
X104793753Y-93677586D01*
X105982934Y-95572846D02*
X105981228Y-95576809D01*
X107868505Y-90616228D02*
X107866518Y-90616568D01*
X105491780Y-91983104D02*
X105490997Y-91984983D01*
X107860661Y-90618131D02*
X107858754Y-90618825D01*
X107729765Y-93369837D02*
X107768585Y-93342232D01*
X111859971Y-93690938D02*
X111858039Y-93687338D01*
D12*
G36*
X110876717Y-99221045D02*
G01*
X110890669Y-99222014D01*
X110904337Y-99223608D01*
X110917732Y-99225812D01*
X110930866Y-99228608D01*
X110943748Y-99231981D01*
X110956389Y-99235914D01*
X110968801Y-99240390D01*
X110980994Y-99245394D01*
X110992979Y-99250908D01*
X111004766Y-99256916D01*
X111016367Y-99263403D01*
X111027792Y-99270350D01*
X111039052Y-99277743D01*
X111050158Y-99285564D01*
X111061121Y-99293797D01*
X110922426Y-99458738D01*
X110914139Y-99452639D01*
X110906117Y-99447013D01*
X110898316Y-99441851D01*
X110890691Y-99437139D01*
X110883197Y-99432869D01*
X110875792Y-99429028D01*
X110868431Y-99425605D01*
X110861069Y-99422590D01*
X110853662Y-99419971D01*
X110846167Y-99417737D01*
X110838538Y-99415877D01*
X110830733Y-99414380D01*
X110822706Y-99413235D01*
X110814413Y-99412431D01*
X110805811Y-99411957D01*
X110796855Y-99411802D01*
X110779319Y-99412510D01*
X110761961Y-99414653D01*
X110744914Y-99418258D01*
X110728308Y-99423351D01*
X110720211Y-99426465D01*
X110712275Y-99429961D01*
X110704514Y-99433843D01*
X110696946Y-99438113D01*
X110689587Y-99442777D01*
X110682454Y-99447836D01*
X110675562Y-99453294D01*
X110668929Y-99459155D01*
X110662570Y-99465422D01*
X110656502Y-99472099D01*
X110650742Y-99479188D01*
X110645306Y-99486693D01*
X110640211Y-99494618D01*
X110635472Y-99502966D01*
X110631107Y-99511740D01*
X110627131Y-99520944D01*
X110623562Y-99530581D01*
X110620415Y-99540655D01*
X110617707Y-99551168D01*
X110615455Y-99562125D01*
X110613675Y-99573528D01*
X110612382Y-99585381D01*
X110611595Y-99597687D01*
X110611329Y-99610450D01*
X110611329Y-100182109D01*
X110420247Y-100182109D01*
X110420247Y-99231990D01*
X110611329Y-99231990D01*
X110611329Y-99333167D01*
X110615139Y-99333167D01*
X110626685Y-99319556D01*
X110638830Y-99306822D01*
X110651557Y-99294965D01*
X110664850Y-99283986D01*
X110678692Y-99273884D01*
X110693066Y-99264659D01*
X110707957Y-99256313D01*
X110723347Y-99248844D01*
X110739220Y-99242254D01*
X110755560Y-99236541D01*
X110772349Y-99231707D01*
X110789573Y-99227752D01*
X110807213Y-99224675D01*
X110825254Y-99222477D01*
X110843679Y-99221158D01*
X110862471Y-99220719D01*
X110876717Y-99221045D01*
G37*
D10*
X107825763Y-95026689D02*
X107819647Y-95022298D01*
X106983405Y-91857785D02*
X106978805Y-91857583D01*
X107620138Y-91603550D02*
X107616299Y-91605005D01*
X107294348Y-96667286D02*
X107295715Y-96666039D01*
D11*
X105174388Y-98486843D02*
X105185384Y-98481784D01*
D10*
X111152642Y-91983104D02*
X111150848Y-91979462D01*
X106138472Y-91332756D02*
X106136882Y-91334001D01*
X108983772Y-91554099D02*
X108816290Y-90654357D01*
X110504334Y-91331587D02*
X110502631Y-91330494D01*
X107267217Y-96675698D02*
X107269075Y-96675856D01*
X105686635Y-94818027D02*
X105690411Y-94820499D01*
X111862145Y-94619714D02*
X111862755Y-94617777D01*
X107451541Y-93691305D02*
X107475383Y-93649841D01*
X108991738Y-91573945D02*
X108989534Y-91570053D01*
X104801643Y-94645252D02*
X104803351Y-94646358D01*
D11*
X105279244Y-98234595D02*
X105279393Y-98207205D01*
D10*
X106956793Y-91852798D02*
X106952832Y-91851103D01*
X110477316Y-96992879D02*
X110481411Y-96992662D01*
D11*
X104995826Y-97931839D02*
X104985725Y-97937849D01*
D10*
X109679173Y-91855457D02*
X109674732Y-91856417D01*
X109310111Y-94228442D02*
X109303859Y-94292491D01*
X104788520Y-93683889D02*
X104787374Y-93685586D01*
X107300574Y-96660284D02*
X107301620Y-96658660D01*
X109359180Y-96673105D02*
X109360861Y-96673773D01*
X105493577Y-91979462D02*
X105492640Y-91981262D01*
X104812410Y-93665554D02*
X104810512Y-93666258D01*
X106135301Y-96980979D02*
X106136829Y-96982290D01*
X106162923Y-96992610D02*
X106167018Y-96992826D01*
X107302592Y-96656964D02*
X107303487Y-96655197D01*
D11*
X105256618Y-98014223D02*
X105252220Y-98003602D01*
D10*
X109377070Y-96675729D02*
X109378932Y-96675474D01*
X108994204Y-91577745D02*
X108991738Y-91573945D01*
X110973407Y-94811078D02*
X110975409Y-94810576D01*
X109670204Y-91857126D02*
X109665622Y-91857583D01*
X108999480Y-94885025D02*
X108953804Y-94925315D01*
X105670840Y-94811026D02*
X105674841Y-94812296D01*
X108984709Y-91558093D02*
X108984195Y-91556093D01*
X107921134Y-95087030D02*
X107919686Y-95085636D01*
X105987302Y-95555425D02*
X105986582Y-95559947D01*
X111831768Y-94650739D02*
X111833660Y-94650044D01*
X106175230Y-91323953D02*
X106171166Y-91323515D01*
X106965260Y-91855457D02*
X106960947Y-91854250D01*
X111155319Y-96325533D02*
X111156176Y-96321523D01*
X110509109Y-91335321D02*
X110507577Y-91334001D01*
X109683491Y-91854250D02*
X109679173Y-91855457D01*
X109303859Y-94292491D02*
X109293600Y-94355278D01*
X106158858Y-96992073D02*
X106162923Y-96992610D01*
X105491344Y-92022812D02*
X105492190Y-92024645D01*
X107841701Y-90629855D02*
X107838886Y-90632826D01*
X107690465Y-94925315D02*
X107644794Y-94885025D01*
X108791241Y-90621386D02*
X108789424Y-90620454D01*
X107862592Y-90617523D02*
X107860661Y-90618131D01*
X110664990Y-95580598D02*
X110663059Y-95576861D01*
D11*
X105195588Y-97936524D02*
X105185384Y-97930783D01*
D10*
X110455741Y-91328110D02*
X110453952Y-91329041D01*
X111156038Y-96303179D02*
X111155612Y-96301188D01*
X107274594Y-96675756D02*
X107276406Y-96675535D01*
X107392987Y-94505868D02*
X107382682Y-94476544D01*
X110499080Y-91328540D02*
X110497240Y-91327679D01*
X111854432Y-94634074D02*
X111855648Y-94632419D01*
X107299457Y-96661835D02*
X107300574Y-96660284D01*
X108721888Y-95088489D02*
X108720576Y-95090010D01*
X108729406Y-95081881D02*
X108727779Y-95083058D01*
X110632304Y-92797169D02*
X110632980Y-92792665D01*
X107298273Y-96663312D02*
X107299457Y-96661835D01*
X109355928Y-96671511D02*
X109357535Y-96672350D01*
X110489540Y-91325016D02*
X110485539Y-91324159D01*
X110662182Y-95516499D02*
X110927082Y-94854776D01*
X109002937Y-91588341D02*
X108999825Y-91584970D01*
X108724707Y-95085636D02*
X108723265Y-95087030D01*
X107800828Y-95007553D02*
X107794757Y-95002403D01*
X108569583Y-93204309D02*
X108616565Y-93217651D01*
X107918174Y-95084311D02*
X107916600Y-95083058D01*
X111156176Y-96321523D02*
X111156714Y-96317452D01*
X110635098Y-92783943D02*
X110636536Y-92779792D01*
X110975409Y-94810576D02*
X110977407Y-94810167D01*
D11*
X104976356Y-98468077D02*
X104985703Y-98474739D01*
D10*
X108796459Y-90624618D02*
X108794762Y-90623470D01*
X110952252Y-93501299D02*
X110948244Y-93500021D01*
X106930035Y-96502591D02*
X106934354Y-96503389D01*
X111863409Y-93700480D02*
X111862891Y-93698521D01*
X111150276Y-96288130D02*
X111149173Y-96286436D01*
X104799980Y-94644072D02*
X104801643Y-94645252D01*
X108423380Y-93178249D02*
X108472929Y-93184546D01*
X104799904Y-93672202D02*
X104798289Y-93673452D01*
X106960947Y-91854250D02*
X106956793Y-91852798D01*
X107279968Y-96674817D02*
X107281712Y-96674323D01*
X105487633Y-96317400D02*
X105488171Y-96321470D01*
X106912168Y-96502114D02*
X106916655Y-96501828D01*
X109386358Y-96673454D02*
X109388192Y-96672694D01*
D11*
X105271730Y-98340220D02*
X105275118Y-98314844D01*
D10*
X106190559Y-91329041D02*
X106188764Y-91328110D01*
X109369690Y-96675785D02*
X109371518Y-96675914D01*
X106149030Y-96989350D02*
X106150942Y-96990051D01*
X109120603Y-94748489D02*
X109083011Y-94796481D01*
X108781846Y-90617523D02*
X108779890Y-90617001D01*
X111156675Y-91998884D02*
X111156143Y-91994818D01*
D11*
X104925283Y-98017962D02*
X104921417Y-98029164D01*
D10*
X111847433Y-94641558D02*
X111848947Y-94640178D01*
X108855289Y-94997281D02*
X108849530Y-95002403D01*
X106140119Y-91331587D02*
X106138472Y-91332756D01*
X111145014Y-96345135D02*
X111146334Y-96343602D01*
X104808718Y-94649208D02*
X104810580Y-94649991D01*
X108905697Y-94962778D02*
X108855289Y-94997281D01*
X104808647Y-93667049D02*
X104806818Y-93667923D01*
D11*
X105213735Y-97949932D02*
X105205028Y-97942916D01*
D10*
X111864417Y-93706461D02*
X111864174Y-93704453D01*
X110632205Y-92815338D02*
X110631835Y-92810841D01*
X107001299Y-91855997D02*
X106996971Y-91856838D01*
X107363204Y-93915810D02*
X107376548Y-93868825D01*
X107286756Y-96672315D02*
X107288365Y-96671474D01*
X108843480Y-95007553D02*
X108837249Y-95012644D01*
X111156714Y-96317452D02*
X111156929Y-96313352D01*
D12*
G36*
X105169619Y-97720556D02*
G01*
X105190285Y-97722344D01*
X105210211Y-97725263D01*
X105229400Y-97729264D01*
X105247855Y-97734298D01*
X105265578Y-97740314D01*
X105282573Y-97747264D01*
X105298840Y-97755099D01*
X105314383Y-97763768D01*
X105329204Y-97773222D01*
X105343306Y-97783412D01*
X105356691Y-97794289D01*
X105369362Y-97805802D01*
X105381320Y-97817902D01*
X105392570Y-97830541D01*
X105403112Y-97843668D01*
X105412511Y-97856295D01*
X105421065Y-97869051D01*
X105428807Y-97882196D01*
X105435769Y-97895991D01*
X105438968Y-97903215D01*
X105441985Y-97910698D01*
X105444824Y-97918475D01*
X105447488Y-97926577D01*
X105449982Y-97935038D01*
X105452310Y-97943889D01*
X105456485Y-97962895D01*
X105460045Y-97983857D01*
X105463024Y-98007035D01*
X105465454Y-98032690D01*
X105467369Y-98061083D01*
X105468800Y-98092476D01*
X105469782Y-98127128D01*
X105470347Y-98165302D01*
X105470528Y-98207258D01*
X105469782Y-98286746D01*
X105467369Y-98352316D01*
X105465454Y-98380526D01*
X105463024Y-98406030D01*
X105460045Y-98429084D01*
X105456485Y-98449948D01*
X105452310Y-98468878D01*
X105447488Y-98486132D01*
X105441985Y-98501967D01*
X105435769Y-98516643D01*
X105428807Y-98530415D01*
X105421065Y-98543542D01*
X105412511Y-98556281D01*
X105403112Y-98568891D01*
X105392570Y-98582018D01*
X105381320Y-98594656D01*
X105369362Y-98606757D01*
X105356691Y-98618270D01*
X105343306Y-98629147D01*
X105329204Y-98639337D01*
X105314383Y-98648791D01*
X105298840Y-98657460D01*
X105282572Y-98665294D01*
X105274166Y-98668883D01*
X105265578Y-98672245D01*
X105256808Y-98675373D01*
X105247855Y-98678261D01*
X105238719Y-98680904D01*
X105229400Y-98683295D01*
X105219897Y-98685428D01*
X105210211Y-98687296D01*
X105200340Y-98688894D01*
X105190284Y-98690215D01*
X105180044Y-98691253D01*
X105169619Y-98692003D01*
X105159009Y-98692457D01*
X105148212Y-98692610D01*
X105130175Y-98692088D01*
X105112598Y-98690545D01*
X105095462Y-98688014D01*
X105078743Y-98684528D01*
X105062420Y-98680119D01*
X105046470Y-98674820D01*
X105030872Y-98668665D01*
X105015603Y-98661687D01*
X105000642Y-98653917D01*
X104985967Y-98645390D01*
X104971555Y-98636139D01*
X104957385Y-98626195D01*
X104943434Y-98615593D01*
X104929681Y-98604364D01*
X104916103Y-98592543D01*
X104902679Y-98580162D01*
X104901991Y-99333166D01*
X104914199Y-99319555D01*
X104926923Y-99306821D01*
X104940151Y-99294964D01*
X104953874Y-99283985D01*
X104968080Y-99273883D01*
X104982758Y-99264658D01*
X104997898Y-99256312D01*
X105013487Y-99248843D01*
X105029515Y-99242253D01*
X105045971Y-99236540D01*
X105062844Y-99231706D01*
X105080124Y-99227751D01*
X105097798Y-99224674D01*
X105115856Y-99222476D01*
X105134287Y-99221158D01*
X105153081Y-99220718D01*
X105167016Y-99221052D01*
X105181037Y-99222054D01*
X105195110Y-99223721D01*
X105209199Y-99226050D01*
X105223270Y-99229040D01*
X105237289Y-99232687D01*
X105251220Y-99236989D01*
X105265029Y-99241944D01*
X105278682Y-99247550D01*
X105292144Y-99253804D01*
X105305379Y-99260704D01*
X105318354Y-99268246D01*
X105331034Y-99276430D01*
X105343384Y-99285252D01*
X105355370Y-99294711D01*
X105366957Y-99304803D01*
X105378109Y-99315526D01*
X105388794Y-99326878D01*
X105398975Y-99338857D01*
X105408619Y-99351460D01*
X105417690Y-99364684D01*
X105426154Y-99378528D01*
X105433977Y-99392988D01*
X105441123Y-99408063D01*
X105447558Y-99423750D01*
X105453248Y-99440047D01*
X105458157Y-99456951D01*
X105462251Y-99474459D01*
X105465496Y-99492571D01*
X105467857Y-99511282D01*
X105469299Y-99530591D01*
X105469787Y-99550495D01*
X105469787Y-100182108D01*
X105278652Y-100182108D01*
X105278652Y-99616165D01*
X105278418Y-99604195D01*
X105277721Y-99592549D01*
X105276572Y-99581229D01*
X105274980Y-99570239D01*
X105272957Y-99559583D01*
X105270510Y-99549266D01*
X105267652Y-99539289D01*
X105264390Y-99529658D01*
X105260736Y-99520376D01*
X105256700Y-99511447D01*
X105252290Y-99502875D01*
X105247518Y-99494662D01*
X105242393Y-99486814D01*
X105236925Y-99479334D01*
X105231125Y-99472225D01*
X105225001Y-99465491D01*
X105218565Y-99459137D01*
X105211825Y-99453165D01*
X105204792Y-99447580D01*
X105197476Y-99442385D01*
X105189887Y-99437584D01*
X105182035Y-99433181D01*
X105173929Y-99429180D01*
X105165580Y-99425583D01*
X105156997Y-99422396D01*
X105148192Y-99419622D01*
X105139172Y-99417264D01*
X105129949Y-99415326D01*
X105120533Y-99413813D01*
X105110933Y-99412727D01*
X105101159Y-99412073D01*
X105091221Y-99411854D01*
X105081116Y-99412073D01*
X105071184Y-99412727D01*
X105061437Y-99413813D01*
X105051884Y-99415326D01*
X105042534Y-99417264D01*
X105033397Y-99419622D01*
X105024483Y-99422396D01*
X105015800Y-99425584D01*
X105007359Y-99429180D01*
X104999170Y-99433181D01*
X104991241Y-99437584D01*
X104983583Y-99442385D01*
X104976205Y-99447580D01*
X104969117Y-99453165D01*
X104962328Y-99459137D01*
X104955847Y-99465492D01*
X104949685Y-99472225D01*
X104943851Y-99479334D01*
X104938355Y-99486815D01*
X104933206Y-99494663D01*
X104928414Y-99502875D01*
X104923988Y-99511448D01*
X104919938Y-99520377D01*
X104916274Y-99529659D01*
X104913005Y-99539290D01*
X104910140Y-99549266D01*
X104907690Y-99559584D01*
X104905664Y-99570239D01*
X104904072Y-99581229D01*
X104902922Y-99592549D01*
X104902226Y-99604195D01*
X104901991Y-99616165D01*
X104901991Y-100182109D01*
X104710804Y-100182109D01*
X104710804Y-97731220D01*
X104902679Y-97731220D01*
X104902679Y-97830545D01*
X104914255Y-97818489D01*
X104926460Y-97806953D01*
X104939269Y-97795972D01*
X104952652Y-97785582D01*
X104966584Y-97775818D01*
X104981037Y-97766716D01*
X104995984Y-97758311D01*
X105011397Y-97750640D01*
X105027248Y-97743738D01*
X105043512Y-97737641D01*
X105060160Y-97732383D01*
X105077165Y-97728002D01*
X105094501Y-97724532D01*
X105112138Y-97722010D01*
X105130051Y-97720470D01*
X105148213Y-97719949D01*
X105169619Y-97720556D01*
G37*
D10*
X110631887Y-92801722D02*
X110632304Y-92797169D01*
X110450409Y-96985201D02*
X110452103Y-96986294D01*
X105987981Y-95546253D02*
X105987769Y-95550849D01*
X111839338Y-93668880D02*
X111837552Y-93667924D01*
X111863278Y-94615817D02*
X111863712Y-94613840D01*
X105487719Y-91998884D02*
X105487501Y-92002978D01*
X104801567Y-93671021D02*
X104799904Y-93672202D01*
X105714078Y-94847055D02*
X105715829Y-94850873D01*
X109756960Y-96509491D02*
X109760428Y-96511650D01*
X104781438Y-93698493D02*
X104780917Y-93700449D01*
X104779900Y-93706418D02*
X104779751Y-93708432D01*
X107828594Y-90652380D02*
X107828177Y-90654357D01*
X109718709Y-96502104D02*
X109723179Y-96501847D01*
X106978805Y-91857583D02*
X106974225Y-91857126D01*
X108715044Y-95098408D02*
X108714152Y-95100222D01*
X105492190Y-92024645D02*
X105493121Y-92026436D01*
D11*
X105277343Y-98124877D02*
X105275118Y-98098451D01*
D10*
X109695357Y-91849167D02*
X109691618Y-91851102D01*
X109267712Y-93868825D02*
X109281054Y-93915810D01*
X104805101Y-94647388D02*
X104806890Y-94648339D01*
X110633749Y-92824040D02*
X110632842Y-92819749D01*
X108712590Y-95103954D02*
X108711924Y-95105866D01*
X110932320Y-94843347D02*
X110934700Y-94839665D01*
X107528745Y-93570850D02*
X107558140Y-93533446D01*
X104782797Y-94621575D02*
X104784427Y-94625315D01*
X109390012Y-96671828D02*
X109694283Y-96509375D01*
X104796723Y-93674768D02*
X104795210Y-93676147D01*
X106158911Y-91324159D02*
X106154907Y-91325016D01*
X105983766Y-95520210D02*
X105985133Y-95524196D01*
X106179232Y-91324722D02*
X106175230Y-91323953D01*
X106009470Y-92828175D02*
X106008027Y-92832122D01*
X104780486Y-93702423D02*
X104780146Y-93704414D01*
X105987935Y-95541673D02*
X105987981Y-95546253D01*
X105490293Y-91986897D02*
X105489118Y-91990812D01*
X105487417Y-96313300D02*
X105487633Y-96317400D01*
D11*
X105030933Y-98494443D02*
X105044346Y-98497471D01*
D10*
X109371518Y-96675914D02*
X109373359Y-96675948D01*
X110930241Y-94847108D02*
X110932320Y-94843347D01*
X110657736Y-95559999D02*
X110657019Y-95555477D01*
D11*
X105275118Y-98098451D02*
X105271730Y-98072893D01*
D10*
X111844252Y-94644125D02*
X111845867Y-94642875D01*
X106193952Y-96985149D02*
X106883879Y-96511597D01*
X107301620Y-96658660D02*
X107302592Y-96656964D01*
X111862891Y-93698521D02*
X111862285Y-93696585D01*
X110469159Y-96992341D02*
X110473221Y-96992772D01*
X111826137Y-93663992D02*
X110956240Y-93502226D01*
X108713333Y-95102072D02*
X108712590Y-95103954D01*
X104782045Y-93696560D02*
X104781438Y-93698493D01*
X107647631Y-91581429D02*
X107644715Y-91584970D01*
X111859818Y-94625368D02*
X111860674Y-94623513D01*
X105499299Y-96345082D02*
X105500690Y-96346550D01*
X110921824Y-93483151D02*
X110918602Y-93479879D01*
X107638325Y-91591517D02*
X107634896Y-91594471D01*
X110465250Y-91324722D02*
X110463286Y-91325231D01*
D12*
G36*
X108469316Y-99897258D02*
G01*
X108473073Y-99897258D01*
X108688549Y-99231990D01*
X108827244Y-99231990D01*
X109042720Y-99897258D01*
X109046583Y-99897258D01*
X109228246Y-99231990D01*
X109430705Y-99231990D01*
X109127175Y-100182109D01*
X108958424Y-100182109D01*
X108759775Y-99516787D01*
X108756018Y-99516787D01*
X108557369Y-100182109D01*
X108388723Y-100182109D01*
X108085140Y-99231990D01*
X108287494Y-99231990D01*
X108469316Y-99897258D01*
G37*
D10*
X105494036Y-96288077D02*
X105493024Y-96289822D01*
X110485539Y-91324159D02*
X110481478Y-91323621D01*
X106894994Y-96505938D02*
X106899104Y-96504582D01*
X110493391Y-96990104D02*
X110497178Y-96988624D01*
X110481411Y-96992662D02*
X110485476Y-96992126D01*
X104793753Y-93677586D02*
X104792352Y-93679083D01*
X106012176Y-92815338D02*
X106011542Y-92819749D01*
X106921151Y-96501811D02*
X106925622Y-96502066D01*
X111148748Y-96340356D02*
X111149841Y-96338650D01*
X105490584Y-92020940D02*
X105491344Y-92022812D01*
X107934031Y-95129756D02*
X107934384Y-95127778D01*
X108769882Y-90615781D02*
X107874532Y-90615781D01*
X111861595Y-93694673D02*
X111860823Y-93692790D01*
X109357535Y-96672350D02*
X109359180Y-96673105D01*
X106133838Y-96979592D02*
X106135301Y-96980979D01*
X111156819Y-96309254D02*
X111156381Y-96305189D01*
X106012494Y-92801722D02*
X106012650Y-92806291D01*
X107340397Y-94292491D02*
X107336761Y-94260616D01*
X106154907Y-91325016D02*
X106150995Y-91326190D01*
D11*
X105266942Y-98364543D02*
X105269526Y-98352527D01*
D10*
X110943383Y-94829331D02*
X110946708Y-94826201D01*
X110977407Y-94810167D02*
X111825926Y-94652264D01*
X105678824Y-94813902D02*
X105682764Y-94815820D01*
D11*
X105162570Y-98491199D02*
X105174388Y-98486843D01*
D10*
X106012650Y-92806291D02*
X106012544Y-92810841D01*
D11*
X104918015Y-98040708D02*
X104915047Y-98052561D01*
D10*
X107283427Y-96673741D02*
X107285109Y-96673071D01*
D11*
X104915033Y-98360450D02*
X104921400Y-98383725D01*
D10*
X109055017Y-93497520D02*
X109086136Y-93533446D01*
X110658081Y-95528423D02*
X110659177Y-95524249D01*
D11*
X105018390Y-98490624D02*
X105030933Y-98494443D01*
D10*
X105495134Y-96286384D02*
X105494036Y-96288077D01*
D11*
X104934499Y-98416037D02*
X104939928Y-98425984D01*
D10*
X108816290Y-90654357D02*
X108815874Y-90652380D01*
X108830947Y-95017588D02*
X108824685Y-95022299D01*
X105492096Y-96291613D02*
X105491254Y-96293447D01*
X107872515Y-90615831D02*
X107870505Y-90615981D01*
X107652793Y-91573945D02*
X107650331Y-91577745D01*
X111837552Y-93667924D02*
X111835728Y-93667049D01*
X107692361Y-93399230D02*
X107729765Y-93369837D01*
X111862755Y-94617777D02*
X111863278Y-94615817D01*
X110467237Y-91324296D02*
X110465250Y-91324722D01*
X108751384Y-93270773D02*
X108794074Y-93292638D01*
X106004290Y-92772081D02*
X106006209Y-92775827D01*
X111855648Y-94632419D02*
X111856797Y-94630717D01*
X111864501Y-94605803D02*
X111864607Y-93710506D01*
X110631835Y-92810841D02*
X110631730Y-92806291D01*
X109665622Y-91857583D02*
X109661023Y-91857785D01*
X105490197Y-96329400D02*
X105491681Y-96333198D01*
X104780541Y-94613787D02*
X104780974Y-94615765D01*
X109674732Y-91856417D02*
X109670204Y-91857126D01*
X105979283Y-95580545D02*
X105977099Y-95584021D01*
X109749318Y-96505971D02*
X109753245Y-96507597D01*
X105494137Y-92028180D02*
X105495240Y-92029873D01*
X111143618Y-91969760D02*
X110510576Y-91336718D01*
X107631341Y-91597178D02*
X107627681Y-91599610D01*
X106133892Y-91336718D02*
X105500796Y-91969760D01*
X110631730Y-92806291D02*
X110631887Y-92801722D01*
X110638104Y-92835847D02*
X110636378Y-92832122D01*
X111864607Y-93710506D02*
X111864562Y-93708480D01*
X110904752Y-93457935D02*
X110638104Y-92835847D01*
X109022489Y-91602689D02*
X109020597Y-91601743D01*
X110934700Y-94839665D02*
X110937353Y-94836087D01*
X105688121Y-93502226D02*
X104818277Y-93663992D01*
X109013202Y-91597178D02*
X109009648Y-91594471D01*
X108709508Y-95119756D02*
X108709498Y-95121770D01*
X109362575Y-96674355D02*
X109364318Y-96674848D01*
D12*
G36*
X107035567Y-99221045D02*
G01*
X107049532Y-99222014D01*
X107063209Y-99223608D01*
X107076609Y-99225812D01*
X107089745Y-99228608D01*
X107102626Y-99231981D01*
X107115265Y-99235914D01*
X107127673Y-99240390D01*
X107139861Y-99245394D01*
X107151839Y-99250908D01*
X107163620Y-99256916D01*
X107175214Y-99263403D01*
X107186634Y-99270350D01*
X107197889Y-99277743D01*
X107208992Y-99285564D01*
X107219953Y-99293797D01*
X107081312Y-99458738D01*
X107073024Y-99452639D01*
X107065001Y-99447013D01*
X107057197Y-99441851D01*
X107049569Y-99437139D01*
X107042073Y-99432869D01*
X107034664Y-99429028D01*
X107027299Y-99425605D01*
X107019935Y-99422590D01*
X107012526Y-99419971D01*
X107005029Y-99417737D01*
X106997401Y-99415877D01*
X106989596Y-99414380D01*
X106981572Y-99413235D01*
X106973284Y-99412431D01*
X106964688Y-99411957D01*
X106955740Y-99411802D01*
X106938212Y-99412510D01*
X106920859Y-99414653D01*
X106903814Y-99418258D01*
X106887207Y-99423351D01*
X106879110Y-99426465D01*
X106871171Y-99429961D01*
X106863409Y-99433843D01*
X106855838Y-99438113D01*
X106848476Y-99442777D01*
X106841340Y-99447836D01*
X106834445Y-99453294D01*
X106827808Y-99459155D01*
X106821445Y-99465422D01*
X106815374Y-99472099D01*
X106809610Y-99479188D01*
X106804170Y-99486693D01*
X106799070Y-99494618D01*
X106794328Y-99502966D01*
X106789959Y-99511740D01*
X106785979Y-99520944D01*
X106782407Y-99530581D01*
X106779257Y-99540655D01*
X106776546Y-99551168D01*
X106774292Y-99562125D01*
X106772509Y-99573528D01*
X106771216Y-99585381D01*
X106770428Y-99597687D01*
X106770161Y-99610450D01*
X106770161Y-100182109D01*
X106579026Y-100182109D01*
X106579026Y-99231990D01*
X106770161Y-99231990D01*
X106770161Y-99333167D01*
X106773918Y-99333167D01*
X106785465Y-99319556D01*
X106797612Y-99306822D01*
X106810342Y-99294965D01*
X106823638Y-99283986D01*
X106837484Y-99273884D01*
X106851862Y-99264659D01*
X106866758Y-99256313D01*
X106882153Y-99248844D01*
X106898031Y-99242254D01*
X106914375Y-99236541D01*
X106931170Y-99231707D01*
X106948397Y-99227752D01*
X106966041Y-99224675D01*
X106984084Y-99222477D01*
X107002511Y-99221158D01*
X107021304Y-99220719D01*
X107035567Y-99221045D01*
G37*
D10*
X108787573Y-90619600D02*
X108785691Y-90618825D01*
D11*
X104921417Y-98029164D02*
X104918015Y-98040708D01*
D10*
X105494488Y-96338598D02*
X105495577Y-96340303D01*
X107933586Y-95131717D02*
X107934031Y-95129756D01*
X107634896Y-91594471D02*
X107631341Y-91597178D01*
X110658701Y-95564433D02*
X110657736Y-95559999D01*
X106006309Y-92835847D02*
X105739609Y-93457935D01*
X104814338Y-93664940D02*
X104812410Y-93665554D01*
X109354363Y-96670588D02*
X109355928Y-96671511D01*
D11*
X104959811Y-98452899D02*
X104967736Y-98460786D01*
D10*
X105489316Y-92017095D02*
X105489908Y-92019034D01*
X105487501Y-92002978D02*
X105487608Y-92007072D01*
X108814754Y-90648502D02*
X108814057Y-90646607D01*
X108799714Y-90627112D02*
X108798111Y-90625832D01*
X107269075Y-96675856D02*
X107270925Y-96675918D01*
X111146334Y-91972760D02*
X111145014Y-91971227D01*
D11*
X105030948Y-97918119D02*
X105018408Y-97921942D01*
D10*
X105491681Y-96333198D02*
X105493476Y-96336842D01*
X107297024Y-96664714D02*
X107298273Y-96663312D01*
D12*
G36*
X109857812Y-99221660D02*
G01*
X109899010Y-99224560D01*
X109938239Y-99229529D01*
X109957075Y-99232825D01*
X109975370Y-99236681D01*
X109993108Y-99241111D01*
X110010273Y-99246129D01*
X110026849Y-99251748D01*
X110042820Y-99257984D01*
X110058169Y-99264849D01*
X110072881Y-99272358D01*
X110086938Y-99280526D01*
X110100326Y-99289365D01*
X110113027Y-99298891D01*
X110125027Y-99309117D01*
X110136307Y-99320057D01*
X110146853Y-99331725D01*
X110156648Y-99344136D01*
X110165677Y-99357303D01*
X110173922Y-99371241D01*
X110181368Y-99385963D01*
X110187998Y-99401484D01*
X110193797Y-99417817D01*
X110198748Y-99434977D01*
X110202835Y-99452978D01*
X110206042Y-99471833D01*
X110208353Y-99491557D01*
X110209751Y-99512164D01*
X110210221Y-99533668D01*
X110210221Y-100182109D01*
X110018980Y-100182109D01*
X110018980Y-100097760D01*
X110015276Y-100097760D01*
X110007577Y-100109656D01*
X109999206Y-100120723D01*
X109990110Y-100130970D01*
X109980234Y-100140405D01*
X109969523Y-100149037D01*
X109957922Y-100156874D01*
X109945377Y-100163924D01*
X109931833Y-100170197D01*
X109917235Y-100175699D01*
X109901529Y-100180441D01*
X109884660Y-100184430D01*
X109866574Y-100187675D01*
X109847216Y-100190184D01*
X109826530Y-100191965D01*
X109804464Y-100193028D01*
X109780961Y-100193380D01*
X109761366Y-100193015D01*
X109742294Y-100191930D01*
X109723751Y-100190140D01*
X109705743Y-100187663D01*
X109688277Y-100184512D01*
X109671360Y-100180705D01*
X109654999Y-100176256D01*
X109639198Y-100171183D01*
X109623966Y-100165500D01*
X109609309Y-100159223D01*
X109595233Y-100152368D01*
X109581745Y-100144951D01*
X109568851Y-100136988D01*
X109556558Y-100128494D01*
X109544872Y-100119485D01*
X109533800Y-100109977D01*
X109523348Y-100099986D01*
X109513524Y-100089528D01*
X109504333Y-100078618D01*
X109495782Y-100067272D01*
X109487877Y-100055506D01*
X109480626Y-100043336D01*
X109474034Y-100030777D01*
X109468109Y-100017845D01*
X109462856Y-100004557D01*
X109458282Y-99990927D01*
X109454394Y-99976972D01*
X109451198Y-99962707D01*
X109448701Y-99948149D01*
X109446910Y-99933312D01*
X109445830Y-99918214D01*
X109445469Y-99902868D01*
X109445672Y-99893501D01*
X109625491Y-99893501D01*
X109626091Y-99905338D01*
X109627920Y-99916930D01*
X109631017Y-99928206D01*
X109635424Y-99939093D01*
X109638131Y-99944368D01*
X109641182Y-99949520D01*
X109644580Y-99954539D01*
X109648332Y-99959416D01*
X109652441Y-99964143D01*
X109656914Y-99968709D01*
X109661756Y-99973107D01*
X109666971Y-99977328D01*
X109672565Y-99981362D01*
X109678543Y-99985200D01*
X109684910Y-99988835D01*
X109691671Y-99992255D01*
X109698831Y-99995454D01*
X109706395Y-99998421D01*
X109714369Y-100001149D01*
X109722758Y-100003627D01*
X109740799Y-100007800D01*
X109760561Y-100010869D01*
X109782083Y-100012763D01*
X109805408Y-100013411D01*
X109834055Y-100013185D01*
X109860318Y-100012398D01*
X109884269Y-100010881D01*
X109905983Y-100008467D01*
X109916024Y-100006871D01*
X109925534Y-100004987D01*
X109934521Y-100002796D01*
X109942996Y-100000275D01*
X109950967Y-99997405D01*
X109958443Y-99994163D01*
X109965435Y-99990529D01*
X109971950Y-99986482D01*
X109977999Y-99982002D01*
X109983590Y-99977066D01*
X109988734Y-99971655D01*
X109993438Y-99965746D01*
X109997713Y-99959320D01*
X110001567Y-99952356D01*
X110005011Y-99944831D01*
X110008053Y-99936726D01*
X110010702Y-99928020D01*
X110012968Y-99918690D01*
X110014859Y-99908718D01*
X110016387Y-99898081D01*
X110017558Y-99886758D01*
X110018384Y-99874729D01*
X110018872Y-99861973D01*
X110019033Y-99848468D01*
X110019032Y-99848468D01*
X110019032Y-99779095D01*
X109790432Y-99779095D01*
X109780066Y-99779226D01*
X109770049Y-99779618D01*
X109760381Y-99780265D01*
X109751060Y-99781166D01*
X109742085Y-99782314D01*
X109733454Y-99783708D01*
X109725167Y-99785343D01*
X109717221Y-99787215D01*
X109709616Y-99789321D01*
X109702350Y-99791657D01*
X109695421Y-99794218D01*
X109688828Y-99797002D01*
X109682571Y-99800004D01*
X109676647Y-99803221D01*
X109671055Y-99806648D01*
X109665794Y-99810283D01*
X109660862Y-99814120D01*
X109656259Y-99818158D01*
X109651982Y-99822391D01*
X109648030Y-99826816D01*
X109644403Y-99831428D01*
X109641098Y-99836226D01*
X109638114Y-99841203D01*
X109635450Y-99846358D01*
X109633105Y-99851685D01*
X109631077Y-99857182D01*
X109629364Y-99862844D01*
X109627966Y-99868667D01*
X109626881Y-99874648D01*
X109626108Y-99880784D01*
X109625645Y-99887069D01*
X109625491Y-99893501D01*
X109445672Y-99893501D01*
X109445776Y-99888709D01*
X109446698Y-99874701D01*
X109448233Y-99860863D01*
X109450381Y-99847214D01*
X109453140Y-99833776D01*
X109456508Y-99820566D01*
X109460486Y-99807605D01*
X109465072Y-99794913D01*
X109470264Y-99782508D01*
X109476063Y-99770411D01*
X109482466Y-99758641D01*
X109489473Y-99747218D01*
X109497082Y-99736161D01*
X109505293Y-99725489D01*
X109514104Y-99715224D01*
X109523514Y-99705383D01*
X109533523Y-99695987D01*
X109544129Y-99687055D01*
X109555331Y-99678606D01*
X109567128Y-99670662D01*
X109579519Y-99663240D01*
X109592503Y-99656361D01*
X109606079Y-99650044D01*
X109620245Y-99644308D01*
X109635001Y-99639175D01*
X109650346Y-99634662D01*
X109666278Y-99630789D01*
X109682797Y-99627577D01*
X109699900Y-99625045D01*
X109717589Y-99623211D01*
X109735860Y-99622097D01*
X109754714Y-99621721D01*
X110018980Y-99621721D01*
X110018980Y-99522397D01*
X110018294Y-99506213D01*
X110017431Y-99498618D01*
X110016216Y-99491348D01*
X110014646Y-99484399D01*
X110012716Y-99477766D01*
X110010423Y-99471443D01*
X110007763Y-99465427D01*
X110004733Y-99459712D01*
X110001328Y-99454294D01*
X109997545Y-99449168D01*
X109993380Y-99444329D01*
X109988829Y-99439772D01*
X109983888Y-99435493D01*
X109978554Y-99431487D01*
X109972823Y-99427749D01*
X109966691Y-99424275D01*
X109960155Y-99421059D01*
X109945853Y-99415384D01*
X109929886Y-99410687D01*
X109912226Y-99406929D01*
X109892840Y-99404072D01*
X109871700Y-99402079D01*
X109848775Y-99400911D01*
X109824035Y-99400530D01*
X109806018Y-99400755D01*
X109789174Y-99401445D01*
X109773447Y-99402627D01*
X109758777Y-99404323D01*
X109751821Y-99405371D01*
X109745108Y-99406558D01*
X109738630Y-99407885D01*
X109732381Y-99409356D01*
X109726353Y-99410975D01*
X109720539Y-99412743D01*
X109714931Y-99414665D01*
X109709523Y-99416742D01*
X109704307Y-99418979D01*
X109699277Y-99421378D01*
X109694424Y-99423943D01*
X109689741Y-99426676D01*
X109685222Y-99429580D01*
X109680859Y-99432659D01*
X109676645Y-99435915D01*
X109672572Y-99439352D01*
X109668634Y-99442972D01*
X109664823Y-99446780D01*
X109661132Y-99450777D01*
X109657554Y-99454966D01*
X109654081Y-99459352D01*
X109650707Y-99463936D01*
X109647424Y-99468723D01*
X109644224Y-99473714D01*
X109494258Y-99359414D01*
X109508336Y-99341165D01*
X109523171Y-99324375D01*
X109538771Y-99309004D01*
X109555144Y-99295014D01*
X109572297Y-99282366D01*
X109590239Y-99271021D01*
X109608978Y-99260940D01*
X109628521Y-99252085D01*
X109648876Y-99244417D01*
X109670052Y-99237897D01*
X109692056Y-99232487D01*
X109714896Y-99228147D01*
X109738579Y-99224839D01*
X109763115Y-99222524D01*
X109788511Y-99221164D01*
X109814774Y-99220719D01*
X109857812Y-99221660D01*
G37*
D10*
X109168885Y-93649841D02*
X109192726Y-93691305D01*
X109698834Y-91846993D02*
X109695357Y-91849167D01*
X109252146Y-93822819D02*
X109267712Y-93868825D01*
X106175177Y-96992288D02*
X106177188Y-96991949D01*
X108773918Y-90615981D02*
X108771904Y-90615831D01*
X109293600Y-94355278D02*
X109279464Y-94416673D01*
X110502559Y-96985826D02*
X110504257Y-96984741D01*
X108794762Y-90623470D02*
X108793021Y-90622392D01*
X109697900Y-96507478D02*
X109701743Y-96505856D01*
X107601684Y-94842037D02*
X107561267Y-94796481D01*
X109732157Y-96502144D02*
X109736597Y-96502698D01*
X107932412Y-95135571D02*
X107933047Y-95133657D01*
X110932531Y-93491854D02*
X110928816Y-93489161D01*
X107864546Y-90617001D02*
X107862592Y-90617523D01*
X108779890Y-90617001D02*
X108777914Y-90616568D01*
X105987769Y-95550849D02*
X105987302Y-95555425D01*
X107303487Y-96655197D02*
X107304302Y-96653361D01*
D11*
X104985725Y-97937849D02*
X104976379Y-97944523D01*
D10*
X106969698Y-91856417D02*
X106965260Y-91855457D01*
X107616299Y-91605005D02*
X107013208Y-91851861D01*
X104816352Y-94651799D02*
X104818330Y-94652211D01*
X111156929Y-96313352D02*
X111156819Y-96309254D01*
X111833660Y-94650044D02*
X111835520Y-94649260D01*
D12*
G36*
X108268363Y-97720590D02*
G01*
X108297802Y-97722332D01*
X108326068Y-97725195D01*
X108353214Y-97729145D01*
X108379293Y-97734151D01*
X108404356Y-97740178D01*
X108428457Y-97747194D01*
X108451648Y-97755165D01*
X108473982Y-97764060D01*
X108495510Y-97773844D01*
X108516285Y-97784485D01*
X108536360Y-97795949D01*
X108555788Y-97808205D01*
X108574620Y-97821217D01*
X108592910Y-97834955D01*
X108610709Y-97849384D01*
X108492705Y-97987973D01*
X108478626Y-97978350D01*
X108464467Y-97969148D01*
X108450190Y-97960393D01*
X108435761Y-97952113D01*
X108421143Y-97944336D01*
X108406302Y-97937090D01*
X108391201Y-97930402D01*
X108375805Y-97924301D01*
X108360079Y-97918813D01*
X108343987Y-97913967D01*
X108327493Y-97909790D01*
X108310561Y-97906311D01*
X108293157Y-97903556D01*
X108275245Y-97901554D01*
X108256788Y-97900333D01*
X108237752Y-97899919D01*
X108226572Y-97900061D01*
X108215856Y-97900483D01*
X108205598Y-97901180D01*
X108195790Y-97902144D01*
X108186425Y-97903371D01*
X108177497Y-97904854D01*
X108168997Y-97906588D01*
X108160918Y-97908566D01*
X108153254Y-97910784D01*
X108145996Y-97913235D01*
X108139139Y-97915912D01*
X108132675Y-97918811D01*
X108126596Y-97921926D01*
X108120895Y-97925250D01*
X108115565Y-97928777D01*
X108110600Y-97932503D01*
X108105991Y-97936420D01*
X108101732Y-97940524D01*
X108097815Y-97944807D01*
X108094233Y-97949265D01*
X108090979Y-97953892D01*
X108088045Y-97958681D01*
X108085426Y-97963626D01*
X108083112Y-97968723D01*
X108081098Y-97973964D01*
X108079375Y-97979345D01*
X108077938Y-97984858D01*
X108076778Y-97990499D01*
X108075888Y-97996262D01*
X108075261Y-98002140D01*
X108074891Y-98008128D01*
X108074769Y-98014219D01*
X108075128Y-98021940D01*
X108076242Y-98029612D01*
X108078163Y-98037185D01*
X108080942Y-98044610D01*
X108084632Y-98051838D01*
X108089285Y-98058819D01*
X108094954Y-98065505D01*
X108098185Y-98068722D01*
X108101690Y-98071846D01*
X108105475Y-98074871D01*
X108109546Y-98077792D01*
X108113911Y-98080602D01*
X108118575Y-98083294D01*
X108123545Y-98085864D01*
X108128828Y-98088304D01*
X108140357Y-98092771D01*
X108153216Y-98096646D01*
X108167455Y-98099881D01*
X108183128Y-98102426D01*
X108200287Y-98104231D01*
X108357714Y-98115396D01*
X108375824Y-98116938D01*
X108393248Y-98119091D01*
X108409994Y-98121844D01*
X108426069Y-98125181D01*
X108441480Y-98129090D01*
X108456235Y-98133556D01*
X108470341Y-98138566D01*
X108483805Y-98144106D01*
X108496634Y-98150162D01*
X108508835Y-98156721D01*
X108520417Y-98163768D01*
X108531385Y-98171290D01*
X108541748Y-98179273D01*
X108551513Y-98187703D01*
X108560686Y-98196567D01*
X108569275Y-98205851D01*
X108577288Y-98215540D01*
X108584731Y-98225622D01*
X108591611Y-98236083D01*
X108597937Y-98246908D01*
X108603715Y-98258084D01*
X108608953Y-98269597D01*
X108613658Y-98281434D01*
X108617836Y-98293581D01*
X108621496Y-98306023D01*
X108624644Y-98318747D01*
X108629435Y-98344987D01*
X108632267Y-98372190D01*
X108633198Y-98400247D01*
X108632697Y-98417413D01*
X108631208Y-98434113D01*
X108628754Y-98450340D01*
X108625359Y-98466091D01*
X108621043Y-98481359D01*
X108615830Y-98496140D01*
X108609744Y-98510428D01*
X108602805Y-98524219D01*
X108595038Y-98537508D01*
X108586464Y-98550288D01*
X108577106Y-98562556D01*
X108566988Y-98574305D01*
X108556130Y-98585532D01*
X108544558Y-98596230D01*
X108532292Y-98606394D01*
X108519355Y-98616020D01*
X108505770Y-98625103D01*
X108491561Y-98633636D01*
X108461356Y-98649037D01*
X108428923Y-98662180D01*
X108394441Y-98673026D01*
X108358093Y-98681533D01*
X108320058Y-98687660D01*
X108280520Y-98691366D01*
X108239657Y-98692611D01*
X108210978Y-98691951D01*
X108182575Y-98689970D01*
X108154463Y-98686666D01*
X108126655Y-98682035D01*
X108099166Y-98676076D01*
X108072008Y-98668785D01*
X108045196Y-98660160D01*
X108018744Y-98650198D01*
X107992664Y-98638896D01*
X107966972Y-98626253D01*
X107941681Y-98612264D01*
X107916805Y-98596929D01*
X107892357Y-98580243D01*
X107868351Y-98562205D01*
X107844801Y-98542811D01*
X107821721Y-98522060D01*
X107954754Y-98390933D01*
X107970308Y-98405590D01*
X107986082Y-98419319D01*
X108002119Y-98432116D01*
X108018464Y-98443980D01*
X108035161Y-98454908D01*
X108052254Y-98464898D01*
X108069785Y-98473948D01*
X108087800Y-98482055D01*
X108106342Y-98489217D01*
X108125455Y-98495431D01*
X108145183Y-98500696D01*
X108165569Y-98505009D01*
X108186659Y-98508367D01*
X108208494Y-98510769D01*
X108231120Y-98512212D01*
X108254580Y-98512693D01*
X108264676Y-98512573D01*
X108274588Y-98512211D01*
X108284307Y-98511609D01*
X108293825Y-98510767D01*
X108303132Y-98509685D01*
X108312219Y-98508363D01*
X108321077Y-98506802D01*
X108329698Y-98505001D01*
X108338072Y-98502963D01*
X108346191Y-98500685D01*
X108354045Y-98498170D01*
X108361626Y-98495417D01*
X108368924Y-98492427D01*
X108375931Y-98489200D01*
X108382638Y-98485736D01*
X108389035Y-98482035D01*
X108395114Y-98478098D01*
X108400866Y-98473926D01*
X108406281Y-98469518D01*
X108411352Y-98464875D01*
X108416068Y-98459997D01*
X108420421Y-98454885D01*
X108424402Y-98449538D01*
X108428002Y-98443957D01*
X108431212Y-98438143D01*
X108434024Y-98432096D01*
X108436427Y-98425816D01*
X108438413Y-98419303D01*
X108439974Y-98412558D01*
X108441100Y-98405581D01*
X108441782Y-98398373D01*
X108442011Y-98390933D01*
X108441864Y-98384744D01*
X108441428Y-98378823D01*
X108440708Y-98373165D01*
X108439711Y-98367763D01*
X108438445Y-98362612D01*
X108436915Y-98357707D01*
X108435127Y-98353041D01*
X108433089Y-98348608D01*
X108430806Y-98344403D01*
X108428286Y-98340420D01*
X108425535Y-98336653D01*
X108422558Y-98333097D01*
X108419364Y-98329745D01*
X108415957Y-98326591D01*
X108412345Y-98323631D01*
X108408535Y-98320858D01*
X108404531Y-98318266D01*
X108400342Y-98315850D01*
X108391433Y-98311522D01*
X108381857Y-98307826D01*
X108371667Y-98304717D01*
X108360915Y-98302147D01*
X108349653Y-98300072D01*
X108337933Y-98298444D01*
X108325806Y-98297217D01*
X108157107Y-98282241D01*
X108128101Y-98278839D01*
X108100169Y-98273562D01*
X108086640Y-98270227D01*
X108073421Y-98266429D01*
X108060526Y-98262172D01*
X108047969Y-98257457D01*
X108035762Y-98252285D01*
X108023920Y-98246661D01*
X108012457Y-98240584D01*
X108001387Y-98234058D01*
X107990722Y-98227085D01*
X107980478Y-98219666D01*
X107970666Y-98211804D01*
X107961303Y-98203501D01*
X107952400Y-98194759D01*
X107943972Y-98185580D01*
X107936033Y-98175966D01*
X107928595Y-98165920D01*
X107921674Y-98155442D01*
X107915283Y-98144537D01*
X107909435Y-98133204D01*
X107904144Y-98121447D01*
X107899425Y-98109268D01*
X107895290Y-98096669D01*
X107891753Y-98083652D01*
X107888829Y-98070218D01*
X107886531Y-98056371D01*
X107884872Y-98042112D01*
X107883866Y-98027443D01*
X107883528Y-98012366D01*
X107883975Y-97994543D01*
X107885303Y-97977271D01*
X107887492Y-97960549D01*
X107890523Y-97944380D01*
X107894376Y-97928764D01*
X107899031Y-97913702D01*
X107904470Y-97899196D01*
X107910672Y-97885246D01*
X107917618Y-97871853D01*
X107925288Y-97859018D01*
X107933664Y-97846743D01*
X107942724Y-97835028D01*
X107952450Y-97823875D01*
X107962822Y-97813284D01*
X107973820Y-97803257D01*
X107985426Y-97793794D01*
X107997619Y-97784897D01*
X108010380Y-97776566D01*
X108023689Y-97768803D01*
X108037527Y-97761609D01*
X108051874Y-97754984D01*
X108066710Y-97748930D01*
X108097774Y-97738538D01*
X108130561Y-97730441D01*
X108164916Y-97724647D01*
X108200681Y-97721165D01*
X108237700Y-97720002D01*
X108268363Y-97720590D01*
G37*
G36*
X106010710Y-97720349D02*
G01*
X106030106Y-97721702D01*
X106049280Y-97723942D01*
X106068205Y-97727058D01*
X106086853Y-97731037D01*
X106105196Y-97735867D01*
X106123206Y-97741536D01*
X106140853Y-97748033D01*
X106158111Y-97755345D01*
X106174951Y-97763461D01*
X106191345Y-97772368D01*
X106207265Y-97782055D01*
X106222683Y-97792508D01*
X106237570Y-97803718D01*
X106251899Y-97815671D01*
X106265641Y-97828355D01*
X106278768Y-97841759D01*
X106291252Y-97855870D01*
X106303065Y-97870677D01*
X106314179Y-97886167D01*
X106324565Y-97902329D01*
X106334196Y-97919150D01*
X106343043Y-97936619D01*
X106351078Y-97954724D01*
X106358273Y-97973452D01*
X106364601Y-97992792D01*
X106370032Y-98012732D01*
X106374538Y-98033259D01*
X106378092Y-98054362D01*
X106380666Y-98076028D01*
X106382231Y-98098246D01*
X106382759Y-98121004D01*
X106382759Y-98278431D01*
X105790568Y-98278431D01*
X105790846Y-98292790D01*
X105791673Y-98306700D01*
X105793038Y-98320158D01*
X105794931Y-98333166D01*
X105797339Y-98345721D01*
X105800253Y-98357825D01*
X105803660Y-98369476D01*
X105807551Y-98380675D01*
X105811914Y-98391421D01*
X105816738Y-98401713D01*
X105822013Y-98411552D01*
X105827727Y-98420937D01*
X105833869Y-98429867D01*
X105840428Y-98438343D01*
X105847394Y-98446363D01*
X105854756Y-98453928D01*
X105862502Y-98461037D01*
X105870621Y-98467691D01*
X105879103Y-98473887D01*
X105887937Y-98479627D01*
X105897111Y-98484910D01*
X105906615Y-98489735D01*
X105916437Y-98494102D01*
X105926567Y-98498011D01*
X105936994Y-98501462D01*
X105947707Y-98504453D01*
X105958694Y-98506985D01*
X105969945Y-98509058D01*
X105981449Y-98510671D01*
X105993195Y-98511823D01*
X106005172Y-98512515D01*
X106017369Y-98512745D01*
X106031130Y-98512352D01*
X106044981Y-98511181D01*
X106058882Y-98509247D01*
X106072790Y-98506562D01*
X106086665Y-98503142D01*
X106100466Y-98498999D01*
X106114152Y-98494148D01*
X106127680Y-98488602D01*
X106141011Y-98482376D01*
X106154103Y-98475482D01*
X106166915Y-98467935D01*
X106179405Y-98459748D01*
X106191533Y-98450936D01*
X106203258Y-98441511D01*
X106214538Y-98431489D01*
X106225331Y-98420882D01*
X106364026Y-98538887D01*
X106346131Y-98558524D01*
X106327612Y-98576696D01*
X106308500Y-98593429D01*
X106288830Y-98608751D01*
X106268633Y-98622690D01*
X106247942Y-98635273D01*
X106226790Y-98646527D01*
X106205210Y-98656480D01*
X106183234Y-98665160D01*
X106160895Y-98672593D01*
X106138226Y-98678807D01*
X106115260Y-98683830D01*
X106092028Y-98687689D01*
X106068565Y-98690411D01*
X106044902Y-98692025D01*
X106021073Y-98692556D01*
X105984221Y-98691408D01*
X105947000Y-98687766D01*
X105909791Y-98681334D01*
X105872972Y-98671816D01*
X105836921Y-98658915D01*
X105819302Y-98651103D01*
X105802018Y-98642335D01*
X105785115Y-98632574D01*
X105768641Y-98621781D01*
X105752643Y-98609921D01*
X105737169Y-98596956D01*
X105722265Y-98582849D01*
X105707980Y-98567564D01*
X105694361Y-98551062D01*
X105681455Y-98533308D01*
X105669309Y-98514264D01*
X105657971Y-98493893D01*
X105647488Y-98472158D01*
X105637908Y-98449022D01*
X105629277Y-98424448D01*
X105621643Y-98398399D01*
X105615054Y-98370838D01*
X105609557Y-98341728D01*
X105605199Y-98311032D01*
X105602027Y-98278713D01*
X105600090Y-98244734D01*
X105599433Y-98209057D01*
X105600035Y-98175176D01*
X105601814Y-98142730D01*
X105603847Y-98121057D01*
X105790568Y-98121057D01*
X106191624Y-98121057D01*
X106190874Y-98107718D01*
X106189683Y-98094776D01*
X106188059Y-98082233D01*
X106186010Y-98070092D01*
X106183545Y-98058354D01*
X106180673Y-98047020D01*
X106177403Y-98036093D01*
X106173742Y-98025574D01*
X106169699Y-98015464D01*
X106165284Y-98005766D01*
X106160504Y-97996481D01*
X106155368Y-97987610D01*
X106149885Y-97979156D01*
X106144063Y-97971120D01*
X106137911Y-97963503D01*
X106131437Y-97956308D01*
X106124651Y-97949536D01*
X106117560Y-97943189D01*
X106110173Y-97937268D01*
X106102499Y-97931776D01*
X106094546Y-97926713D01*
X106086323Y-97922081D01*
X106077838Y-97917883D01*
X106069101Y-97914120D01*
X106060119Y-97910793D01*
X106050901Y-97907904D01*
X106041456Y-97905455D01*
X106031792Y-97903447D01*
X106021919Y-97901883D01*
X106011843Y-97900764D01*
X106001575Y-97900091D01*
X105991122Y-97899866D01*
X105980664Y-97900091D01*
X105970380Y-97900764D01*
X105960280Y-97901883D01*
X105950374Y-97903447D01*
X105940671Y-97905455D01*
X105931180Y-97907904D01*
X105921911Y-97910793D01*
X105912875Y-97914120D01*
X105904080Y-97917883D01*
X105895536Y-97922081D01*
X105887253Y-97926713D01*
X105879241Y-97931776D01*
X105871508Y-97937268D01*
X105864065Y-97943189D01*
X105856921Y-97949536D01*
X105850086Y-97956308D01*
X105843569Y-97963503D01*
X105837381Y-97971119D01*
X105831530Y-97979156D01*
X105826026Y-97987610D01*
X105820880Y-97996480D01*
X105816099Y-98005766D01*
X105811695Y-98015464D01*
X105807677Y-98025573D01*
X105804053Y-98036093D01*
X105800835Y-98047020D01*
X105798032Y-98058354D01*
X105795652Y-98070092D01*
X105793706Y-98082233D01*
X105792204Y-98094775D01*
X105791155Y-98107717D01*
X105790568Y-98121057D01*
X105603847Y-98121057D01*
X105604725Y-98111697D01*
X105608728Y-98082053D01*
X105613779Y-98053774D01*
X105619836Y-98026837D01*
X105626857Y-98001217D01*
X105634798Y-97976892D01*
X105643618Y-97953838D01*
X105653274Y-97932030D01*
X105663723Y-97911446D01*
X105674922Y-97892061D01*
X105686831Y-97873852D01*
X105699405Y-97856796D01*
X105712602Y-97840869D01*
X105726380Y-97826047D01*
X105740697Y-97812306D01*
X105755509Y-97799623D01*
X105770774Y-97787974D01*
X105786450Y-97777336D01*
X105802494Y-97767685D01*
X105818864Y-97758997D01*
X105835517Y-97751248D01*
X105852411Y-97744416D01*
X105869503Y-97738476D01*
X105886750Y-97733405D01*
X105904111Y-97729178D01*
X105921542Y-97725773D01*
X105956446Y-97721333D01*
X105991122Y-97719896D01*
X106010710Y-97720349D01*
G37*
D10*
X107914964Y-95081881D02*
X107913267Y-95080783D01*
X105494591Y-91977708D02*
X105493577Y-91979462D01*
D11*
X104903430Y-98259138D02*
X104904717Y-98285177D01*
D10*
X111848947Y-94640178D02*
X111850406Y-94638736D01*
X105488808Y-92015130D02*
X105489316Y-92017095D01*
D11*
X105256618Y-98398571D02*
X105260517Y-98387592D01*
D10*
X109647466Y-91856838D02*
X109643144Y-91855997D01*
X105692127Y-93501299D02*
X105690121Y-93501808D01*
X109346031Y-96663360D02*
X109347278Y-96664760D01*
X104779701Y-93710453D02*
X104779754Y-94605750D01*
X111153439Y-96331369D02*
X111154144Y-96329453D01*
X110459345Y-96989819D02*
X110461253Y-96990489D01*
D11*
X104902679Y-98207205D02*
X104903430Y-98259138D01*
D10*
X106903358Y-96503492D02*
X106907724Y-96502669D01*
X111156143Y-91994818D02*
X111155292Y-91990812D01*
X109042592Y-94842036D02*
X108999480Y-94885025D01*
X107934362Y-95113730D02*
X107933590Y-95109761D01*
X104812475Y-94650686D02*
X104814400Y-94651290D01*
X111850591Y-93677591D02*
X111847625Y-93674770D01*
X111855819Y-93683898D02*
X111853329Y-93680641D01*
X107623939Y-91601743D02*
X107620138Y-91603550D01*
X107416242Y-94563211D02*
X107404179Y-94534762D01*
X111841085Y-93669913D02*
X111839338Y-93668880D01*
X106992523Y-91857415D02*
X106987990Y-91857730D01*
X105704044Y-94832581D02*
X105706955Y-94836034D01*
X107641606Y-91588341D02*
X107638325Y-91591517D01*
X107278199Y-96675221D02*
X107279968Y-96674817D01*
D11*
X105073906Y-98501019D02*
X105090110Y-98501475D01*
D10*
X108710349Y-95129756D02*
X108710789Y-95131717D01*
X107832064Y-90642918D02*
X107831195Y-90644745D01*
X106145314Y-96987716D02*
X106147153Y-96988571D01*
X106181147Y-96991024D02*
X106183088Y-96990437D01*
X105495681Y-91976004D02*
X105494591Y-91977708D01*
X110910343Y-93469267D02*
X110908147Y-93465540D01*
X111148745Y-91976004D02*
X111147578Y-91974353D01*
X110481478Y-91323621D02*
X110477388Y-91323405D01*
D11*
X105121885Y-97912782D02*
X105106483Y-97911513D01*
D10*
X111835728Y-93667049D02*
X111833869Y-93666258D01*
X110927082Y-94854776D02*
X110927739Y-94852848D01*
X105987630Y-95537143D02*
X105987935Y-95541673D01*
X111864174Y-93704453D02*
X111863838Y-93702458D01*
X109382656Y-96674666D02*
X109384512Y-96674111D01*
X105728810Y-93476459D02*
X105725811Y-93479879D01*
X105716573Y-94852795D02*
X105717225Y-94854723D01*
X107813380Y-95017587D02*
X107807072Y-95012644D01*
X111862285Y-93696585D02*
X111861595Y-93694673D01*
X107272767Y-96675885D02*
X107274594Y-96675756D01*
X105696150Y-93500021D02*
X105692127Y-93501299D01*
X105738898Y-93459848D02*
X105738096Y-93461755D01*
X105489908Y-92019034D02*
X105490584Y-92020940D01*
X107392115Y-93822819D02*
X107409845Y-93777856D01*
X108999825Y-91584970D02*
X108996907Y-91581429D01*
D11*
X105073911Y-97911539D02*
X105058670Y-97912885D01*
X105106483Y-97911513D02*
X105090110Y-97911084D01*
D10*
X111147578Y-91974353D02*
X111146334Y-91972760D01*
X105711998Y-94843294D02*
X105714078Y-94847055D01*
X109006218Y-91591517D02*
X109002937Y-91588341D01*
D11*
X104912484Y-98064692D02*
X104910296Y-98077067D01*
D10*
X107627681Y-91599610D02*
X107623939Y-91601743D01*
X109631260Y-91851861D02*
X109028222Y-91605005D01*
X107922517Y-95088489D02*
X107921134Y-95087030D01*
X108849530Y-95002403D02*
X108843480Y-95007553D01*
D12*
G36*
X104170414Y-97720081D02*
G01*
X104183769Y-97720627D01*
X104196781Y-97721520D01*
X104209456Y-97722750D01*
X104221797Y-97724302D01*
X104233810Y-97726164D01*
X104245498Y-97728323D01*
X104256867Y-97730767D01*
X104267920Y-97733483D01*
X104278662Y-97736458D01*
X104289098Y-97739680D01*
X104299232Y-97743136D01*
X104309068Y-97746812D01*
X104318611Y-97750697D01*
X104327865Y-97754778D01*
X104336835Y-97759041D01*
X104353940Y-97768066D01*
X104369961Y-97777670D01*
X104384933Y-97787752D01*
X104398894Y-97798209D01*
X104411877Y-97808941D01*
X104423919Y-97819845D01*
X104435055Y-97830819D01*
X104445321Y-97841763D01*
X104458521Y-97856883D01*
X104470731Y-97872145D01*
X104481970Y-97887736D01*
X104492257Y-97903843D01*
X104501611Y-97920652D01*
X104510051Y-97938351D01*
X104517596Y-97957126D01*
X104524266Y-97977163D01*
X104530079Y-97998651D01*
X104535055Y-98021776D01*
X104539213Y-98046724D01*
X104542572Y-98073682D01*
X104545152Y-98102837D01*
X104546970Y-98134376D01*
X104548047Y-98168486D01*
X104548402Y-98205354D01*
X104548047Y-98242530D01*
X104546970Y-98276912D01*
X104545152Y-98308690D01*
X104542572Y-98338052D01*
X104539213Y-98365187D01*
X104535055Y-98390285D01*
X104530079Y-98413535D01*
X104524266Y-98435125D01*
X104517596Y-98455245D01*
X104510051Y-98474084D01*
X104501611Y-98491830D01*
X104492257Y-98508673D01*
X104481970Y-98524803D01*
X104470731Y-98540407D01*
X104458521Y-98555675D01*
X104445321Y-98570797D01*
X104435055Y-98581739D01*
X104423919Y-98592710D01*
X104411877Y-98603609D01*
X104398894Y-98614333D01*
X104384933Y-98624783D01*
X104369961Y-98634855D01*
X104353940Y-98644450D01*
X104336835Y-98653465D01*
X104318611Y-98661799D01*
X104299232Y-98669351D01*
X104278662Y-98676019D01*
X104256867Y-98681703D01*
X104233810Y-98686299D01*
X104209456Y-98689708D01*
X104183769Y-98691828D01*
X104156713Y-98692557D01*
X104143007Y-98692373D01*
X104129648Y-98691828D01*
X104116632Y-98690936D01*
X104103953Y-98689708D01*
X104091608Y-98688159D01*
X104079592Y-98686299D01*
X104067900Y-98684143D01*
X104056529Y-98681703D01*
X104045473Y-98678991D01*
X104034728Y-98676020D01*
X104024290Y-98672802D01*
X104014154Y-98669351D01*
X104004317Y-98665679D01*
X103994772Y-98661799D01*
X103985516Y-98657724D01*
X103976545Y-98653465D01*
X103959438Y-98644450D01*
X103943416Y-98634856D01*
X103928442Y-98624783D01*
X103914481Y-98614334D01*
X103901497Y-98603609D01*
X103889455Y-98592710D01*
X103878319Y-98581739D01*
X103868053Y-98570797D01*
X103854853Y-98555676D01*
X103842644Y-98540409D01*
X103831408Y-98524807D01*
X103821125Y-98508681D01*
X103811775Y-98491840D01*
X103803339Y-98474097D01*
X103795799Y-98455262D01*
X103789134Y-98435144D01*
X103783326Y-98413556D01*
X103778354Y-98390308D01*
X103774201Y-98365210D01*
X103770846Y-98338074D01*
X103768270Y-98308709D01*
X103766454Y-98276927D01*
X103765378Y-98242539D01*
X103765024Y-98205354D01*
X103956159Y-98205354D01*
X103956294Y-98230200D01*
X103956713Y-98252840D01*
X103957434Y-98273442D01*
X103958477Y-98292174D01*
X103959860Y-98309202D01*
X103961603Y-98324695D01*
X103963726Y-98338821D01*
X103966246Y-98351748D01*
X103969184Y-98363642D01*
X103972558Y-98374673D01*
X103976388Y-98385007D01*
X103980693Y-98394812D01*
X103985492Y-98404256D01*
X103990804Y-98413508D01*
X103996648Y-98422734D01*
X104003043Y-98432102D01*
X104008679Y-98439378D01*
X104015022Y-98446402D01*
X104022036Y-98453143D01*
X104029681Y-98459573D01*
X104037919Y-98465661D01*
X104046712Y-98471377D01*
X104056021Y-98476691D01*
X104065809Y-98481573D01*
X104076036Y-98485992D01*
X104086664Y-98489920D01*
X104097656Y-98493326D01*
X104108972Y-98496180D01*
X104120574Y-98498452D01*
X104132423Y-98500112D01*
X104144483Y-98501130D01*
X104156713Y-98501476D01*
X104168934Y-98501129D01*
X104180985Y-98500110D01*
X104192828Y-98498447D01*
X104204425Y-98496173D01*
X104215736Y-98493315D01*
X104226725Y-98489906D01*
X104237351Y-98485975D01*
X104247578Y-98481553D01*
X104257366Y-98476669D01*
X104266677Y-98471353D01*
X104275473Y-98465637D01*
X104283716Y-98459551D01*
X104291366Y-98453124D01*
X104298387Y-98446386D01*
X104304738Y-98439369D01*
X104307652Y-98435765D01*
X104310383Y-98432102D01*
X104316778Y-98422734D01*
X104322620Y-98413511D01*
X104327929Y-98404269D01*
X104332725Y-98394841D01*
X104337025Y-98385063D01*
X104340851Y-98374770D01*
X104344221Y-98363797D01*
X104347154Y-98351979D01*
X104349669Y-98339151D01*
X104351787Y-98325148D01*
X104353526Y-98309804D01*
X104354905Y-98292955D01*
X104355944Y-98274436D01*
X104356663Y-98254081D01*
X104357214Y-98207206D01*
X104357080Y-98182359D01*
X104356663Y-98159715D01*
X104355944Y-98139109D01*
X104354905Y-98120372D01*
X104353526Y-98103337D01*
X104351787Y-98087837D01*
X104349669Y-98073704D01*
X104347154Y-98060772D01*
X104344221Y-98048873D01*
X104340851Y-98037840D01*
X104337025Y-98027506D01*
X104332725Y-98017703D01*
X104327929Y-98008264D01*
X104322620Y-97999021D01*
X104316778Y-97989808D01*
X104310383Y-97980458D01*
X104304738Y-97973182D01*
X104298387Y-97966158D01*
X104291366Y-97959416D01*
X104283716Y-97952986D01*
X104275473Y-97946898D01*
X104266677Y-97941183D01*
X104257366Y-97935869D01*
X104247578Y-97930987D01*
X104237351Y-97926567D01*
X104226725Y-97922639D01*
X104215736Y-97919233D01*
X104204425Y-97916379D01*
X104192828Y-97914107D01*
X104180985Y-97912448D01*
X104168934Y-97911430D01*
X104156713Y-97911084D01*
X104144483Y-97911430D01*
X104132423Y-97912450D01*
X104120574Y-97914112D01*
X104108972Y-97916387D01*
X104097656Y-97919244D01*
X104086664Y-97922653D01*
X104076036Y-97926584D01*
X104065809Y-97931007D01*
X104056021Y-97935891D01*
X104046712Y-97941206D01*
X104037919Y-97946922D01*
X104029681Y-97953009D01*
X104022036Y-97959436D01*
X104015022Y-97966173D01*
X104008679Y-97973191D01*
X104005770Y-97976795D01*
X104003043Y-97980458D01*
X103996648Y-97989808D01*
X103990804Y-97999018D01*
X103985492Y-98008252D01*
X103980693Y-98017674D01*
X103976388Y-98027450D01*
X103972558Y-98037743D01*
X103969184Y-98048718D01*
X103966246Y-98060541D01*
X103963726Y-98073375D01*
X103961603Y-98087384D01*
X103959860Y-98102735D01*
X103958477Y-98119590D01*
X103957434Y-98138115D01*
X103956713Y-98158474D01*
X103956159Y-98205354D01*
X103765024Y-98205354D01*
X103765378Y-98168487D01*
X103766454Y-98134379D01*
X103768270Y-98102842D01*
X103770846Y-98073689D01*
X103774201Y-98046734D01*
X103778354Y-98021790D01*
X103783326Y-97998668D01*
X103789134Y-97977183D01*
X103795799Y-97957147D01*
X103803339Y-97938374D01*
X103811775Y-97920675D01*
X103821125Y-97903865D01*
X103831408Y-97887755D01*
X103842644Y-97872160D01*
X103854853Y-97856891D01*
X103868053Y-97841763D01*
X103878319Y-97830819D01*
X103889455Y-97819845D01*
X103901497Y-97808941D01*
X103914481Y-97798210D01*
X103928442Y-97787752D01*
X103943416Y-97777671D01*
X103959438Y-97768066D01*
X103976545Y-97759041D01*
X103994772Y-97750697D01*
X104014154Y-97743136D01*
X104034728Y-97736459D01*
X104056529Y-97730767D01*
X104079592Y-97726164D01*
X104103953Y-97722750D01*
X104129648Y-97720627D01*
X104156713Y-97719896D01*
X104170414Y-97720081D01*
G37*
D11*
X105260517Y-98025252D02*
X105256618Y-98014223D01*
D10*
X104785293Y-93689105D02*
X104784363Y-93690921D01*
X107834044Y-90639378D02*
X107833014Y-90641128D01*
X111151795Y-96335094D02*
X111152656Y-96333250D01*
X106987990Y-91857730D02*
X106983405Y-91857785D01*
X106186927Y-91327263D02*
X106185052Y-91326502D01*
D11*
X104929621Y-98405656D02*
X104934499Y-98416037D01*
D10*
X109705780Y-96504509D02*
X109709976Y-96503435D01*
D12*
G36*
X107982853Y-100182109D02*
G01*
X107791718Y-100182109D01*
X107791718Y-100082784D01*
X107780151Y-100094822D01*
X107767952Y-100106345D01*
X107755148Y-100117317D01*
X107741767Y-100127702D01*
X107727836Y-100137463D01*
X107713383Y-100146566D01*
X107698435Y-100154973D01*
X107683020Y-100162648D01*
X107667166Y-100169556D01*
X107650899Y-100175660D01*
X107634248Y-100180924D01*
X107617239Y-100185311D01*
X107599901Y-100188787D01*
X107582261Y-100191314D01*
X107564346Y-100192857D01*
X107546184Y-100193380D01*
X107535384Y-100193227D01*
X107524769Y-100192773D01*
X107514341Y-100192023D01*
X107504099Y-100190985D01*
X107494043Y-100189664D01*
X107484172Y-100188066D01*
X107474485Y-100186197D01*
X107464983Y-100184065D01*
X107455665Y-100181674D01*
X107446531Y-100179031D01*
X107437580Y-100176142D01*
X107428812Y-100173014D01*
X107420227Y-100169653D01*
X107411824Y-100166064D01*
X107395564Y-100158230D01*
X107380028Y-100149561D01*
X107365215Y-100140106D01*
X107351121Y-100129916D01*
X107337743Y-100119040D01*
X107325079Y-100107527D01*
X107313125Y-100095426D01*
X107301879Y-100082788D01*
X107291337Y-100069661D01*
X107281929Y-100057033D01*
X107273367Y-100044277D01*
X107265618Y-100031133D01*
X107258650Y-100017338D01*
X107252429Y-100002633D01*
X107246922Y-99986757D01*
X107242096Y-99969448D01*
X107237918Y-99950446D01*
X107234356Y-99929490D01*
X107231375Y-99906319D01*
X107228944Y-99880673D01*
X107227029Y-99852290D01*
X107224615Y-99786271D01*
X107223869Y-99706176D01*
X107415004Y-99706176D01*
X107415153Y-99733892D01*
X107415758Y-99761390D01*
X107417054Y-99788455D01*
X107419278Y-99814869D01*
X107422667Y-99840416D01*
X107424871Y-99852797D01*
X107427455Y-99864880D01*
X107430448Y-99876637D01*
X107433880Y-99888042D01*
X107437779Y-99899068D01*
X107442176Y-99909687D01*
X107447101Y-99919872D01*
X107452582Y-99929597D01*
X107458649Y-99938834D01*
X107465331Y-99947556D01*
X107472659Y-99955736D01*
X107480662Y-99963347D01*
X107489369Y-99970361D01*
X107498809Y-99976753D01*
X107509013Y-99982494D01*
X107520009Y-99987557D01*
X107531827Y-99991916D01*
X107544498Y-99995543D01*
X107558049Y-99998411D01*
X107572512Y-100000493D01*
X107587914Y-100001762D01*
X107604287Y-100002192D01*
X107620491Y-100001736D01*
X107635736Y-100000391D01*
X107650051Y-99998188D01*
X107663464Y-99995161D01*
X107676006Y-99991340D01*
X107687706Y-99986759D01*
X107698592Y-99981449D01*
X107708694Y-99975443D01*
X107718040Y-99968773D01*
X107726661Y-99961471D01*
X107734585Y-99953569D01*
X107741842Y-99945100D01*
X107748460Y-99936096D01*
X107754469Y-99926589D01*
X107759898Y-99916611D01*
X107764776Y-99906194D01*
X107769133Y-99895372D01*
X107772997Y-99884175D01*
X107779364Y-99860787D01*
X107784111Y-99836290D01*
X107787472Y-99810941D01*
X107789680Y-99784997D01*
X107790967Y-99758716D01*
X107791718Y-99706176D01*
X107791569Y-99680319D01*
X107790967Y-99654239D01*
X107789680Y-99628195D01*
X107787472Y-99602450D01*
X107784111Y-99577264D01*
X107781925Y-99564962D01*
X107779364Y-99552898D01*
X107776397Y-99541105D01*
X107772997Y-99529614D01*
X107769133Y-99518459D01*
X107764776Y-99507673D01*
X107759898Y-99497287D01*
X107754469Y-99487335D01*
X107748460Y-99477849D01*
X107741842Y-99468862D01*
X107734585Y-99460406D01*
X107726661Y-99452514D01*
X107718040Y-99445219D01*
X107708694Y-99438553D01*
X107698592Y-99432550D01*
X107687706Y-99427241D01*
X107676006Y-99422659D01*
X107663464Y-99418837D01*
X107650051Y-99415808D01*
X107635736Y-99413603D01*
X107620491Y-99412257D01*
X107604287Y-99411801D01*
X107587914Y-99412230D01*
X107572512Y-99413500D01*
X107558049Y-99415583D01*
X107544498Y-99418451D01*
X107531827Y-99422077D01*
X107520009Y-99426434D01*
X107509013Y-99431493D01*
X107498809Y-99437229D01*
X107489369Y-99443612D01*
X107480662Y-99450617D01*
X107472659Y-99458214D01*
X107465331Y-99466378D01*
X107458649Y-99475079D01*
X107452582Y-99484292D01*
X107447101Y-99493988D01*
X107442176Y-99504140D01*
X107437779Y-99514721D01*
X107433880Y-99525702D01*
X107427455Y-99548759D01*
X107422667Y-99573090D01*
X107419278Y-99598476D01*
X107417054Y-99624697D01*
X107415758Y-99651534D01*
X107415004Y-99706176D01*
X107223869Y-99706176D01*
X107224050Y-99664528D01*
X107224615Y-99626623D01*
X107225597Y-99592204D01*
X107227029Y-99561013D01*
X107228944Y-99532790D01*
X107231375Y-99507278D01*
X107234356Y-99484219D01*
X107237918Y-99463355D01*
X107242096Y-99444426D01*
X107244426Y-99435607D01*
X107246922Y-99427175D01*
X107249588Y-99419098D01*
X107252429Y-99411344D01*
X107255448Y-99403879D01*
X107258650Y-99396673D01*
X107265618Y-99382906D01*
X107273367Y-99369783D01*
X107281929Y-99357046D01*
X107291337Y-99344438D01*
X107301879Y-99331293D01*
X107313125Y-99318642D01*
X107325079Y-99306532D01*
X107337743Y-99295014D01*
X107351121Y-99284135D01*
X107365215Y-99273946D01*
X107380028Y-99264494D01*
X107395564Y-99255829D01*
X107411824Y-99248000D01*
X107428812Y-99241056D01*
X107446531Y-99235046D01*
X107464983Y-99230019D01*
X107484172Y-99226024D01*
X107504099Y-99223109D01*
X107524769Y-99221325D01*
X107546184Y-99220719D01*
X107564222Y-99221240D01*
X107581799Y-99222783D01*
X107598935Y-99225314D01*
X107615654Y-99228801D01*
X107631977Y-99233210D01*
X107647927Y-99238509D01*
X107663525Y-99244664D01*
X107678794Y-99251642D01*
X107693754Y-99259411D01*
X107708430Y-99267938D01*
X107722841Y-99277190D01*
X107737012Y-99287134D01*
X107750962Y-99297736D01*
X107764716Y-99308964D01*
X107778293Y-99320786D01*
X107791718Y-99333167D01*
X107791718Y-98847709D01*
X107982853Y-98847709D01*
X107982853Y-100182109D01*
G37*
D10*
X109348586Y-96666084D02*
X109349951Y-96667330D01*
X107932496Y-95105866D02*
X107931088Y-95102072D01*
X107357252Y-94386158D02*
X107350659Y-94355278D01*
X107523675Y-94748489D02*
X107489038Y-94698190D01*
X111150268Y-92028180D02*
X111151277Y-92026436D01*
X110509011Y-96981031D02*
X110510469Y-96979644D01*
X105984396Y-95568692D02*
X105982934Y-95572846D01*
X104780974Y-94615765D02*
X104781496Y-94617724D01*
X105709615Y-94839612D02*
X105711998Y-94843294D01*
D12*
G36*
X111475943Y-99221119D02*
G01*
X111495338Y-99222472D01*
X111514512Y-99224712D01*
X111533436Y-99227827D01*
X111552083Y-99231806D01*
X111570424Y-99236636D01*
X111588432Y-99242305D01*
X111606078Y-99248801D01*
X111623334Y-99256113D01*
X111640172Y-99264228D01*
X111656564Y-99273134D01*
X111672482Y-99282819D01*
X111687897Y-99293271D01*
X111702782Y-99304479D01*
X111717108Y-99316430D01*
X111730847Y-99329111D01*
X111743972Y-99342513D01*
X111756453Y-99356621D01*
X111768264Y-99371424D01*
X111779375Y-99386911D01*
X111789759Y-99403069D01*
X111799388Y-99419886D01*
X111808233Y-99437350D01*
X111816266Y-99455449D01*
X111823460Y-99474172D01*
X111829786Y-99493505D01*
X111835215Y-99513438D01*
X111839721Y-99533958D01*
X111843274Y-99555052D01*
X111845847Y-99576710D01*
X111847411Y-99598920D01*
X111847939Y-99621668D01*
X111847939Y-99779201D01*
X111255854Y-99779201D01*
X111256132Y-99793551D01*
X111256959Y-99807452D01*
X111258323Y-99820902D01*
X111260215Y-99833901D01*
X111262622Y-99846450D01*
X111265534Y-99858547D01*
X111268940Y-99870192D01*
X111272829Y-99881385D01*
X111277190Y-99892125D01*
X111282012Y-99902413D01*
X111287285Y-99912247D01*
X111292996Y-99921628D01*
X111299136Y-99930554D01*
X111305693Y-99939027D01*
X111312657Y-99947044D01*
X111320016Y-99954607D01*
X111327759Y-99961714D01*
X111335876Y-99968365D01*
X111344356Y-99974560D01*
X111353187Y-99980298D01*
X111362359Y-99985579D01*
X111371861Y-99990403D01*
X111381681Y-99994770D01*
X111391809Y-99998678D01*
X111402234Y-100002128D01*
X111412945Y-100005119D01*
X111423931Y-100007651D01*
X111435181Y-100009724D01*
X111446684Y-100011336D01*
X111458429Y-100012488D01*
X111470406Y-100013180D01*
X111482602Y-100013411D01*
X111496345Y-100013018D01*
X111510182Y-100011851D01*
X111524071Y-100009921D01*
X111537971Y-100007242D01*
X111551841Y-100003828D01*
X111565639Y-99999692D01*
X111579324Y-99994847D01*
X111592854Y-99989307D01*
X111606188Y-99983085D01*
X111619285Y-99976193D01*
X111632103Y-99968647D01*
X111644601Y-99960458D01*
X111656738Y-99951640D01*
X111668471Y-99942207D01*
X111679761Y-99932171D01*
X111690564Y-99921547D01*
X111829259Y-100039657D01*
X111811364Y-100059295D01*
X111792845Y-100077466D01*
X111773734Y-100094200D01*
X111754064Y-100109522D01*
X111733868Y-100123461D01*
X111713178Y-100136044D01*
X111692028Y-100147298D01*
X111670450Y-100157251D01*
X111648477Y-100165931D01*
X111626142Y-100173364D01*
X111603477Y-100179578D01*
X111580516Y-100184601D01*
X111557290Y-100188460D01*
X111533834Y-100191183D01*
X111510180Y-100192796D01*
X111486360Y-100193328D01*
X111449498Y-100192179D01*
X111412270Y-100188537D01*
X111375053Y-100182104D01*
X111338228Y-100172585D01*
X111302172Y-100159683D01*
X111284551Y-100151870D01*
X111267264Y-100143101D01*
X111250359Y-100133337D01*
X111233884Y-100122543D01*
X111217884Y-100110681D01*
X111202409Y-100097714D01*
X111187505Y-100083604D01*
X111173219Y-100068316D01*
X111159599Y-100051811D01*
X111146692Y-100034053D01*
X111134545Y-100015004D01*
X111123207Y-99994629D01*
X111112723Y-99972889D01*
X111103142Y-99949748D01*
X111094511Y-99925168D01*
X111086877Y-99899113D01*
X111080288Y-99871545D01*
X111074791Y-99842428D01*
X111070433Y-99811724D01*
X111067261Y-99779396D01*
X111065323Y-99745408D01*
X111064667Y-99709722D01*
X111065269Y-99675840D01*
X111067048Y-99643396D01*
X111069082Y-99621720D01*
X111255854Y-99621720D01*
X111656857Y-99621720D01*
X111656112Y-99608390D01*
X111654925Y-99595456D01*
X111653304Y-99582921D01*
X111651258Y-99570785D01*
X111648796Y-99559052D01*
X111645926Y-99547723D01*
X111642657Y-99536798D01*
X111638998Y-99526281D01*
X111634956Y-99516173D01*
X111630541Y-99506476D01*
X111625761Y-99497191D01*
X111620625Y-99488320D01*
X111615141Y-99479864D01*
X111609319Y-99471827D01*
X111603166Y-99464208D01*
X111596691Y-99457011D01*
X111589903Y-99450237D01*
X111582810Y-99443886D01*
X111575422Y-99437963D01*
X111567746Y-99432467D01*
X111559792Y-99427401D01*
X111551567Y-99422766D01*
X111543081Y-99418564D01*
X111534342Y-99414798D01*
X111525358Y-99411468D01*
X111516139Y-99408576D01*
X111506693Y-99406124D01*
X111497028Y-99404115D01*
X111487153Y-99402549D01*
X111477077Y-99401428D01*
X111466808Y-99400754D01*
X111456355Y-99400529D01*
X111445897Y-99400754D01*
X111435614Y-99401428D01*
X111425514Y-99402549D01*
X111415607Y-99404115D01*
X111405904Y-99406124D01*
X111396413Y-99408576D01*
X111387145Y-99411468D01*
X111378109Y-99414797D01*
X111369315Y-99418564D01*
X111360771Y-99422766D01*
X111352489Y-99427400D01*
X111344477Y-99432467D01*
X111336745Y-99437962D01*
X111329303Y-99443886D01*
X111322160Y-99450236D01*
X111315326Y-99457011D01*
X111308811Y-99464208D01*
X111302624Y-99471826D01*
X111296775Y-99479864D01*
X111291273Y-99488319D01*
X111286128Y-99497190D01*
X111281350Y-99506476D01*
X111276948Y-99516173D01*
X111272933Y-99526281D01*
X111269312Y-99536798D01*
X111266097Y-99547722D01*
X111263297Y-99559052D01*
X111260921Y-99570785D01*
X111258979Y-99582920D01*
X111257481Y-99595456D01*
X111256436Y-99608390D01*
X111255854Y-99621720D01*
X111069082Y-99621720D01*
X111069960Y-99612364D01*
X111073964Y-99582722D01*
X111079016Y-99554446D01*
X111085074Y-99527511D01*
X111092096Y-99501895D01*
X111100039Y-99477573D01*
X111108861Y-99454522D01*
X111118518Y-99432719D01*
X111128969Y-99412139D01*
X111140170Y-99392759D01*
X111152080Y-99374555D01*
X111164656Y-99357503D01*
X111177854Y-99341581D01*
X111191634Y-99326764D01*
X111205951Y-99313028D01*
X111220764Y-99300350D01*
X111236031Y-99288706D01*
X111251707Y-99278072D01*
X111267752Y-99268426D01*
X111284121Y-99259742D01*
X111300774Y-99251998D01*
X111317667Y-99245169D01*
X111334758Y-99239233D01*
X111352004Y-99234165D01*
X111369362Y-99229941D01*
X111386791Y-99226539D01*
X111421688Y-99222102D01*
X111456355Y-99220665D01*
X111475943Y-99221119D01*
G37*
D10*
X111155612Y-96301188D02*
X111155103Y-96299220D01*
X105500796Y-91969760D02*
X105499405Y-91971227D01*
X109028222Y-91605005D02*
X109026304Y-91604323D01*
X108815361Y-90650427D02*
X108814754Y-90648502D01*
D11*
X104945937Y-98435466D02*
X104952555Y-98444448D01*
X105185384Y-97930783D02*
X105174388Y-97925719D01*
D10*
X110636378Y-92832122D02*
X110634926Y-92828175D01*
X107013208Y-91851861D02*
X107009452Y-91853511D01*
D11*
X105090110Y-97911084D02*
X105073911Y-97911539D01*
D10*
X105736233Y-93465540D02*
X105734047Y-93469267D01*
D11*
X104925264Y-98394875D02*
X104929621Y-98405656D01*
D10*
X107656434Y-93430350D02*
X107692361Y-93399230D01*
X107009452Y-91853511D02*
X107005471Y-91854888D01*
X109307113Y-94062025D02*
X109310936Y-94112309D01*
X109340821Y-96655250D02*
X109341715Y-96657016D01*
X104796799Y-94641506D02*
X104799980Y-94644072D01*
X107489038Y-94698190D02*
X107457489Y-94645716D01*
X108914523Y-93369837D02*
X108951925Y-93399230D01*
X105493121Y-92026436D02*
X105494137Y-92028180D01*
X107382682Y-94476544D02*
X107373280Y-94446807D01*
X107263495Y-96675085D02*
X107265356Y-96675441D01*
X105488725Y-96301135D02*
X105487960Y-96305137D01*
D11*
X105229065Y-97965725D02*
X105221738Y-97957544D01*
X104904717Y-98285177D02*
X104906925Y-98310916D01*
D10*
X108804200Y-90631313D02*
X108802762Y-90629855D01*
X111155103Y-96299220D02*
X111154510Y-96297281D01*
X109661023Y-91857785D02*
X109656440Y-91857730D01*
X106190505Y-96987250D02*
X106192254Y-96986242D01*
X108707528Y-93250945D02*
X108751384Y-93270773D01*
X107858754Y-90618825D02*
X107856875Y-90619600D01*
X107925081Y-95091588D02*
X107922517Y-95088489D01*
X107622046Y-93463134D02*
X107656434Y-93430350D01*
X109143132Y-93609669D02*
X109168885Y-93649841D01*
X105722593Y-93483151D02*
X105719183Y-93486252D01*
D11*
X105058670Y-97912885D02*
X105044359Y-97915089D01*
D12*
G36*
X109879545Y-98297111D02*
G01*
X109879780Y-98309071D01*
X109880477Y-98320709D01*
X109881627Y-98332022D01*
X109883220Y-98343006D01*
X109885247Y-98353657D01*
X109887699Y-98363971D01*
X109890564Y-98373944D01*
X109893835Y-98383572D01*
X109897501Y-98392853D01*
X109901552Y-98401781D01*
X109905980Y-98410354D01*
X109910774Y-98418566D01*
X109915924Y-98426416D01*
X109921422Y-98433898D01*
X109927258Y-98441009D01*
X109933421Y-98447744D01*
X109939902Y-98454102D01*
X109946692Y-98460076D01*
X109953782Y-98465665D01*
X109961160Y-98470863D01*
X109968819Y-98475667D01*
X109976747Y-98480073D01*
X109984936Y-98484078D01*
X109993376Y-98487677D01*
X110002057Y-98490868D01*
X110010970Y-98493645D01*
X110020106Y-98496005D01*
X110029453Y-98497945D01*
X110039003Y-98499460D01*
X110048747Y-98500547D01*
X110058674Y-98501203D01*
X110068775Y-98501422D01*
X110078717Y-98501203D01*
X110088496Y-98500547D01*
X110098100Y-98499460D01*
X110107520Y-98497945D01*
X110116747Y-98496005D01*
X110125770Y-98493645D01*
X110134579Y-98490868D01*
X110143164Y-98487677D01*
X110151516Y-98484078D01*
X110159624Y-98480073D01*
X110167478Y-98475667D01*
X110175070Y-98470863D01*
X110182387Y-98465665D01*
X110189422Y-98460076D01*
X110196163Y-98454102D01*
X110202601Y-98447744D01*
X110208726Y-98441009D01*
X110214527Y-98433898D01*
X110219996Y-98426416D01*
X110225122Y-98418566D01*
X110229895Y-98410354D01*
X110234304Y-98401781D01*
X110238342Y-98392853D01*
X110241996Y-98383572D01*
X110245257Y-98373944D01*
X110248117Y-98363971D01*
X110250563Y-98353657D01*
X110252587Y-98343006D01*
X110254178Y-98332022D01*
X110255327Y-98320709D01*
X110256024Y-98309071D01*
X110256259Y-98297111D01*
X110256259Y-97731166D01*
X110447341Y-97731166D01*
X110447341Y-98681392D01*
X110256259Y-98681392D01*
X110256259Y-98580109D01*
X110252555Y-98580109D01*
X110241007Y-98593720D01*
X110228862Y-98606454D01*
X110216139Y-98618311D01*
X110202857Y-98629290D01*
X110189037Y-98639392D01*
X110174697Y-98648616D01*
X110159857Y-98656963D01*
X110144538Y-98664431D01*
X110128759Y-98671022D01*
X110112539Y-98676734D01*
X110095899Y-98681568D01*
X110078857Y-98685523D01*
X110061434Y-98688600D01*
X110043650Y-98690798D01*
X110025523Y-98692117D01*
X110007074Y-98692556D01*
X109992971Y-98692222D01*
X109978791Y-98691220D01*
X109950342Y-98687224D01*
X109922003Y-98680588D01*
X109907959Y-98676286D01*
X109894047Y-98671330D01*
X109880298Y-98665725D01*
X109866749Y-98659471D01*
X109853432Y-98652571D01*
X109840384Y-98645028D01*
X109827637Y-98636845D01*
X109815226Y-98628022D01*
X109803186Y-98618564D01*
X109791551Y-98608472D01*
X109780355Y-98597749D01*
X109769633Y-98586397D01*
X109759418Y-98574418D01*
X109749745Y-98561816D01*
X109740650Y-98548591D01*
X109732164Y-98534748D01*
X109724325Y-98520287D01*
X109717164Y-98505212D01*
X109710718Y-98489525D01*
X109705019Y-98473229D01*
X109700103Y-98456325D01*
X109696004Y-98438816D01*
X109692756Y-98420705D01*
X109690394Y-98401993D01*
X109688951Y-98382685D01*
X109688463Y-98362780D01*
X109688463Y-97731166D01*
X109879545Y-97731166D01*
X109879545Y-98297111D01*
G37*
D10*
X111156774Y-92007072D02*
X111156886Y-92002978D01*
X106899104Y-96504582D02*
X106903358Y-96503492D01*
X109380795Y-96675120D02*
X109382656Y-96674666D01*
X106179179Y-96991528D02*
X106181147Y-96991024D01*
X105719183Y-93486252D02*
X105715607Y-93489161D01*
D11*
X104904722Y-98128375D02*
X104903432Y-98154661D01*
D10*
X110500811Y-96986835D02*
X110502559Y-96985826D01*
X111149835Y-91977708D02*
X111148745Y-91976004D01*
X110961484Y-94815872D02*
X110965421Y-94813954D01*
D11*
X105090110Y-98501475D02*
X105106483Y-98501046D01*
D12*
G36*
X107002113Y-97720231D02*
G01*
X107016134Y-97721233D01*
X107044296Y-97725229D01*
X107072386Y-97731866D01*
X107100126Y-97741124D01*
X107113779Y-97746731D01*
X107127241Y-97752985D01*
X107140476Y-97759886D01*
X107153451Y-97767430D01*
X107166131Y-97775615D01*
X107178482Y-97784439D01*
X107190467Y-97793900D01*
X107202054Y-97803994D01*
X107213207Y-97814720D01*
X107223891Y-97826075D01*
X107234072Y-97838057D01*
X107243716Y-97850663D01*
X107252787Y-97863892D01*
X107261251Y-97877740D01*
X107269074Y-97892205D01*
X107276220Y-97907286D01*
X107282655Y-97922978D01*
X107288345Y-97939281D01*
X107293254Y-97956192D01*
X107297348Y-97973708D01*
X107300593Y-97991827D01*
X107302954Y-98010547D01*
X107304396Y-98029865D01*
X107304884Y-98049778D01*
X107304884Y-98681286D01*
X107113749Y-98681286D01*
X107113749Y-98115449D01*
X107113515Y-98103480D01*
X107112818Y-98091833D01*
X107111669Y-98080513D01*
X107110078Y-98069524D01*
X107108054Y-98058868D01*
X107105607Y-98048550D01*
X107102749Y-98038574D01*
X107099487Y-98028943D01*
X107095833Y-98019661D01*
X107091797Y-98010732D01*
X107087387Y-98002159D01*
X107082615Y-97993947D01*
X107077490Y-97986099D01*
X107072023Y-97978618D01*
X107066222Y-97971509D01*
X107060098Y-97964776D01*
X107053662Y-97958421D01*
X107046922Y-97952449D01*
X107039889Y-97946864D01*
X107032573Y-97941669D01*
X107024984Y-97936868D01*
X107017132Y-97932465D01*
X107009026Y-97928463D01*
X107000677Y-97924867D01*
X106992095Y-97921680D01*
X106983289Y-97918906D01*
X106974269Y-97916548D01*
X106965046Y-97914610D01*
X106955630Y-97913097D01*
X106946030Y-97912011D01*
X106936256Y-97911357D01*
X106926318Y-97911138D01*
X106916213Y-97911357D01*
X106906281Y-97912011D01*
X106896533Y-97913097D01*
X106886979Y-97914610D01*
X106877628Y-97916548D01*
X106868489Y-97918905D01*
X106859573Y-97921680D01*
X106850889Y-97924867D01*
X106842446Y-97928463D01*
X106834255Y-97932465D01*
X106826324Y-97936868D01*
X106818663Y-97941669D01*
X106811283Y-97946864D01*
X106804192Y-97952449D01*
X106797401Y-97958421D01*
X106790918Y-97964775D01*
X106784753Y-97971509D01*
X106778917Y-97978618D01*
X106773418Y-97986098D01*
X106768267Y-97993946D01*
X106763472Y-98002159D01*
X106759044Y-98010731D01*
X106754992Y-98019660D01*
X106751326Y-98028942D01*
X106748055Y-98038573D01*
X106745189Y-98048550D01*
X106742738Y-98058868D01*
X106740711Y-98069523D01*
X106739117Y-98080513D01*
X106737967Y-98091833D01*
X106737270Y-98103480D01*
X106737035Y-98115449D01*
X106737035Y-98681286D01*
X106545900Y-98681286D01*
X106545900Y-97731167D01*
X106737035Y-97731167D01*
X106737035Y-97832344D01*
X106740845Y-97832344D01*
X106752383Y-97818734D01*
X106764521Y-97806000D01*
X106777244Y-97794143D01*
X106790534Y-97783163D01*
X106804375Y-97773061D01*
X106818749Y-97763837D01*
X106833641Y-97755490D01*
X106849033Y-97748022D01*
X106864909Y-97741431D01*
X106881252Y-97735719D01*
X106898045Y-97730885D01*
X106915272Y-97726929D01*
X106932915Y-97723853D01*
X106950958Y-97721655D01*
X106969385Y-97720336D01*
X106988178Y-97719896D01*
X107002113Y-97720231D01*
G37*
D10*
X111863838Y-93702458D02*
X111863409Y-93700480D01*
X106186874Y-96989012D02*
X106188711Y-96988173D01*
X110937353Y-94836087D02*
X110940256Y-94832634D01*
D11*
X104939950Y-97986730D02*
X104934520Y-97996713D01*
D10*
X111853329Y-93680641D02*
X111850591Y-93677591D01*
X108777914Y-90616568D02*
X108775923Y-90616228D01*
X108171377Y-93184546D02*
X108220926Y-93178249D01*
X106167018Y-96992826D02*
X106171113Y-96992720D01*
X110489480Y-96991272D02*
X110493391Y-96990104D01*
X110642338Y-92768590D02*
X111149174Y-92029873D01*
X104779754Y-94605750D02*
X104779804Y-94607772D01*
X105498088Y-91972760D02*
X105496847Y-91974353D01*
X110457472Y-96989064D02*
X110459345Y-96989819D01*
X105731564Y-93472915D02*
X105728810Y-93476459D01*
D12*
G36*
X112507174Y-97720349D02*
G01*
X112526562Y-97721702D01*
X112545730Y-97723942D01*
X112564651Y-97727058D01*
X112583295Y-97731037D01*
X112601635Y-97735867D01*
X112619643Y-97741536D01*
X112637290Y-97748033D01*
X112654549Y-97755345D01*
X112671390Y-97763461D01*
X112687786Y-97772368D01*
X112703709Y-97782055D01*
X112719130Y-97792508D01*
X112734021Y-97803718D01*
X112748354Y-97815671D01*
X112762101Y-97828355D01*
X112775233Y-97841759D01*
X112787722Y-97855870D01*
X112799541Y-97870677D01*
X112810660Y-97886167D01*
X112821052Y-97902329D01*
X112830688Y-97919150D01*
X112839541Y-97936619D01*
X112847581Y-97954724D01*
X112854781Y-97973452D01*
X112861113Y-97992792D01*
X112866548Y-98012732D01*
X112871058Y-98033259D01*
X112874615Y-98054362D01*
X112877191Y-98076028D01*
X112878757Y-98098246D01*
X112879285Y-98121004D01*
X112879285Y-98278431D01*
X112287094Y-98278431D01*
X112287372Y-98292790D01*
X112288199Y-98306700D01*
X112289564Y-98320158D01*
X112291455Y-98333166D01*
X112293862Y-98345721D01*
X112296774Y-98357825D01*
X112300180Y-98369476D01*
X112304069Y-98380675D01*
X112308430Y-98391421D01*
X112313252Y-98401713D01*
X112318525Y-98411552D01*
X112324236Y-98420937D01*
X112330376Y-98429867D01*
X112336934Y-98438343D01*
X112343897Y-98446363D01*
X112351256Y-98453928D01*
X112359000Y-98461037D01*
X112367117Y-98467691D01*
X112375596Y-98473887D01*
X112384427Y-98479627D01*
X112393599Y-98484910D01*
X112403101Y-98489735D01*
X112412921Y-98494102D01*
X112423049Y-98498011D01*
X112433475Y-98501462D01*
X112444186Y-98504453D01*
X112455172Y-98506985D01*
X112466422Y-98509058D01*
X112477925Y-98510671D01*
X112489670Y-98511823D01*
X112501646Y-98512515D01*
X112513843Y-98512745D01*
X112527603Y-98512352D01*
X112541453Y-98511181D01*
X112555351Y-98509247D01*
X112569256Y-98506562D01*
X112583128Y-98503142D01*
X112596926Y-98498999D01*
X112610608Y-98494148D01*
X112624134Y-98488602D01*
X112637463Y-98482376D01*
X112650553Y-98475482D01*
X112663365Y-98467935D01*
X112675857Y-98459748D01*
X112687987Y-98450936D01*
X112699716Y-98441511D01*
X112711003Y-98431489D01*
X112721805Y-98420882D01*
X112860500Y-98538887D01*
X112842622Y-98558524D01*
X112824116Y-98576696D01*
X112805014Y-98593429D01*
X112785349Y-98608751D01*
X112765155Y-98622690D01*
X112744465Y-98635273D01*
X112723312Y-98646527D01*
X112701730Y-98656480D01*
X112679752Y-98665160D01*
X112657410Y-98672593D01*
X112634739Y-98678807D01*
X112611771Y-98683830D01*
X112588540Y-98687689D01*
X112565079Y-98690411D01*
X112541421Y-98692025D01*
X112517600Y-98692556D01*
X112480738Y-98691408D01*
X112443510Y-98687766D01*
X112406293Y-98681334D01*
X112369468Y-98671816D01*
X112333412Y-98658915D01*
X112315791Y-98651103D01*
X112298504Y-98642335D01*
X112281600Y-98632574D01*
X112265124Y-98621781D01*
X112249125Y-98609921D01*
X112233649Y-98596956D01*
X112218745Y-98582849D01*
X112204459Y-98567564D01*
X112190839Y-98551062D01*
X112177932Y-98533308D01*
X112165785Y-98514264D01*
X112154447Y-98493893D01*
X112143963Y-98472158D01*
X112134382Y-98449022D01*
X112125751Y-98424448D01*
X112118118Y-98398399D01*
X112111528Y-98370838D01*
X112106031Y-98341728D01*
X112101673Y-98311032D01*
X112098501Y-98278713D01*
X112096563Y-98244734D01*
X112095907Y-98209057D01*
X112096509Y-98175176D01*
X112098287Y-98142730D01*
X112100320Y-98121057D01*
X112287094Y-98121057D01*
X112688097Y-98121057D01*
X112687343Y-98107718D01*
X112686147Y-98094776D01*
X112684520Y-98082233D01*
X112682468Y-98070092D01*
X112680001Y-98058354D01*
X112677127Y-98047020D01*
X112673855Y-98036093D01*
X112670193Y-98025574D01*
X112666149Y-98015464D01*
X112661733Y-98005766D01*
X112656953Y-97996481D01*
X112651818Y-97987610D01*
X112646335Y-97979156D01*
X112640514Y-97971120D01*
X112634363Y-97963503D01*
X112627890Y-97956308D01*
X112621105Y-97949536D01*
X112614015Y-97943189D01*
X112606630Y-97937268D01*
X112598958Y-97931776D01*
X112591006Y-97926713D01*
X112582785Y-97922081D01*
X112574302Y-97917883D01*
X112565566Y-97914120D01*
X112556586Y-97910793D01*
X112547369Y-97907904D01*
X112537925Y-97905455D01*
X112528263Y-97903447D01*
X112518390Y-97901883D01*
X112508315Y-97900764D01*
X112498047Y-97900091D01*
X112487595Y-97899866D01*
X112477137Y-97900091D01*
X112466853Y-97900764D01*
X112456753Y-97901883D01*
X112446847Y-97903447D01*
X112437144Y-97905455D01*
X112427653Y-97907904D01*
X112418385Y-97910793D01*
X112409349Y-97914120D01*
X112400554Y-97917883D01*
X112392011Y-97922081D01*
X112383728Y-97926713D01*
X112375716Y-97931776D01*
X112367985Y-97937268D01*
X112360542Y-97943189D01*
X112353400Y-97949536D01*
X112346566Y-97956308D01*
X112340050Y-97963503D01*
X112333863Y-97971119D01*
X112328014Y-97979156D01*
X112322512Y-97987610D01*
X112317368Y-97996480D01*
X112312589Y-98005766D01*
X112308188Y-98015464D01*
X112304172Y-98025573D01*
X112300552Y-98036093D01*
X112297337Y-98047020D01*
X112294536Y-98058354D01*
X112292160Y-98070092D01*
X112290219Y-98082233D01*
X112288720Y-98094775D01*
X112287676Y-98107717D01*
X112287094Y-98121057D01*
X112100320Y-98121057D01*
X112101198Y-98111697D01*
X112105200Y-98082053D01*
X112110250Y-98053774D01*
X112116305Y-98026837D01*
X112123324Y-98001217D01*
X112131264Y-97976892D01*
X112140083Y-97953838D01*
X112149737Y-97932030D01*
X112160184Y-97911446D01*
X112171382Y-97892061D01*
X112183289Y-97873852D01*
X112195861Y-97856796D01*
X112209057Y-97840869D01*
X112222834Y-97826047D01*
X112237149Y-97812306D01*
X112251960Y-97799623D01*
X112267225Y-97787974D01*
X112282900Y-97777336D01*
X112298944Y-97767685D01*
X112315314Y-97758997D01*
X112331968Y-97751248D01*
X112348862Y-97744416D01*
X112365955Y-97738476D01*
X112383204Y-97733405D01*
X112400567Y-97729178D01*
X112418000Y-97725773D01*
X112452911Y-97721333D01*
X112487596Y-97719896D01*
X112507174Y-97720349D01*
G37*
D10*
X110957619Y-94818079D02*
X110961484Y-94815872D01*
D12*
G36*
X106016653Y-99221660D02*
G01*
X106057857Y-99224560D01*
X106097091Y-99229529D01*
X106115928Y-99232825D01*
X106134224Y-99236681D01*
X106151963Y-99241111D01*
X106169129Y-99246129D01*
X106185705Y-99251748D01*
X106201676Y-99257984D01*
X106217024Y-99264849D01*
X106231735Y-99272358D01*
X106245792Y-99280526D01*
X106259178Y-99289365D01*
X106271878Y-99298891D01*
X106283876Y-99309117D01*
X106295155Y-99320057D01*
X106305700Y-99331725D01*
X106315493Y-99344136D01*
X106324520Y-99357303D01*
X106332763Y-99371241D01*
X106340208Y-99385963D01*
X106346836Y-99401484D01*
X106352634Y-99417817D01*
X106357584Y-99434977D01*
X106361669Y-99452978D01*
X106364876Y-99471833D01*
X106367186Y-99491557D01*
X106368583Y-99512164D01*
X106369053Y-99533668D01*
X106369053Y-100182109D01*
X106177865Y-100182109D01*
X106177865Y-100097760D01*
X106174108Y-100097760D01*
X106166419Y-100109656D01*
X106158058Y-100120723D01*
X106148972Y-100130970D01*
X106139105Y-100140405D01*
X106128402Y-100149037D01*
X106116808Y-100156874D01*
X106104270Y-100163924D01*
X106090731Y-100170197D01*
X106076138Y-100175699D01*
X106060435Y-100180441D01*
X106043568Y-100184430D01*
X106025481Y-100187675D01*
X106006120Y-100190184D01*
X105985431Y-100191965D01*
X105963358Y-100193028D01*
X105939846Y-100193380D01*
X105920252Y-100193015D01*
X105901180Y-100191930D01*
X105882637Y-100190140D01*
X105864631Y-100187663D01*
X105847166Y-100184512D01*
X105830251Y-100180705D01*
X105813891Y-100176256D01*
X105798092Y-100171183D01*
X105782862Y-100165500D01*
X105768207Y-100159223D01*
X105754133Y-100152368D01*
X105740647Y-100144951D01*
X105727755Y-100136988D01*
X105715465Y-100128494D01*
X105703781Y-100119485D01*
X105692712Y-100109977D01*
X105682263Y-100099986D01*
X105672441Y-100089528D01*
X105663252Y-100078618D01*
X105654704Y-100067272D01*
X105646802Y-100055506D01*
X105639552Y-100043336D01*
X105632963Y-100030777D01*
X105627039Y-100017845D01*
X105621788Y-100004557D01*
X105617216Y-99990927D01*
X105613329Y-99976972D01*
X105610135Y-99962707D01*
X105607639Y-99948149D01*
X105605848Y-99933312D01*
X105604769Y-99918214D01*
X105604407Y-99902868D01*
X105604611Y-99893501D01*
X105784271Y-99893501D01*
X105784871Y-99905338D01*
X105786700Y-99916930D01*
X105789797Y-99928206D01*
X105794205Y-99939093D01*
X105796912Y-99944368D01*
X105799963Y-99949520D01*
X105803362Y-99954539D01*
X105807114Y-99959416D01*
X105811225Y-99964143D01*
X105815699Y-99968709D01*
X105820541Y-99973107D01*
X105825758Y-99977328D01*
X105831353Y-99981362D01*
X105837332Y-99985200D01*
X105843701Y-99988835D01*
X105850463Y-99992255D01*
X105857626Y-99995454D01*
X105865192Y-99998421D01*
X105873169Y-100001149D01*
X105881560Y-100003627D01*
X105899608Y-100007800D01*
X105919376Y-100010869D01*
X105940907Y-100012763D01*
X105964241Y-100013411D01*
X105992888Y-100013185D01*
X106019150Y-100012398D01*
X106043101Y-100010881D01*
X106064815Y-100008467D01*
X106074857Y-100006871D01*
X106084366Y-100004987D01*
X106093354Y-100002796D01*
X106101828Y-100000275D01*
X106109799Y-99997405D01*
X106117276Y-99994163D01*
X106124267Y-99990529D01*
X106130783Y-99986482D01*
X106136831Y-99982002D01*
X106142423Y-99977066D01*
X106147566Y-99971655D01*
X106152270Y-99965746D01*
X106156545Y-99959320D01*
X106160400Y-99952356D01*
X106163843Y-99944831D01*
X106166885Y-99936726D01*
X106169534Y-99928020D01*
X106171800Y-99918690D01*
X106173692Y-99908718D01*
X106175219Y-99898081D01*
X106176391Y-99886758D01*
X106177216Y-99874729D01*
X106177704Y-99861973D01*
X106177865Y-99848468D01*
X106177865Y-99779095D01*
X105949265Y-99779095D01*
X105938894Y-99779226D01*
X105928873Y-99779618D01*
X105919200Y-99780265D01*
X105909875Y-99781166D01*
X105900897Y-99782314D01*
X105892263Y-99783708D01*
X105883972Y-99785343D01*
X105876024Y-99787215D01*
X105868415Y-99789321D01*
X105861147Y-99791657D01*
X105854216Y-99794218D01*
X105847621Y-99797002D01*
X105841362Y-99800004D01*
X105835436Y-99803221D01*
X105829843Y-99806648D01*
X105824580Y-99810283D01*
X105819648Y-99814120D01*
X105815043Y-99818158D01*
X105810765Y-99822391D01*
X105806813Y-99826816D01*
X105803185Y-99831428D01*
X105799879Y-99836226D01*
X105796895Y-99841203D01*
X105794231Y-99846358D01*
X105791885Y-99851685D01*
X105789857Y-99857182D01*
X105788144Y-99862844D01*
X105786746Y-99868667D01*
X105785661Y-99874648D01*
X105784888Y-99880784D01*
X105784425Y-99887069D01*
X105784271Y-99893501D01*
X105604611Y-99893501D01*
X105604715Y-99888709D01*
X105605636Y-99874701D01*
X105607170Y-99860863D01*
X105609315Y-99847214D01*
X105612071Y-99833776D01*
X105615438Y-99820566D01*
X105619412Y-99807605D01*
X105623995Y-99794913D01*
X105629184Y-99782508D01*
X105634978Y-99770411D01*
X105641378Y-99758641D01*
X105648380Y-99747218D01*
X105655986Y-99736161D01*
X105664193Y-99725489D01*
X105673000Y-99715224D01*
X105682406Y-99705383D01*
X105692412Y-99695987D01*
X105703014Y-99687055D01*
X105714213Y-99678606D01*
X105726007Y-99670662D01*
X105738396Y-99663240D01*
X105751377Y-99656361D01*
X105764951Y-99650044D01*
X105779117Y-99644308D01*
X105793872Y-99639175D01*
X105809217Y-99634662D01*
X105825149Y-99630789D01*
X105841669Y-99627577D01*
X105858775Y-99625045D01*
X105876466Y-99623211D01*
X105894741Y-99622097D01*
X105913599Y-99621721D01*
X106177865Y-99621721D01*
X106177865Y-99522397D01*
X106177179Y-99506213D01*
X106176316Y-99498618D01*
X106175101Y-99491348D01*
X106173531Y-99484399D01*
X106171602Y-99477766D01*
X106169309Y-99471443D01*
X106166649Y-99465427D01*
X106163619Y-99459712D01*
X106160215Y-99454294D01*
X106156432Y-99449168D01*
X106152268Y-99444329D01*
X106147718Y-99439772D01*
X106142778Y-99435493D01*
X106137445Y-99431487D01*
X106131715Y-99427749D01*
X106125585Y-99424275D01*
X106119050Y-99421059D01*
X106104751Y-99415384D01*
X106088789Y-99410687D01*
X106071133Y-99406929D01*
X106051754Y-99404072D01*
X106030621Y-99402079D01*
X106007704Y-99400911D01*
X105982973Y-99400530D01*
X105964955Y-99400755D01*
X105948108Y-99401445D01*
X105932375Y-99402627D01*
X105917699Y-99404323D01*
X105910739Y-99405371D01*
X105904021Y-99406558D01*
X105897539Y-99407885D01*
X105891286Y-99409356D01*
X105885253Y-99410975D01*
X105879434Y-99412743D01*
X105873821Y-99414665D01*
X105868408Y-99416742D01*
X105863188Y-99418979D01*
X105858152Y-99421378D01*
X105853294Y-99423943D01*
X105848607Y-99426676D01*
X105844083Y-99429580D01*
X105839716Y-99432659D01*
X105835498Y-99435915D01*
X105831421Y-99439352D01*
X105827480Y-99442972D01*
X105823666Y-99446780D01*
X105819972Y-99450777D01*
X105816391Y-99454966D01*
X105812916Y-99459352D01*
X105809541Y-99463936D01*
X105806256Y-99468723D01*
X105803056Y-99473714D01*
X105653144Y-99359414D01*
X105667220Y-99341165D01*
X105682052Y-99324375D01*
X105697647Y-99309004D01*
X105714013Y-99295014D01*
X105731160Y-99282366D01*
X105749094Y-99271021D01*
X105767825Y-99260940D01*
X105787360Y-99252085D01*
X105807708Y-99244417D01*
X105828878Y-99237897D01*
X105850877Y-99232487D01*
X105873714Y-99228147D01*
X105897397Y-99224839D01*
X105921935Y-99222524D01*
X105947335Y-99221164D01*
X105973607Y-99220719D01*
X106016653Y-99221660D01*
G37*
D10*
X106162976Y-91323621D02*
X106158911Y-91324159D01*
X106192254Y-96986242D02*
X106193952Y-96985149D01*
X105493024Y-96289822D02*
X105492096Y-96291613D01*
X111149174Y-92029873D02*
X111150268Y-92028180D01*
X105738096Y-93461755D02*
X105736233Y-93465540D01*
X105488171Y-96321470D02*
X105489026Y-96325481D01*
X109115528Y-93570850D02*
X109143132Y-93609669D01*
X110633912Y-92788245D02*
X110635098Y-92783943D01*
X110946708Y-94826201D02*
X110950206Y-94823267D01*
X107654994Y-91570053D02*
X107652793Y-91573945D01*
D11*
X104952578Y-97968209D02*
X104945959Y-97977218D01*
D10*
X107288365Y-96671474D02*
X107289931Y-96670550D01*
X106138419Y-96983527D02*
X106140066Y-96984688D01*
X110632842Y-92819749D02*
X110632205Y-92815338D01*
D11*
X105205028Y-98469666D02*
X105213735Y-98462662D01*
X105279393Y-98207205D02*
X105278639Y-98151956D01*
D10*
X110459444Y-91326502D02*
X110457574Y-91327263D01*
X107334144Y-94228442D02*
X107332561Y-94195985D01*
X106934354Y-96503389D02*
X106938547Y-96504461D01*
X108984195Y-91556093D02*
X108983772Y-91554099D01*
D11*
X105195588Y-98476049D02*
X105205028Y-98469666D01*
X104903432Y-98154661D02*
X104902829Y-98181023D01*
D10*
X104810512Y-93666258D02*
X104808647Y-93667049D01*
X108996907Y-91581429D02*
X108994204Y-91577745D01*
D11*
X105221738Y-98455066D02*
X105229065Y-98446903D01*
D10*
X106184998Y-96989766D02*
X106186874Y-96989012D01*
X107291453Y-96669543D02*
X107292926Y-96668455D01*
X104805026Y-93668879D02*
X104803275Y-93669913D01*
X111842589Y-94645304D02*
X111844252Y-94644125D01*
X111146334Y-96343602D02*
X111147579Y-96342008D01*
X106135354Y-91335322D02*
X106133892Y-91336718D01*
X108989534Y-91570053D02*
X108987612Y-91566096D01*
X104803275Y-93669913D02*
X104801567Y-93671021D01*
X104816295Y-93664418D02*
X104814338Y-93664940D01*
X107819647Y-95022298D02*
X107813380Y-95017587D01*
X111864054Y-94611846D02*
X111864301Y-94609840D01*
D11*
X105260517Y-98387592D02*
X105263949Y-98376240D01*
D10*
X109364318Y-96674848D02*
X109366087Y-96675251D01*
X106007882Y-92779792D02*
X106009308Y-92783943D01*
D11*
X104939928Y-98425984D02*
X104945937Y-98435466D01*
D10*
X106945633Y-91846993D02*
X106194005Y-91331161D01*
X106002129Y-92768590D02*
X106004290Y-92772081D01*
X105682764Y-94815820D02*
X105686635Y-94818027D01*
X105700165Y-93498415D02*
X105696150Y-93500021D01*
D11*
X105235748Y-98438203D02*
X105241815Y-98428992D01*
X105252220Y-98003602D02*
X105247296Y-97993414D01*
D10*
X108711924Y-95105866D02*
X108711336Y-95107803D01*
X107289931Y-96670550D02*
X107291453Y-96669543D01*
X105495240Y-92029873D02*
X106002129Y-92768590D01*
X104787374Y-93685586D02*
X104786298Y-93687325D01*
X107808757Y-93316479D02*
X107850221Y-93292638D01*
X107833014Y-90641128D02*
X107832064Y-90642918D01*
X107254296Y-96671776D02*
X107256111Y-96672646D01*
X109643144Y-91855997D02*
X109638979Y-91854888D01*
X109760428Y-96511650D02*
X110450409Y-96985201D01*
X111151293Y-96289874D02*
X111150276Y-96288130D01*
X108717046Y-95094904D02*
X108716009Y-95096634D01*
X109635006Y-91853511D02*
X109631260Y-91851861D01*
X107856875Y-90619600D02*
X107855026Y-90620454D01*
D11*
X104959835Y-97959735D02*
X104952578Y-97968209D01*
D10*
X110473221Y-96992772D02*
X110477316Y-96992879D01*
X104784363Y-93690921D02*
X104783511Y-93692770D01*
X111861450Y-94621627D02*
X111862145Y-94619714D01*
X110953851Y-94820552D02*
X110957619Y-94818079D01*
D11*
X105058661Y-98499674D02*
X105073906Y-98501019D01*
X105136348Y-97914864D02*
X105121885Y-97912782D01*
D10*
X107429159Y-94591196D02*
X107416242Y-94563211D01*
X109367878Y-96675564D02*
X109369690Y-96675785D01*
X110908147Y-93465540D02*
X110906275Y-93461755D01*
X111860823Y-93692790D02*
X111859971Y-93690938D01*
X106188711Y-96988173D02*
X106190505Y-96987250D01*
X108785691Y-90618825D02*
X108783781Y-90618131D01*
X108771904Y-90615831D02*
X108769882Y-90615781D01*
X107270925Y-96675918D02*
X107272767Y-96675885D01*
D11*
X105121885Y-98499776D02*
X105136348Y-98497693D01*
D10*
X108711336Y-95107803D02*
X108710826Y-95109761D01*
X108875706Y-93342232D02*
X108914523Y-93369837D01*
X107934899Y-95121770D02*
X107934801Y-95117743D01*
X104789734Y-93682238D02*
X104788520Y-93683889D01*
X109360861Y-96673773D02*
X109362575Y-96674355D01*
X105490496Y-96295320D02*
X105489822Y-96297228D01*
X109656440Y-91857730D02*
X109651910Y-91857415D01*
X110510576Y-91336718D02*
X110509109Y-91335321D01*
X106011409Y-92792665D02*
X106012080Y-92797169D01*
X111149841Y-96338650D02*
X111150856Y-96336895D01*
X108775923Y-90616228D02*
X108773918Y-90615981D01*
X107934801Y-95117743D02*
X107934362Y-95113730D01*
X109351371Y-96668496D02*
X109352843Y-96669583D01*
X111147579Y-96342008D02*
X111148748Y-96340356D01*
X111840883Y-94646411D02*
X111842589Y-94645304D01*
X106006209Y-92775827D02*
X106007882Y-92779792D01*
D11*
X105106483Y-98501046D02*
X105121885Y-98499776D01*
D10*
X110510469Y-96979644D02*
X111143617Y-96346603D01*
X109388192Y-96672694D02*
X109390012Y-96671828D01*
X110495362Y-91326895D02*
X110493451Y-91326190D01*
X106150942Y-96990051D02*
X106154854Y-96991219D01*
X110507487Y-96982343D02*
X110509011Y-96981031D01*
X111863712Y-94613840D02*
X111864054Y-94611846D01*
X104780917Y-93700449D02*
X104780486Y-93702423D01*
X107337142Y-94062025D02*
X107343439Y-94012473D01*
X107259784Y-96674071D02*
X107261636Y-96674629D01*
X110634926Y-92828175D02*
X110633749Y-92824040D01*
X110925238Y-93486252D02*
X110921824Y-93483151D01*
D11*
X104934520Y-97996713D02*
X104929640Y-98007134D01*
D10*
X107350659Y-94355278D02*
X107345035Y-94324050D01*
X109341715Y-96657016D02*
X109342687Y-96658711D01*
X107373280Y-94446807D02*
X107364798Y-94416673D01*
X104792352Y-93679083D02*
X104791012Y-93680635D01*
X110956240Y-93502226D02*
X110952252Y-93501299D01*
X107794757Y-95002403D02*
X107788965Y-94997281D01*
X107916600Y-95083058D02*
X107914964Y-95081881D01*
X107936771Y-93250945D02*
X107981733Y-93233217D01*
X111154124Y-91986897D02*
X111152642Y-91983104D01*
X107005471Y-91854888D02*
X107001299Y-91855997D01*
X109727673Y-96501860D02*
X109732157Y-96502144D01*
X110640158Y-92772081D02*
X110642338Y-92768590D01*
X105734047Y-93469267D02*
X105731564Y-93472915D01*
X109687651Y-91852798D02*
X109683491Y-91854250D01*
X106150995Y-91326190D02*
X106147206Y-91327679D01*
X107659813Y-91558093D02*
X107658526Y-91562101D01*
X105487526Y-96309202D02*
X105487417Y-96313300D01*
X111153799Y-92020940D02*
X111154472Y-92019034D01*
X108711324Y-95133657D02*
X108711953Y-95135571D01*
X108951925Y-93399230D02*
X108987850Y-93430350D01*
X110452208Y-91330058D02*
X110450515Y-91331161D01*
D11*
X105241815Y-97983687D02*
X105235748Y-97974448D01*
D10*
X107285109Y-96673071D02*
X107286756Y-96672315D01*
X106907724Y-96502669D02*
X106912168Y-96502114D01*
X105985133Y-95524196D02*
X105986232Y-95528370D01*
X110663059Y-95576861D02*
X110661366Y-95572899D01*
X107981733Y-93233217D02*
X108027737Y-93217651D01*
X104791085Y-94635628D02*
X104793828Y-94638683D01*
X107644715Y-91584970D02*
X107641606Y-91588341D01*
D11*
X105247296Y-98419298D02*
X105252220Y-98409149D01*
D10*
X108953804Y-94925315D02*
X108905697Y-94962778D01*
X105496742Y-96341955D02*
X105497983Y-96343549D01*
X108662568Y-93233217D02*
X108707528Y-93250945D01*
D11*
X104952555Y-98444448D02*
X104959811Y-98452899D01*
D10*
X106010485Y-92788245D02*
X106011409Y-92792665D01*
X110656687Y-95537196D02*
X110657251Y-95532750D01*
X109740960Y-96503520D02*
X109745212Y-96504612D01*
D11*
X104967736Y-98460786D02*
X104976356Y-98468077D01*
D10*
X111152201Y-92024645D02*
X111153042Y-92022812D01*
X107332030Y-94163261D02*
X107333318Y-94112309D01*
X108837249Y-95012644D02*
X108830947Y-95017588D01*
X111153071Y-96293499D02*
X111152225Y-96291665D01*
X109192726Y-93691305D02*
X109214590Y-93733997D01*
X104793828Y-94638683D02*
X104796799Y-94641506D01*
X106887348Y-96509447D02*
X106891065Y-96507560D01*
D11*
X104915047Y-98052561D02*
X104912484Y-98064692D01*
D10*
X108835535Y-93316479D02*
X108875706Y-93342232D01*
X105489822Y-96297228D02*
X105488725Y-96301135D01*
X109384512Y-96674111D02*
X109386358Y-96673454D01*
X106188764Y-91328110D02*
X106186927Y-91327263D01*
D11*
X105149899Y-97917733D02*
X105136348Y-97914864D01*
D10*
X108805578Y-90632826D02*
X108804200Y-90631313D01*
X107870505Y-90615981D02*
X107868505Y-90616228D01*
X107933590Y-95109761D02*
X107932496Y-95105866D01*
X106194005Y-91331161D02*
X106192307Y-91330059D01*
X111151277Y-92026436D02*
X111152201Y-92024645D01*
D11*
X105235748Y-97974448D02*
X105229065Y-97965725D01*
D10*
X107281712Y-96674323D02*
X107283427Y-96673741D01*
X107292926Y-96668455D02*
X107294348Y-96667286D01*
D11*
X104995805Y-98480739D02*
X105006691Y-98486045D01*
D10*
X108726212Y-95084311D02*
X108724707Y-95085636D01*
X104779751Y-93708432D02*
X104779701Y-93710453D01*
X108807240Y-95034164D02*
X108731093Y-95080783D01*
X111830058Y-93664940D02*
X111828110Y-93664418D01*
X107929377Y-95098408D02*
X107927371Y-95094904D01*
X109352843Y-96669583D02*
X109354363Y-96670588D01*
X105694066Y-94823214D02*
X105697574Y-94826148D01*
X107837120Y-95034164D02*
X107831624Y-95030673D01*
X110457574Y-91327263D02*
X110455741Y-91328110D01*
X109736597Y-96502698D02*
X109740960Y-96503520D01*
X105725811Y-93479879D02*
X105722593Y-93483151D01*
X109240089Y-94534762D02*
X109215113Y-94591196D01*
X107829713Y-90648502D02*
X107829107Y-90650427D01*
X111155292Y-91990812D02*
X111154124Y-91986897D01*
X104780146Y-93704414D02*
X104779900Y-93706418D01*
X111864562Y-93708480D02*
X111864417Y-93706461D01*
X110477388Y-91323405D02*
X110473300Y-91323515D01*
X108709785Y-95115733D02*
X108709604Y-95117743D01*
X107658526Y-91562101D02*
X107656913Y-91566096D01*
X108122621Y-93193253D02*
X108171377Y-93184546D01*
D11*
X105044359Y-97915089D02*
X105030948Y-97918119D01*
D10*
X110473300Y-91323515D02*
X110469244Y-91323953D01*
X108521684Y-93193253D02*
X108569583Y-93204309D01*
X110500878Y-91329479D02*
X110499080Y-91328540D01*
X110463286Y-91325231D02*
X110461350Y-91325824D01*
X106143517Y-96986783D02*
X106145314Y-96987716D01*
X111839134Y-94647441D02*
X111840883Y-94646411D01*
X110667156Y-95584073D02*
X110664990Y-95580598D01*
D11*
X105266942Y-98048421D02*
X105260517Y-98025252D01*
D10*
X107835148Y-90637670D02*
X107834044Y-90639378D01*
X109022234Y-93463134D02*
X109055017Y-93497520D01*
X108720576Y-95090010D02*
X108719331Y-95091588D01*
X107501139Y-93609669D02*
X107528745Y-93570850D01*
X106171113Y-96992720D02*
X106175177Y-96992288D01*
X110948244Y-93500021D02*
X110944241Y-93498415D01*
X106143570Y-91329479D02*
X106141820Y-91330494D01*
X109024392Y-91603550D02*
X109022489Y-91602689D01*
X107847999Y-90624618D02*
X107844747Y-90627112D01*
X108731093Y-95080783D02*
X108729406Y-95081881D01*
X110461350Y-91325824D02*
X110459444Y-91326502D01*
X107660749Y-91554099D02*
X107659813Y-91558093D01*
X110632980Y-92792665D02*
X110633912Y-92788245D01*
X111851808Y-94637236D02*
X111853151Y-94635681D01*
X106147206Y-91327679D02*
X106143570Y-91329479D01*
X108723265Y-95087030D02*
X108721888Y-95088489D01*
D11*
X104929640Y-98007134D02*
X104925283Y-98017962D01*
D10*
X110657019Y-95555477D02*
X110656553Y-95550901D01*
X110915596Y-93476459D02*
X110912834Y-93472915D01*
X107931682Y-95137457D02*
X107932412Y-95135571D01*
X104786298Y-93687325D02*
X104785293Y-93689105D01*
X104781496Y-94617724D02*
X104782104Y-94619662D01*
X105711891Y-93491854D02*
X105708061Y-93494309D01*
X110497178Y-96988624D02*
X110500811Y-96986835D01*
X111847625Y-93674770D02*
X111844449Y-93672203D01*
X109026304Y-91604323D02*
X109024392Y-91603550D01*
X110497240Y-91327679D02*
X110495362Y-91326895D01*
X106136829Y-96982290D02*
X106138419Y-96983527D01*
X106974225Y-91857126D02*
X106969698Y-91856417D01*
X108783781Y-90618131D02*
X108781846Y-90617523D01*
X109310936Y-94112309D02*
X109312224Y-94163261D01*
X107829107Y-90650427D02*
X107828594Y-90652380D01*
D11*
X104906925Y-98310916D02*
X104910286Y-98336094D01*
D10*
X106012544Y-92810841D02*
X106012176Y-92815338D01*
X108710397Y-95111738D02*
X108710050Y-95113730D01*
D11*
X105205028Y-97942916D02*
X105195588Y-97936524D01*
D10*
X110912834Y-93472915D02*
X110910343Y-93469267D01*
X110659912Y-95568745D02*
X110658701Y-95564433D01*
D11*
X105213735Y-98462662D02*
X105221738Y-98455066D01*
D10*
X107850221Y-93292638D02*
X107892912Y-93270773D01*
X107830410Y-90646607D02*
X107829713Y-90648502D01*
X104818330Y-94652211D02*
X105666849Y-94810115D01*
X110928816Y-93489161D02*
X110925238Y-93486252D01*
X110504257Y-96984741D02*
X110505901Y-96983579D01*
X107844747Y-90627112D02*
X107841701Y-90629855D01*
X109279464Y-94416673D02*
X109261583Y-94476544D01*
X104814400Y-94651290D02*
X104816352Y-94651799D01*
X106916655Y-96501828D02*
X106921151Y-96501811D01*
X108710000Y-95127778D02*
X108710349Y-95129756D01*
X108472929Y-93184546D02*
X108521684Y-93193253D01*
X104786365Y-94628920D02*
X104788590Y-94632366D01*
D11*
X105278639Y-98151956D02*
X105277343Y-98124877D01*
D10*
X106952832Y-91851103D02*
X106949101Y-91849167D01*
X108806892Y-90634392D02*
X108805578Y-90632826D01*
X109340006Y-96653414D02*
X109340821Y-96655250D01*
D11*
X105162570Y-97921360D02*
X105149899Y-97917733D01*
X105018408Y-97921942D02*
X105006711Y-97926526D01*
D10*
X109375211Y-96675887D02*
X109377070Y-96675729D01*
X108714152Y-95100222D02*
X108713333Y-95102072D01*
X107892912Y-93270773D02*
X107936771Y-93250945D01*
X110452103Y-96986294D02*
X110453847Y-96987302D01*
X105497983Y-96343549D02*
X105499299Y-96345082D01*
X104803351Y-94646358D02*
X104805101Y-94647388D01*
X104798289Y-93673452D02*
X104796723Y-93674768D01*
X105493476Y-96336842D02*
X105494488Y-96338598D01*
X111156381Y-96305189D02*
X111156038Y-96303179D01*
X110659177Y-95524249D02*
X110660543Y-95520262D01*
X111864451Y-94607825D02*
X111864501Y-94605803D01*
X105708061Y-93494309D02*
X105704144Y-93496504D01*
X110656384Y-95541726D02*
X110656687Y-95537196D01*
X104780200Y-94611793D02*
X104780541Y-94613787D01*
X110450515Y-91331161D02*
X109698834Y-91846993D01*
X106171166Y-91323515D02*
X106167071Y-91323406D01*
X110927739Y-94852848D02*
X110928486Y-94850925D01*
X108808140Y-90636007D02*
X108806892Y-90634392D01*
X107934384Y-95127778D02*
X107934646Y-95125785D01*
X105495577Y-96340303D02*
X105496742Y-96341955D01*
X109694283Y-96509375D02*
X109697900Y-96507478D01*
X110936358Y-93494309D02*
X110932531Y-93491854D01*
X108824685Y-95022299D02*
X108818573Y-95026689D01*
X110469244Y-91323953D02*
X110467237Y-91324296D01*
X109312224Y-94163261D02*
X109310111Y-94228442D01*
X105706955Y-94836034D02*
X105709615Y-94839612D01*
D11*
X104976379Y-97944523D02*
X104967759Y-97951829D01*
D10*
X109344848Y-96661884D02*
X109346031Y-96663360D01*
X107738566Y-94962778D02*
X107690465Y-94925315D01*
X107828177Y-90654357D02*
X107660749Y-91554099D01*
X111829847Y-94651342D02*
X111831768Y-94650739D01*
X107332561Y-94195985D02*
X107332030Y-94163261D01*
X107933047Y-95133657D02*
X107933586Y-95131717D01*
X109234418Y-93777856D02*
X109252146Y-93822819D01*
X108813273Y-90644745D02*
X108812403Y-90642918D01*
X105715829Y-94850873D02*
X105716573Y-94852795D01*
X106183141Y-91325825D02*
X106179232Y-91324722D01*
X110502631Y-91330494D02*
X110500878Y-91329479D01*
X111833869Y-93666258D02*
X111831978Y-93665554D01*
X108815874Y-90652380D02*
X108815361Y-90650427D01*
X110940270Y-93496504D02*
X110936358Y-93494309D01*
D11*
X105136348Y-98497693D02*
X105149899Y-98494825D01*
D10*
X105488043Y-92011132D02*
X105488384Y-92013141D01*
X107295715Y-96666039D02*
X107297024Y-96664714D01*
X108987850Y-93430350D02*
X109022234Y-93463134D01*
X107261636Y-96674629D02*
X107263495Y-96675085D01*
X108709576Y-95123781D02*
X108709743Y-95125785D01*
X106192307Y-91330059D02*
X106190559Y-91329041D01*
X109366087Y-96675251D02*
X109367878Y-96675564D01*
X111154144Y-96329453D02*
X111155319Y-96325533D01*
X108709498Y-95121770D02*
X108709576Y-95123781D01*
X111150856Y-96336895D02*
X111151795Y-96335094D01*
X105500690Y-96346550D02*
X106133838Y-96979592D01*
D11*
X105241815Y-98428992D02*
X105247296Y-98419298D01*
D10*
X109292109Y-93963714D02*
X109300816Y-94012473D01*
X104782104Y-94619662D02*
X104782797Y-94621575D01*
X109281054Y-93915810D02*
X109292109Y-93963714D01*
X106141766Y-96985774D02*
X106143517Y-96986783D01*
X111145014Y-91971227D02*
X111143618Y-91969760D01*
X109349951Y-96667330D02*
X109351371Y-96668496D01*
X105717225Y-94854723D02*
X105982126Y-95516446D01*
X107475383Y-93649841D02*
X107501139Y-93609669D01*
X105697574Y-94826148D02*
X105700908Y-94829279D01*
X105700908Y-94829279D02*
X105704044Y-94832581D01*
X108074720Y-93204309D02*
X108122621Y-93193253D01*
X107364798Y-94416673D02*
X107357252Y-94386158D01*
X109651910Y-91857415D02*
X109647466Y-91856838D01*
X105977099Y-95584021D02*
X105495134Y-96286384D01*
X111153833Y-96295372D02*
X111153071Y-96293499D01*
X104779804Y-94607772D02*
X104779954Y-94609788D01*
X106185052Y-91326502D02*
X106183141Y-91325825D01*
X105488259Y-91994818D02*
X105487719Y-91998884D01*
X106136882Y-91334001D02*
X106135354Y-91335322D01*
X108616565Y-93217651D02*
X108662568Y-93233217D01*
X110505901Y-96983579D02*
X110507487Y-96982343D01*
X104806890Y-94648339D02*
X104808718Y-94649208D01*
D11*
X105006711Y-97926526D02*
X104995826Y-97931839D01*
X104906933Y-98102425D02*
X104904722Y-98128375D01*
D10*
X107866518Y-90616568D02*
X107864546Y-90617001D01*
X105985613Y-95564381D02*
X105984396Y-95568692D01*
X108710050Y-95113730D02*
X108709785Y-95115733D01*
X108709743Y-95125785D02*
X108710000Y-95127778D01*
X110461253Y-96990489D02*
X110465159Y-96991581D01*
X109753245Y-96507597D02*
X109756960Y-96509491D01*
X105987063Y-95532697D02*
X105987630Y-95537143D01*
X110493451Y-91326190D02*
X110489540Y-91325016D01*
X111837345Y-94648392D02*
X111839134Y-94647441D01*
X107561267Y-94796481D02*
X107523675Y-94748489D01*
X108271206Y-93174426D02*
X108322154Y-93173138D01*
X104782737Y-93694651D02*
X104782045Y-93696560D01*
D11*
X105006691Y-98486045D02*
X105018390Y-98490624D01*
D10*
X111154472Y-92019034D02*
X111155569Y-92015130D01*
X111856797Y-94630717D02*
X111857877Y-94628973D01*
X108811452Y-90641128D02*
X108810423Y-90639378D01*
X110636536Y-92779792D02*
X110638223Y-92775827D01*
D11*
X104902829Y-98181023D02*
X104902679Y-98207205D01*
D10*
X108727779Y-95083058D02*
X108726212Y-95084311D01*
D11*
X104945959Y-97977218D02*
X104939950Y-97986730D01*
D10*
X111152656Y-96333250D02*
X111153439Y-96331369D01*
D11*
X105247296Y-97993414D02*
X105241815Y-97983687D01*
D10*
X105487608Y-92007072D02*
X105488043Y-92011132D01*
X108719331Y-95091588D02*
X108718154Y-95093221D01*
X110453952Y-91329041D02*
X110452208Y-91330058D01*
X109020597Y-91601743D02*
X109016860Y-91599610D01*
X108987612Y-91566096D02*
X108985996Y-91562101D01*
X109016860Y-91599610D02*
X109013202Y-91597178D01*
D12*
G36*
X111113590Y-97720223D02*
G01*
X111127551Y-97721191D01*
X111141223Y-97722786D01*
X111154618Y-97724989D01*
X111167747Y-97727786D01*
X111180622Y-97731159D01*
X111193255Y-97735092D01*
X111205657Y-97739568D01*
X111217840Y-97744571D01*
X111229816Y-97750086D01*
X111241596Y-97756094D01*
X111253193Y-97762580D01*
X111264618Y-97769528D01*
X111275882Y-97776920D01*
X111286997Y-97784741D01*
X111297976Y-97792974D01*
X111159281Y-97957916D01*
X111150995Y-97951835D01*
X111142973Y-97946226D01*
X111135171Y-97941077D01*
X111127546Y-97936378D01*
X111120053Y-97932118D01*
X111112648Y-97928285D01*
X111105286Y-97924870D01*
X111097924Y-97921860D01*
X111090518Y-97919245D01*
X111083022Y-97917014D01*
X111075394Y-97915157D01*
X111067588Y-97913662D01*
X111059561Y-97912518D01*
X111051269Y-97911714D01*
X111042666Y-97911240D01*
X111033710Y-97911084D01*
X111016174Y-97911792D01*
X110998816Y-97913931D01*
X110981769Y-97917532D01*
X110965163Y-97922619D01*
X110957067Y-97925730D01*
X110949130Y-97929223D01*
X110941370Y-97933101D01*
X110933802Y-97937368D01*
X110926443Y-97942029D01*
X110919309Y-97947085D01*
X110912417Y-97952540D01*
X110905784Y-97958399D01*
X110899425Y-97964663D01*
X110893358Y-97971338D01*
X110887598Y-97978426D01*
X110882162Y-97985930D01*
X110877066Y-97993855D01*
X110872328Y-98002203D01*
X110867962Y-98010978D01*
X110863987Y-98020183D01*
X110860417Y-98029822D01*
X110857270Y-98039899D01*
X110854563Y-98050416D01*
X110852310Y-98061378D01*
X110850530Y-98072787D01*
X110849238Y-98084647D01*
X110848450Y-98096961D01*
X110848184Y-98109734D01*
X110848184Y-98681286D01*
X110656996Y-98681286D01*
X110656996Y-97731167D01*
X110848184Y-97731167D01*
X110848184Y-97832344D01*
X110851889Y-97832344D01*
X110863437Y-97818734D01*
X110875585Y-97806000D01*
X110888317Y-97794143D01*
X110901617Y-97783163D01*
X110915466Y-97773061D01*
X110929850Y-97763837D01*
X110944750Y-97755490D01*
X110960150Y-97748022D01*
X110976033Y-97741431D01*
X110992382Y-97735719D01*
X111009181Y-97730885D01*
X111026412Y-97726929D01*
X111044059Y-97723853D01*
X111062105Y-97721655D01*
X111080534Y-97720336D01*
X111099327Y-97719896D01*
X111113590Y-97720223D01*
G37*
D10*
X107851433Y-90622392D02*
X107847999Y-90624618D01*
X104788590Y-94632366D02*
X104791085Y-94635628D01*
X107589261Y-93497520D02*
X107622046Y-93463134D01*
X109701743Y-96505856D02*
X109705780Y-96504509D01*
X105690121Y-93501808D02*
X105688121Y-93502226D01*
D11*
X105275118Y-98314844D02*
X105277343Y-98288635D01*
D10*
X110638223Y-92775827D02*
X110640158Y-92772081D01*
X109083011Y-94796481D02*
X109042592Y-94842036D01*
D11*
X105044346Y-98497471D02*
X105058661Y-98499674D01*
D10*
X111850406Y-94638736D02*
X111851808Y-94637236D01*
X107656913Y-91566096D02*
X107654994Y-91570053D01*
X110455638Y-96988225D02*
X110457472Y-96989064D01*
X106938547Y-96504461D02*
X106942580Y-96505806D01*
X108812403Y-90642918D02*
X108811452Y-90641128D01*
D11*
X105174388Y-97925719D02*
X105162570Y-97921360D01*
D10*
X107831624Y-95030673D02*
X107825763Y-95026689D01*
X108801265Y-90628453D02*
X108799714Y-90627112D01*
X104810580Y-94649991D02*
X104812475Y-94650686D01*
X105715607Y-93489161D02*
X105711891Y-93491854D01*
X109373359Y-96675948D02*
X109375211Y-96675887D01*
X105986232Y-95528370D02*
X105987063Y-95532697D01*
X106996971Y-91856838D02*
X106992523Y-91857415D01*
X108818573Y-95026689D02*
X108812721Y-95030673D01*
X107919686Y-95085636D02*
X107918174Y-95084311D01*
X110656340Y-95546306D02*
X110656384Y-95541726D01*
X110660543Y-95520262D02*
X110662182Y-95516499D01*
X109009648Y-91594471D02*
X109006218Y-91591517D01*
X106950025Y-96509322D02*
X107254296Y-96671776D01*
X109691618Y-91851102D02*
X109687651Y-91852798D01*
X107352147Y-93963714D02*
X107363204Y-93915810D01*
X111864301Y-94609840D02*
X111864451Y-94607825D01*
X110657251Y-95532750D02*
X110658081Y-95528423D01*
X110969403Y-94812349D02*
X110971404Y-94811670D01*
X109343732Y-96660334D02*
X109344848Y-96661884D01*
D11*
X105269526Y-98352527D02*
X105271730Y-98340220D01*
D10*
X106010641Y-92824040D02*
X106009470Y-92828175D01*
X105704144Y-93496504D02*
X105700165Y-93498415D01*
X106883879Y-96511597D02*
X106887348Y-96509447D01*
X107256111Y-96672646D02*
X107257941Y-96673411D01*
X108802762Y-90629855D02*
X108801265Y-90628453D01*
X109300816Y-94012473D02*
X109307113Y-94062025D01*
X106177188Y-96991949D02*
X106179179Y-96991528D01*
X110661366Y-95572899D02*
X110659912Y-95568745D01*
X109186785Y-94645716D02*
X109155238Y-94698190D01*
X107265356Y-96675441D02*
X107267217Y-96675698D01*
X108794074Y-93292638D02*
X108835535Y-93316479D01*
X108793021Y-90622392D02*
X108791241Y-90621386D01*
X107788965Y-94997281D02*
X107738566Y-94962778D01*
X107874532Y-90615781D02*
X107872515Y-90615831D01*
X111858884Y-94627188D02*
X111859818Y-94625368D01*
X108710826Y-95109761D02*
X108710397Y-95111738D01*
X105739609Y-93457935D02*
X105738898Y-93459848D01*
D11*
X104921400Y-98383725D02*
X104925264Y-98394875D01*
D10*
X106942580Y-96505806D02*
X106946417Y-96507426D01*
X107644794Y-94885025D02*
X107601684Y-94842037D01*
X109261583Y-94476544D02*
X109240089Y-94534762D01*
X105487960Y-96305137D02*
X105487526Y-96309202D01*
X111152225Y-96291665D02*
X111151293Y-96289874D01*
X107838886Y-90632826D02*
X107836326Y-90636007D01*
X110485476Y-96992126D02*
X110489480Y-96991272D01*
X111153042Y-92022812D02*
X111153799Y-92020940D01*
X107807072Y-95012644D02*
X107800828Y-95007553D01*
D11*
X105278639Y-98261812D02*
X105279244Y-98234595D01*
D10*
X104818277Y-93663992D02*
X104816295Y-93664418D01*
X107404179Y-94534762D02*
X107392987Y-94505868D01*
X107768585Y-93342232D02*
X107808757Y-93316479D01*
X106141820Y-91330494D02*
X106140119Y-91331587D01*
X111831978Y-93665554D02*
X111830058Y-93664940D01*
X111156886Y-92002978D02*
X111156675Y-91998884D01*
X110465159Y-96991581D02*
X110469159Y-96992341D01*
D11*
X105271730Y-98072893D02*
X105266942Y-98048421D01*
D10*
X107257941Y-96673411D02*
X107259784Y-96674071D01*
X111858039Y-93687338D02*
X111855819Y-93683898D01*
X110928486Y-94850925D02*
X110930241Y-94847108D01*
X107855026Y-90620454D02*
X107851433Y-90622392D01*
X104783511Y-93692770D02*
X104782737Y-93694651D01*
X108027737Y-93217651D02*
X108074720Y-93204309D01*
X110971404Y-94811670D02*
X110973407Y-94811078D01*
X105666849Y-94810115D02*
X105668842Y-94810524D01*
X108812721Y-95030673D02*
X108807240Y-95034164D01*
D11*
X105149899Y-98494825D02*
X105162570Y-98491199D01*
X104985703Y-98474739D02*
X104995805Y-98480739D01*
X105277343Y-98288635D02*
X105278639Y-98261812D01*
D10*
X105496847Y-91974353D02*
X105495681Y-91976004D01*
D11*
X105185384Y-98481784D02*
X105195588Y-98476049D01*
D10*
X111143617Y-96346603D02*
X111145014Y-96345135D01*
X110944241Y-93498415D02*
X110940270Y-93496504D01*
X108798111Y-90625832D02*
X108796459Y-90624618D01*
X109378932Y-96675474D02*
X109380795Y-96675120D01*
X108710789Y-95131717D02*
X108711324Y-95133657D01*
X106167071Y-91323406D02*
X106162976Y-91323621D01*
X108712678Y-95137457D02*
X109340006Y-96653414D01*
X107343439Y-94012473D02*
X107352147Y-93963714D01*
X106946417Y-96507426D02*
X106950025Y-96509322D01*
X110507577Y-91334001D02*
X110505984Y-91332756D01*
X105982126Y-95516446D02*
X105983766Y-95520210D01*
D11*
X104910286Y-98336094D02*
X104915033Y-98360450D01*
D10*
X106891065Y-96507560D02*
X106894994Y-96505938D01*
X108716009Y-95096634D02*
X108715044Y-95098408D01*
X106183088Y-96990437D02*
X106184998Y-96989766D01*
X104791012Y-93680635D02*
X104789734Y-93682238D01*
D11*
X104967759Y-97951829D02*
X104959835Y-97959735D01*
D10*
X110950206Y-94823267D02*
X110953851Y-94820552D01*
X111835520Y-94649260D02*
X111837345Y-94648392D01*
D11*
X105221738Y-97957544D02*
X105213735Y-97949932D01*
D10*
X111828110Y-93664418D02*
X111826137Y-93663992D01*
X107836326Y-90636007D02*
X107835148Y-90637670D01*
X108789424Y-90620454D02*
X108787573Y-90619600D01*
X106012080Y-92797169D02*
X106012494Y-92801722D01*
X111149173Y-96286436D02*
X110667156Y-95584073D01*
X105986582Y-95559947D02*
X105985613Y-95564381D01*
X111150848Y-91979462D02*
X111149835Y-91977708D01*
X107333318Y-94112309D02*
X107337142Y-94062025D01*
X108711953Y-95135571D02*
X108712678Y-95137457D01*
X105674841Y-94812296D02*
X105678824Y-94813902D01*
X108809318Y-90637670D02*
X108808140Y-90636007D01*
X107304302Y-96653361D02*
X107931682Y-95137457D01*
X110505984Y-91332756D02*
X110504334Y-91331587D01*
X105490997Y-91984983D02*
X105490293Y-91986897D01*
X111844449Y-93672203D02*
X111841085Y-93669913D01*
X107409845Y-93777856D02*
X107429674Y-93733997D01*
X111155569Y-92015130D02*
X111156336Y-92011132D01*
D12*
G36*
X109147289Y-97720081D02*
G01*
X109160652Y-97720627D01*
X109173672Y-97721520D01*
X109186354Y-97722750D01*
X109198701Y-97724302D01*
X109210719Y-97726164D01*
X109222413Y-97728323D01*
X109233785Y-97730767D01*
X109244842Y-97733483D01*
X109255587Y-97736458D01*
X109266025Y-97739680D01*
X109276161Y-97743136D01*
X109285998Y-97746812D01*
X109295542Y-97750697D01*
X109304796Y-97754778D01*
X109313766Y-97759041D01*
X109330871Y-97768066D01*
X109346890Y-97777670D01*
X109361861Y-97787752D01*
X109375819Y-97798209D01*
X109388800Y-97808941D01*
X109400839Y-97819845D01*
X109411974Y-97830819D01*
X109422239Y-97841763D01*
X109435439Y-97856883D01*
X109447647Y-97872145D01*
X109458884Y-97887736D01*
X109469167Y-97903843D01*
X109478517Y-97920652D01*
X109486952Y-97938351D01*
X109494493Y-97957126D01*
X109501157Y-97977163D01*
X109506966Y-97998651D01*
X109511937Y-98021776D01*
X109516091Y-98046724D01*
X109519446Y-98073682D01*
X109522022Y-98102837D01*
X109523838Y-98134376D01*
X109524913Y-98168486D01*
X109525268Y-98205354D01*
X109524913Y-98242530D01*
X109523838Y-98276912D01*
X109522022Y-98308690D01*
X109519446Y-98338052D01*
X109516091Y-98365187D01*
X109511937Y-98390285D01*
X109506966Y-98413535D01*
X109501157Y-98435125D01*
X109494493Y-98455245D01*
X109486952Y-98474084D01*
X109478517Y-98491830D01*
X109469167Y-98508673D01*
X109458884Y-98524803D01*
X109447647Y-98540407D01*
X109435439Y-98555675D01*
X109422239Y-98570797D01*
X109411974Y-98581739D01*
X109400839Y-98592710D01*
X109388800Y-98603609D01*
X109375819Y-98614333D01*
X109361861Y-98624783D01*
X109346890Y-98634855D01*
X109330871Y-98644450D01*
X109313766Y-98653465D01*
X109295542Y-98661799D01*
X109276160Y-98669351D01*
X109255587Y-98676019D01*
X109233785Y-98681703D01*
X109210719Y-98686299D01*
X109186354Y-98689708D01*
X109160652Y-98691828D01*
X109133578Y-98692557D01*
X109119877Y-98692373D01*
X109106523Y-98691828D01*
X109093512Y-98690936D01*
X109080838Y-98689708D01*
X109068498Y-98688159D01*
X109056486Y-98686299D01*
X109044799Y-98684143D01*
X109033433Y-98681703D01*
X109022381Y-98678991D01*
X109011641Y-98676020D01*
X109001208Y-98672802D01*
X108991076Y-98669351D01*
X108981243Y-98665679D01*
X108971702Y-98661799D01*
X108962450Y-98657724D01*
X108953483Y-98653465D01*
X108936383Y-98644450D01*
X108920367Y-98634856D01*
X108905398Y-98624783D01*
X108891442Y-98614334D01*
X108878462Y-98603609D01*
X108866423Y-98592710D01*
X108855289Y-98581739D01*
X108845024Y-98570797D01*
X108831823Y-98555676D01*
X108819611Y-98540409D01*
X108808369Y-98524807D01*
X108798079Y-98508681D01*
X108788722Y-98491840D01*
X108780277Y-98474097D01*
X108772727Y-98455262D01*
X108766052Y-98435144D01*
X108760234Y-98413556D01*
X108755253Y-98390308D01*
X108751091Y-98365210D01*
X108747728Y-98338074D01*
X108745145Y-98308709D01*
X108743324Y-98276927D01*
X108742245Y-98242539D01*
X108741889Y-98205354D01*
X108933077Y-98205354D01*
X108933212Y-98230200D01*
X108933631Y-98252840D01*
X108934352Y-98273442D01*
X108935395Y-98292174D01*
X108936779Y-98309202D01*
X108938524Y-98324695D01*
X108940648Y-98338821D01*
X108943171Y-98351748D01*
X108946111Y-98363642D01*
X108949489Y-98374673D01*
X108953323Y-98385007D01*
X108957633Y-98394812D01*
X108962438Y-98404256D01*
X108967757Y-98413508D01*
X108973609Y-98422734D01*
X108980014Y-98432102D01*
X108985632Y-98439378D01*
X108991962Y-98446402D01*
X108998967Y-98453143D01*
X109006605Y-98459573D01*
X109014840Y-98465661D01*
X109023631Y-98471377D01*
X109032939Y-98476691D01*
X109042727Y-98481573D01*
X109052954Y-98485992D01*
X109063581Y-98489920D01*
X109074571Y-98493326D01*
X109085883Y-98496180D01*
X109097479Y-98498452D01*
X109109319Y-98500112D01*
X109121365Y-98501130D01*
X109133578Y-98501476D01*
X109145808Y-98501129D01*
X109157868Y-98500110D01*
X109169717Y-98498447D01*
X109181320Y-98496173D01*
X109192635Y-98493315D01*
X109203627Y-98489906D01*
X109214255Y-98485975D01*
X109224482Y-98481553D01*
X109234270Y-98476669D01*
X109243579Y-98471353D01*
X109252372Y-98465637D01*
X109260610Y-98459551D01*
X109268255Y-98453124D01*
X109275269Y-98446386D01*
X109281613Y-98439369D01*
X109284521Y-98435765D01*
X109287248Y-98432102D01*
X109293652Y-98422734D01*
X109299500Y-98413511D01*
X109304814Y-98404269D01*
X109309612Y-98394841D01*
X109313914Y-98385063D01*
X109317739Y-98374770D01*
X109321108Y-98363797D01*
X109324039Y-98351979D01*
X109326551Y-98339151D01*
X109328666Y-98325148D01*
X109330401Y-98309804D01*
X109331778Y-98292955D01*
X109332814Y-98274436D01*
X109333530Y-98254081D01*
X109334080Y-98207206D01*
X109333945Y-98182359D01*
X109333530Y-98159715D01*
X109332814Y-98139109D01*
X109331778Y-98120372D01*
X109330401Y-98103337D01*
X109328666Y-98087837D01*
X109326551Y-98073704D01*
X109324039Y-98060772D01*
X109321108Y-98048873D01*
X109317739Y-98037840D01*
X109313914Y-98027506D01*
X109309612Y-98017703D01*
X109304814Y-98008264D01*
X109299500Y-97999021D01*
X109293652Y-97989808D01*
X109287248Y-97980458D01*
X109281613Y-97973182D01*
X109275269Y-97966158D01*
X109268255Y-97959416D01*
X109260610Y-97952986D01*
X109252372Y-97946898D01*
X109243579Y-97941183D01*
X109234270Y-97935869D01*
X109224482Y-97930987D01*
X109214255Y-97926567D01*
X109203627Y-97922639D01*
X109192635Y-97919233D01*
X109181320Y-97916379D01*
X109169717Y-97914107D01*
X109157868Y-97912448D01*
X109145808Y-97911430D01*
X109133578Y-97911084D01*
X109121365Y-97911430D01*
X109109319Y-97912450D01*
X109097479Y-97914112D01*
X109085883Y-97916387D01*
X109074571Y-97919244D01*
X109063581Y-97922653D01*
X109052954Y-97926584D01*
X109042727Y-97931007D01*
X109032939Y-97935891D01*
X109023631Y-97941206D01*
X109014840Y-97946922D01*
X109006605Y-97953009D01*
X108998967Y-97959436D01*
X108991962Y-97966173D01*
X108985632Y-97973191D01*
X108982731Y-97976795D01*
X108980014Y-97980458D01*
X108973609Y-97989808D01*
X108967757Y-97999018D01*
X108962438Y-98008252D01*
X108957633Y-98017674D01*
X108953323Y-98027450D01*
X108949489Y-98037743D01*
X108946111Y-98048718D01*
X108943171Y-98060541D01*
X108940648Y-98073375D01*
X108938524Y-98087384D01*
X108936779Y-98102735D01*
X108935395Y-98119590D01*
X108934352Y-98138115D01*
X108933631Y-98158474D01*
X108933077Y-98205354D01*
X108741889Y-98205354D01*
X108742245Y-98168487D01*
X108743324Y-98134379D01*
X108745145Y-98102842D01*
X108747728Y-98073689D01*
X108751091Y-98046734D01*
X108755253Y-98021790D01*
X108760234Y-97998668D01*
X108766052Y-97977183D01*
X108772727Y-97957147D01*
X108780277Y-97938374D01*
X108788722Y-97920675D01*
X108798079Y-97903865D01*
X108808369Y-97887755D01*
X108819611Y-97872160D01*
X108831823Y-97856891D01*
X108845024Y-97841763D01*
X108855289Y-97830819D01*
X108866423Y-97819845D01*
X108878462Y-97808941D01*
X108891442Y-97798210D01*
X108905399Y-97787752D01*
X108920367Y-97777671D01*
X108936383Y-97768066D01*
X108953483Y-97759041D01*
X108971702Y-97750697D01*
X108991076Y-97743136D01*
X109011641Y-97736459D01*
X109033433Y-97730767D01*
X109056487Y-97726164D01*
X109080838Y-97722750D01*
X109106524Y-97720627D01*
X109133578Y-97719896D01*
X109147289Y-97720081D01*
G37*
D10*
X109086136Y-93533446D02*
X109115528Y-93570850D01*
X109709976Y-96503435D02*
X109714297Y-96502633D01*
D11*
X104910296Y-98077067D02*
X104906933Y-98102425D01*
D10*
X109714297Y-96502633D02*
X109718709Y-96502104D01*
X106949101Y-91849167D02*
X106945633Y-91846993D01*
X108373101Y-93174426D02*
X108423380Y-93178249D01*
X110965421Y-94813954D02*
X110969403Y-94812349D01*
X104806818Y-93667923D02*
X104805026Y-93668879D01*
X110906275Y-93461755D02*
X110904752Y-93457935D01*
X106008027Y-92832122D02*
X106006309Y-92835847D01*
X107650331Y-91577745D02*
X107647631Y-91581429D01*
X106154854Y-96991219D02*
X106158858Y-96992073D01*
X111156336Y-92011132D02*
X111156774Y-92007072D01*
X106925622Y-96502066D02*
X106930035Y-96502591D01*
X104779954Y-94609788D02*
X104780200Y-94611793D01*
X109638979Y-91854888D02*
X109635006Y-91853511D01*
X106140066Y-96984688D02*
X106141766Y-96985774D01*
X108322154Y-93173138D02*
X108373101Y-93174426D01*
X104784427Y-94625315D02*
X104786365Y-94628920D01*
X109155238Y-94698190D02*
X109120603Y-94748489D01*
X107336761Y-94260616D02*
X107334144Y-94228442D01*
X106147153Y-96988571D02*
X106149030Y-96989350D01*
X105489118Y-91990812D02*
X105488259Y-91994818D01*
D11*
X105252220Y-98409149D02*
X105256618Y-98398571D01*
X105229065Y-98446903D02*
X105235748Y-98438203D01*
D10*
X107831195Y-90644745D02*
X107830410Y-90646607D01*
X106011542Y-92819749D02*
X106010641Y-92824040D01*
X109723179Y-96501847D02*
X109727673Y-96501860D01*
X107934646Y-95125785D02*
X107934899Y-95121770D01*
X105491254Y-96293447D02*
X105490496Y-96295320D01*
X105668842Y-94810524D02*
X105670840Y-94811026D01*
D12*
G36*
X111719663Y-97720097D02*
G01*
X111732924Y-97720697D01*
X111746009Y-97721688D01*
X111758918Y-97723061D01*
X111784207Y-97726923D01*
X111808786Y-97732221D01*
X111832653Y-97738891D01*
X111855805Y-97746872D01*
X111878238Y-97756098D01*
X111899949Y-97766508D01*
X111920935Y-97778039D01*
X111941194Y-97790628D01*
X111960721Y-97804210D01*
X111979513Y-97818725D01*
X111997568Y-97834108D01*
X112014883Y-97850296D01*
X112031453Y-97867227D01*
X112047276Y-97884837D01*
X111906729Y-98010408D01*
X111897717Y-97999718D01*
X111888233Y-97989459D01*
X111878292Y-97979667D01*
X111867906Y-97970377D01*
X111857091Y-97961626D01*
X111845860Y-97953448D01*
X111834227Y-97945880D01*
X111822208Y-97938958D01*
X111809815Y-97932716D01*
X111797062Y-97927191D01*
X111783965Y-97922418D01*
X111770536Y-97918432D01*
X111756791Y-97915271D01*
X111742743Y-97912968D01*
X111728406Y-97911561D01*
X111713795Y-97911084D01*
X111685378Y-97912123D01*
X111658496Y-97915273D01*
X111645643Y-97917654D01*
X111633189Y-97920580D01*
X111621139Y-97924058D01*
X111609499Y-97928091D01*
X111598274Y-97932688D01*
X111587468Y-97937853D01*
X111577087Y-97943592D01*
X111567136Y-97949911D01*
X111557620Y-97956816D01*
X111548544Y-97964313D01*
X111539914Y-97972408D01*
X111531735Y-97981106D01*
X111524011Y-97990413D01*
X111516749Y-98000335D01*
X111509952Y-98010879D01*
X111503627Y-98022049D01*
X111497778Y-98033851D01*
X111492411Y-98046292D01*
X111487530Y-98059378D01*
X111483141Y-98073113D01*
X111479249Y-98087504D01*
X111475860Y-98102557D01*
X111472978Y-98118278D01*
X111470608Y-98134672D01*
X111467426Y-98169504D01*
X111466357Y-98207100D01*
X111466625Y-98226087D01*
X111467427Y-98244389D01*
X111468757Y-98262010D01*
X111470610Y-98278955D01*
X111472981Y-98295231D01*
X111475864Y-98310842D01*
X111479255Y-98325794D01*
X111483149Y-98340093D01*
X111487539Y-98353744D01*
X111492421Y-98366753D01*
X111497790Y-98379124D01*
X111503641Y-98390864D01*
X111509968Y-98401978D01*
X111516766Y-98412472D01*
X111524030Y-98422350D01*
X111531755Y-98431618D01*
X111539936Y-98440283D01*
X111548567Y-98448349D01*
X111557643Y-98455821D01*
X111567159Y-98462706D01*
X111577111Y-98469009D01*
X111587491Y-98474735D01*
X111598297Y-98479889D01*
X111609522Y-98484478D01*
X111621161Y-98488507D01*
X111633209Y-98491980D01*
X111645661Y-98494904D01*
X111658511Y-98497284D01*
X111671755Y-98499126D01*
X111685387Y-98500435D01*
X111699402Y-98501216D01*
X111713795Y-98501475D01*
X111721134Y-98501355D01*
X111728406Y-98500998D01*
X111735608Y-98500408D01*
X111742741Y-98499590D01*
X111756786Y-98497288D01*
X111770529Y-98494126D01*
X111783954Y-98490141D01*
X111797048Y-98485368D01*
X111809797Y-98479843D01*
X111822188Y-98473601D01*
X111834206Y-98466679D01*
X111845837Y-98459111D01*
X111857067Y-98450933D01*
X111867884Y-98442182D01*
X111878272Y-98432892D01*
X111888218Y-98423100D01*
X111897708Y-98412841D01*
X111906729Y-98402150D01*
X112047276Y-98527721D01*
X112031462Y-98545304D01*
X112014900Y-98562212D01*
X111997592Y-98578381D01*
X111979543Y-98593749D01*
X111960754Y-98608252D01*
X111941230Y-98621827D01*
X111920974Y-98634409D01*
X111899988Y-98645937D01*
X111878276Y-98656345D01*
X111855841Y-98665572D01*
X111832687Y-98673553D01*
X111808815Y-98680225D01*
X111784231Y-98685525D01*
X111758936Y-98689389D01*
X111732933Y-98691754D01*
X111706227Y-98692556D01*
X111665258Y-98690915D01*
X111624763Y-98685924D01*
X111585042Y-98677480D01*
X111546393Y-98665482D01*
X111527565Y-98658118D01*
X111509117Y-98649827D01*
X111491086Y-98640597D01*
X111473511Y-98630414D01*
X111456429Y-98619266D01*
X111439876Y-98607140D01*
X111423891Y-98594024D01*
X111408511Y-98579903D01*
X111393774Y-98564767D01*
X111379716Y-98548602D01*
X111366375Y-98531395D01*
X111353788Y-98513133D01*
X111341994Y-98493805D01*
X111331028Y-98473396D01*
X111320930Y-98451894D01*
X111311736Y-98429287D01*
X111303483Y-98405562D01*
X111296209Y-98380705D01*
X111289952Y-98354705D01*
X111284748Y-98327548D01*
X111280636Y-98299222D01*
X111277653Y-98269714D01*
X111275835Y-98239010D01*
X111275221Y-98207100D01*
X111275835Y-98175039D01*
X111277653Y-98144195D01*
X111280636Y-98114555D01*
X111284748Y-98086105D01*
X111289952Y-98058832D01*
X111296209Y-98032723D01*
X111303483Y-98007766D01*
X111311736Y-97983947D01*
X111320930Y-97961253D01*
X111331028Y-97939671D01*
X111341994Y-97919188D01*
X111353788Y-97899792D01*
X111366375Y-97881468D01*
X111379716Y-97864205D01*
X111393774Y-97847989D01*
X111408511Y-97832807D01*
X111423891Y-97818645D01*
X111439876Y-97805492D01*
X111456429Y-97793334D01*
X111473511Y-97782158D01*
X111491086Y-97771951D01*
X111509117Y-97762699D01*
X111527565Y-97754391D01*
X111546393Y-97747012D01*
X111565565Y-97740550D01*
X111585042Y-97734992D01*
X111604787Y-97730325D01*
X111624763Y-97726536D01*
X111644933Y-97723611D01*
X111665258Y-97721538D01*
X111706227Y-97719896D01*
X111719663Y-97720097D01*
G37*
D13*
X100548095Y-88097619D02*
X100548095Y-87097619D01*
X101024285Y-88097619D02*
X101024285Y-87097619D01*
X101024285Y-87097619D02*
X101357618Y-87811904D01*
X101357618Y-87811904D02*
X101690951Y-87097619D01*
X101690951Y-87097619D02*
X101690951Y-88097619D01*
X102690951Y-88097619D02*
X102119523Y-88097619D01*
X102405237Y-88097619D02*
X102405237Y-87097619D01*
X102405237Y-87097619D02*
X102309999Y-87240476D01*
X102309999Y-87240476D02*
X102214761Y-87335714D01*
X102214761Y-87335714D02*
X102119523Y-87383333D01*
X103309999Y-87097619D02*
X103405237Y-87097619D01*
X103405237Y-87097619D02*
X103500475Y-87145238D01*
X103500475Y-87145238D02*
X103548094Y-87192857D01*
X103548094Y-87192857D02*
X103595713Y-87288095D01*
X103595713Y-87288095D02*
X103643332Y-87478571D01*
X103643332Y-87478571D02*
X103643332Y-87716666D01*
X103643332Y-87716666D02*
X103595713Y-87907142D01*
X103595713Y-87907142D02*
X103548094Y-88002380D01*
X103548094Y-88002380D02*
X103500475Y-88050000D01*
X103500475Y-88050000D02*
X103405237Y-88097619D01*
X103405237Y-88097619D02*
X103309999Y-88097619D01*
X103309999Y-88097619D02*
X103214761Y-88050000D01*
X103214761Y-88050000D02*
X103167142Y-88002380D01*
X103167142Y-88002380D02*
X103119523Y-87907142D01*
X103119523Y-87907142D02*
X103071904Y-87716666D01*
X103071904Y-87716666D02*
X103071904Y-87478571D01*
X103071904Y-87478571D02*
X103119523Y-87288095D01*
X103119523Y-87288095D02*
X103167142Y-87192857D01*
X103167142Y-87192857D02*
X103214761Y-87145238D01*
X103214761Y-87145238D02*
X103309999Y-87097619D01*
X104262380Y-87097619D02*
X104357618Y-87097619D01*
X104357618Y-87097619D02*
X104452856Y-87145238D01*
X104452856Y-87145238D02*
X104500475Y-87192857D01*
X104500475Y-87192857D02*
X104548094Y-87288095D01*
X104548094Y-87288095D02*
X104595713Y-87478571D01*
X104595713Y-87478571D02*
X104595713Y-87716666D01*
X104595713Y-87716666D02*
X104548094Y-87907142D01*
X104548094Y-87907142D02*
X104500475Y-88002380D01*
X104500475Y-88002380D02*
X104452856Y-88050000D01*
X104452856Y-88050000D02*
X104357618Y-88097619D01*
X104357618Y-88097619D02*
X104262380Y-88097619D01*
X104262380Y-88097619D02*
X104167142Y-88050000D01*
X104167142Y-88050000D02*
X104119523Y-88002380D01*
X104119523Y-88002380D02*
X104071904Y-87907142D01*
X104071904Y-87907142D02*
X104024285Y-87716666D01*
X104024285Y-87716666D02*
X104024285Y-87478571D01*
X104024285Y-87478571D02*
X104071904Y-87288095D01*
X104071904Y-87288095D02*
X104119523Y-87192857D01*
X104119523Y-87192857D02*
X104167142Y-87145238D01*
X104167142Y-87145238D02*
X104262380Y-87097619D01*
X105976666Y-87097619D02*
X106167142Y-87097619D01*
X106167142Y-87097619D02*
X106262380Y-87145238D01*
X106262380Y-87145238D02*
X106357618Y-87240476D01*
X106357618Y-87240476D02*
X106405237Y-87430952D01*
X106405237Y-87430952D02*
X106405237Y-87764285D01*
X106405237Y-87764285D02*
X106357618Y-87954761D01*
X106357618Y-87954761D02*
X106262380Y-88050000D01*
X106262380Y-88050000D02*
X106167142Y-88097619D01*
X106167142Y-88097619D02*
X105976666Y-88097619D01*
X105976666Y-88097619D02*
X105881428Y-88050000D01*
X105881428Y-88050000D02*
X105786190Y-87954761D01*
X105786190Y-87954761D02*
X105738571Y-87764285D01*
X105738571Y-87764285D02*
X105738571Y-87430952D01*
X105738571Y-87430952D02*
X105786190Y-87240476D01*
X105786190Y-87240476D02*
X105881428Y-87145238D01*
X105881428Y-87145238D02*
X105976666Y-87097619D01*
X106738571Y-87430952D02*
X106976666Y-88097619D01*
X106976666Y-88097619D02*
X107214761Y-87430952D01*
X107976666Y-88050000D02*
X107881428Y-88097619D01*
X107881428Y-88097619D02*
X107690952Y-88097619D01*
X107690952Y-88097619D02*
X107595714Y-88050000D01*
X107595714Y-88050000D02*
X107548095Y-87954761D01*
X107548095Y-87954761D02*
X107548095Y-87573809D01*
X107548095Y-87573809D02*
X107595714Y-87478571D01*
X107595714Y-87478571D02*
X107690952Y-87430952D01*
X107690952Y-87430952D02*
X107881428Y-87430952D01*
X107881428Y-87430952D02*
X107976666Y-87478571D01*
X107976666Y-87478571D02*
X108024285Y-87573809D01*
X108024285Y-87573809D02*
X108024285Y-87669047D01*
X108024285Y-87669047D02*
X107548095Y-87764285D01*
X108452857Y-88097619D02*
X108452857Y-87430952D01*
X108452857Y-87621428D02*
X108500476Y-87526190D01*
X108500476Y-87526190D02*
X108548095Y-87478571D01*
X108548095Y-87478571D02*
X108643333Y-87430952D01*
X108643333Y-87430952D02*
X108738571Y-87430952D01*
X109071905Y-88097619D02*
X109071905Y-87430952D01*
X109071905Y-87621428D02*
X109119524Y-87526190D01*
X109119524Y-87526190D02*
X109167143Y-87478571D01*
X109167143Y-87478571D02*
X109262381Y-87430952D01*
X109262381Y-87430952D02*
X109357619Y-87430952D01*
X109690953Y-88097619D02*
X109690953Y-87430952D01*
X109690953Y-87621428D02*
X109738572Y-87526190D01*
X109738572Y-87526190D02*
X109786191Y-87478571D01*
X109786191Y-87478571D02*
X109881429Y-87430952D01*
X109881429Y-87430952D02*
X109976667Y-87430952D01*
X110310001Y-88097619D02*
X110310001Y-87430952D01*
X110310001Y-87097619D02*
X110262382Y-87145238D01*
X110262382Y-87145238D02*
X110310001Y-87192857D01*
X110310001Y-87192857D02*
X110357620Y-87145238D01*
X110357620Y-87145238D02*
X110310001Y-87097619D01*
X110310001Y-87097619D02*
X110310001Y-87192857D01*
X111214762Y-88097619D02*
X111214762Y-87097619D01*
X111214762Y-88050000D02*
X111119524Y-88097619D01*
X111119524Y-88097619D02*
X110929048Y-88097619D01*
X110929048Y-88097619D02*
X110833810Y-88050000D01*
X110833810Y-88050000D02*
X110786191Y-88002380D01*
X110786191Y-88002380D02*
X110738572Y-87907142D01*
X110738572Y-87907142D02*
X110738572Y-87621428D01*
X110738572Y-87621428D02*
X110786191Y-87526190D01*
X110786191Y-87526190D02*
X110833810Y-87478571D01*
X110833810Y-87478571D02*
X110929048Y-87430952D01*
X110929048Y-87430952D02*
X111119524Y-87430952D01*
X111119524Y-87430952D02*
X111214762Y-87478571D01*
X112071905Y-88050000D02*
X111976667Y-88097619D01*
X111976667Y-88097619D02*
X111786191Y-88097619D01*
X111786191Y-88097619D02*
X111690953Y-88050000D01*
X111690953Y-88050000D02*
X111643334Y-87954761D01*
X111643334Y-87954761D02*
X111643334Y-87573809D01*
X111643334Y-87573809D02*
X111690953Y-87478571D01*
X111690953Y-87478571D02*
X111786191Y-87430952D01*
X111786191Y-87430952D02*
X111976667Y-87430952D01*
X111976667Y-87430952D02*
X112071905Y-87478571D01*
X112071905Y-87478571D02*
X112119524Y-87573809D01*
X112119524Y-87573809D02*
X112119524Y-87669047D01*
X112119524Y-87669047D02*
X111643334Y-87764285D01*
X113167144Y-87097619D02*
X113500477Y-88097619D01*
X113500477Y-88097619D02*
X113833810Y-87097619D01*
X114690953Y-88097619D02*
X114119525Y-88097619D01*
X114405239Y-88097619D02*
X114405239Y-87097619D01*
X114405239Y-87097619D02*
X114310001Y-87240476D01*
X114310001Y-87240476D02*
X114214763Y-87335714D01*
X114214763Y-87335714D02*
X114119525Y-87383333D01*
X115119525Y-88002380D02*
X115167144Y-88050000D01*
X115167144Y-88050000D02*
X115119525Y-88097619D01*
X115119525Y-88097619D02*
X115071906Y-88050000D01*
X115071906Y-88050000D02*
X115119525Y-88002380D01*
X115119525Y-88002380D02*
X115119525Y-88097619D01*
X115786191Y-87097619D02*
X115881429Y-87097619D01*
X115881429Y-87097619D02*
X115976667Y-87145238D01*
X115976667Y-87145238D02*
X116024286Y-87192857D01*
X116024286Y-87192857D02*
X116071905Y-87288095D01*
X116071905Y-87288095D02*
X116119524Y-87478571D01*
X116119524Y-87478571D02*
X116119524Y-87716666D01*
X116119524Y-87716666D02*
X116071905Y-87907142D01*
X116071905Y-87907142D02*
X116024286Y-88002380D01*
X116024286Y-88002380D02*
X115976667Y-88050000D01*
X115976667Y-88050000D02*
X115881429Y-88097619D01*
X115881429Y-88097619D02*
X115786191Y-88097619D01*
X115786191Y-88097619D02*
X115690953Y-88050000D01*
X115690953Y-88050000D02*
X115643334Y-88002380D01*
X115643334Y-88002380D02*
X115595715Y-87907142D01*
X115595715Y-87907142D02*
X115548096Y-87716666D01*
X115548096Y-87716666D02*
X115548096Y-87478571D01*
X115548096Y-87478571D02*
X115595715Y-87288095D01*
X115595715Y-87288095D02*
X115643334Y-87192857D01*
X115643334Y-87192857D02*
X115690953Y-87145238D01*
X115690953Y-87145238D02*
X115786191Y-87097619D01*
X103452857Y-88812857D02*
X103500476Y-88765238D01*
X103500476Y-88765238D02*
X103595714Y-88717619D01*
X103595714Y-88717619D02*
X103833809Y-88717619D01*
X103833809Y-88717619D02*
X103929047Y-88765238D01*
X103929047Y-88765238D02*
X103976666Y-88812857D01*
X103976666Y-88812857D02*
X104024285Y-88908095D01*
X104024285Y-88908095D02*
X104024285Y-89003333D01*
X104024285Y-89003333D02*
X103976666Y-89146190D01*
X103976666Y-89146190D02*
X103405238Y-89717619D01*
X103405238Y-89717619D02*
X104024285Y-89717619D01*
X104643333Y-88717619D02*
X104738571Y-88717619D01*
X104738571Y-88717619D02*
X104833809Y-88765238D01*
X104833809Y-88765238D02*
X104881428Y-88812857D01*
X104881428Y-88812857D02*
X104929047Y-88908095D01*
X104929047Y-88908095D02*
X104976666Y-89098571D01*
X104976666Y-89098571D02*
X104976666Y-89336666D01*
X104976666Y-89336666D02*
X104929047Y-89527142D01*
X104929047Y-89527142D02*
X104881428Y-89622380D01*
X104881428Y-89622380D02*
X104833809Y-89670000D01*
X104833809Y-89670000D02*
X104738571Y-89717619D01*
X104738571Y-89717619D02*
X104643333Y-89717619D01*
X104643333Y-89717619D02*
X104548095Y-89670000D01*
X104548095Y-89670000D02*
X104500476Y-89622380D01*
X104500476Y-89622380D02*
X104452857Y-89527142D01*
X104452857Y-89527142D02*
X104405238Y-89336666D01*
X104405238Y-89336666D02*
X104405238Y-89098571D01*
X104405238Y-89098571D02*
X104452857Y-88908095D01*
X104452857Y-88908095D02*
X104500476Y-88812857D01*
X104500476Y-88812857D02*
X104548095Y-88765238D01*
X104548095Y-88765238D02*
X104643333Y-88717619D01*
X105357619Y-88812857D02*
X105405238Y-88765238D01*
X105405238Y-88765238D02*
X105500476Y-88717619D01*
X105500476Y-88717619D02*
X105738571Y-88717619D01*
X105738571Y-88717619D02*
X105833809Y-88765238D01*
X105833809Y-88765238D02*
X105881428Y-88812857D01*
X105881428Y-88812857D02*
X105929047Y-88908095D01*
X105929047Y-88908095D02*
X105929047Y-89003333D01*
X105929047Y-89003333D02*
X105881428Y-89146190D01*
X105881428Y-89146190D02*
X105310000Y-89717619D01*
X105310000Y-89717619D02*
X105929047Y-89717619D01*
X106262381Y-88717619D02*
X106881428Y-88717619D01*
X106881428Y-88717619D02*
X106548095Y-89098571D01*
X106548095Y-89098571D02*
X106690952Y-89098571D01*
X106690952Y-89098571D02*
X106786190Y-89146190D01*
X106786190Y-89146190D02*
X106833809Y-89193809D01*
X106833809Y-89193809D02*
X106881428Y-89289047D01*
X106881428Y-89289047D02*
X106881428Y-89527142D01*
X106881428Y-89527142D02*
X106833809Y-89622380D01*
X106833809Y-89622380D02*
X106786190Y-89670000D01*
X106786190Y-89670000D02*
X106690952Y-89717619D01*
X106690952Y-89717619D02*
X106405238Y-89717619D01*
X106405238Y-89717619D02*
X106310000Y-89670000D01*
X106310000Y-89670000D02*
X106262381Y-89622380D01*
X107310000Y-89336666D02*
X108071905Y-89336666D01*
X109071904Y-89717619D02*
X108500476Y-89717619D01*
X108786190Y-89717619D02*
X108786190Y-88717619D01*
X108786190Y-88717619D02*
X108690952Y-88860476D01*
X108690952Y-88860476D02*
X108595714Y-88955714D01*
X108595714Y-88955714D02*
X108500476Y-89003333D01*
X109690952Y-88717619D02*
X109786190Y-88717619D01*
X109786190Y-88717619D02*
X109881428Y-88765238D01*
X109881428Y-88765238D02*
X109929047Y-88812857D01*
X109929047Y-88812857D02*
X109976666Y-88908095D01*
X109976666Y-88908095D02*
X110024285Y-89098571D01*
X110024285Y-89098571D02*
X110024285Y-89336666D01*
X110024285Y-89336666D02*
X109976666Y-89527142D01*
X109976666Y-89527142D02*
X109929047Y-89622380D01*
X109929047Y-89622380D02*
X109881428Y-89670000D01*
X109881428Y-89670000D02*
X109786190Y-89717619D01*
X109786190Y-89717619D02*
X109690952Y-89717619D01*
X109690952Y-89717619D02*
X109595714Y-89670000D01*
X109595714Y-89670000D02*
X109548095Y-89622380D01*
X109548095Y-89622380D02*
X109500476Y-89527142D01*
X109500476Y-89527142D02*
X109452857Y-89336666D01*
X109452857Y-89336666D02*
X109452857Y-89098571D01*
X109452857Y-89098571D02*
X109500476Y-88908095D01*
X109500476Y-88908095D02*
X109548095Y-88812857D01*
X109548095Y-88812857D02*
X109595714Y-88765238D01*
X109595714Y-88765238D02*
X109690952Y-88717619D01*
X110452857Y-89336666D02*
X111214762Y-89336666D01*
X112214761Y-89717619D02*
X111643333Y-89717619D01*
X111929047Y-89717619D02*
X111929047Y-88717619D01*
X111929047Y-88717619D02*
X111833809Y-88860476D01*
X111833809Y-88860476D02*
X111738571Y-88955714D01*
X111738571Y-88955714D02*
X111643333Y-89003333D01*
X112595714Y-88812857D02*
X112643333Y-88765238D01*
X112643333Y-88765238D02*
X112738571Y-88717619D01*
X112738571Y-88717619D02*
X112976666Y-88717619D01*
X112976666Y-88717619D02*
X113071904Y-88765238D01*
X113071904Y-88765238D02*
X113119523Y-88812857D01*
X113119523Y-88812857D02*
X113167142Y-88908095D01*
X113167142Y-88908095D02*
X113167142Y-89003333D01*
X113167142Y-89003333D02*
X113119523Y-89146190D01*
X113119523Y-89146190D02*
X112548095Y-89717619D01*
X112548095Y-89717619D02*
X113167142Y-89717619D01*
X110126087Y-84709141D02*
X109364183Y-84709141D01*
X109745135Y-84328188D02*
X109745135Y-85090093D01*
X108935611Y-84375808D02*
X108792754Y-84328188D01*
X108792754Y-84328188D02*
X108554659Y-84328188D01*
X108554659Y-84328188D02*
X108459421Y-84375808D01*
X108459421Y-84375808D02*
X108411802Y-84423427D01*
X108411802Y-84423427D02*
X108364183Y-84518665D01*
X108364183Y-84518665D02*
X108364183Y-84613903D01*
X108364183Y-84613903D02*
X108411802Y-84709141D01*
X108411802Y-84709141D02*
X108459421Y-84756760D01*
X108459421Y-84756760D02*
X108554659Y-84804379D01*
X108554659Y-84804379D02*
X108745135Y-84851998D01*
X108745135Y-84851998D02*
X108840373Y-84899617D01*
X108840373Y-84899617D02*
X108887992Y-84947236D01*
X108887992Y-84947236D02*
X108935611Y-85042474D01*
X108935611Y-85042474D02*
X108935611Y-85137712D01*
X108935611Y-85137712D02*
X108887992Y-85232950D01*
X108887992Y-85232950D02*
X108840373Y-85280569D01*
X108840373Y-85280569D02*
X108745135Y-85328188D01*
X108745135Y-85328188D02*
X108507040Y-85328188D01*
X108507040Y-85328188D02*
X108364183Y-85280569D01*
X107935611Y-84328188D02*
X107935611Y-85328188D01*
X107935611Y-84851998D02*
X107364183Y-84851998D01*
X107364183Y-84328188D02*
X107364183Y-85328188D01*
X106887992Y-85328188D02*
X106887992Y-84518665D01*
X106887992Y-84518665D02*
X106840373Y-84423427D01*
X106840373Y-84423427D02*
X106792754Y-84375808D01*
X106792754Y-84375808D02*
X106697516Y-84328188D01*
X106697516Y-84328188D02*
X106507040Y-84328188D01*
X106507040Y-84328188D02*
X106411802Y-84375808D01*
X106411802Y-84375808D02*
X106364183Y-84423427D01*
X106364183Y-84423427D02*
X106316564Y-84518665D01*
X106316564Y-84518665D02*
X106316564Y-85328188D01*
X105983230Y-85328188D02*
X105411802Y-85328188D01*
X105697516Y-84328188D02*
X105697516Y-85328188D01*
X105078468Y-84709141D02*
X104316564Y-84709141D01*
X141239523Y-84798333D02*
X140477619Y-84798333D01*
X140858571Y-84417380D02*
X140858571Y-85179285D01*
X139668095Y-84941190D02*
X139525238Y-84893571D01*
X139525238Y-84893571D02*
X139477619Y-84845952D01*
X139477619Y-84845952D02*
X139430000Y-84750714D01*
X139430000Y-84750714D02*
X139430000Y-84607857D01*
X139430000Y-84607857D02*
X139477619Y-84512619D01*
X139477619Y-84512619D02*
X139525238Y-84465000D01*
X139525238Y-84465000D02*
X139620476Y-84417380D01*
X139620476Y-84417380D02*
X140001428Y-84417380D01*
X140001428Y-84417380D02*
X140001428Y-85417380D01*
X140001428Y-85417380D02*
X139668095Y-85417380D01*
X139668095Y-85417380D02*
X139572857Y-85369761D01*
X139572857Y-85369761D02*
X139525238Y-85322142D01*
X139525238Y-85322142D02*
X139477619Y-85226904D01*
X139477619Y-85226904D02*
X139477619Y-85131666D01*
X139477619Y-85131666D02*
X139525238Y-85036428D01*
X139525238Y-85036428D02*
X139572857Y-84988809D01*
X139572857Y-84988809D02*
X139668095Y-84941190D01*
X139668095Y-84941190D02*
X140001428Y-84941190D01*
X139049047Y-84703095D02*
X138572857Y-84703095D01*
X139144285Y-84417380D02*
X138810952Y-85417380D01*
X138810952Y-85417380D02*
X138477619Y-84417380D01*
X138287142Y-85417380D02*
X137715714Y-85417380D01*
X138001428Y-84417380D02*
X138001428Y-85417380D01*
X137382380Y-84798333D02*
X136620476Y-84798333D01*
X126057856Y-84838333D02*
X125295952Y-84838333D01*
X125676904Y-84457380D02*
X125676904Y-85219285D01*
X124962618Y-85457380D02*
X124629285Y-84457380D01*
X124629285Y-84457380D02*
X124295952Y-85457380D01*
X124010237Y-84743095D02*
X123534047Y-84743095D01*
X124105475Y-84457380D02*
X123772142Y-85457380D01*
X123772142Y-85457380D02*
X123438809Y-84457380D01*
X122629285Y-84457380D02*
X123105475Y-84457380D01*
X123105475Y-84457380D02*
X123105475Y-85457380D01*
X122438808Y-85457380D02*
X122105475Y-84457380D01*
X122105475Y-84457380D02*
X121772142Y-85457380D01*
X121438808Y-84981190D02*
X121105475Y-84981190D01*
X120962618Y-84457380D02*
X121438808Y-84457380D01*
X121438808Y-84457380D02*
X121438808Y-85457380D01*
X121438808Y-85457380D02*
X120962618Y-85457380D01*
X120534046Y-84838333D02*
X119772142Y-84838333D01*
D14*
%TO.C,J1*%
X139770000Y-82095000D03*
D15*
X137770000Y-82095000D03*
%TD*%
D16*
%TO.C,H1*%
X110000000Y-105000000D03*
%TD*%
D17*
%TO.C,C1*%
X132785000Y-87745000D03*
X132785000Y-85845000D03*
%TD*%
D18*
%TO.C,C2*%
X116360000Y-97300000D03*
X116360000Y-99200000D03*
%TD*%
D19*
%TO.C,SW1*%
X137585000Y-101735000D03*
X142985000Y-101735000D03*
%TD*%
D14*
%TO.C,J3*%
X123950000Y-82210000D03*
D15*
X121950000Y-82210000D03*
%TD*%
D20*
%TO.C,R1*%
X122165000Y-95245000D03*
X122165000Y-94225000D03*
%TD*%
%TO.C,R3*%
X127175000Y-95475000D03*
X127175000Y-94455000D03*
%TD*%
D14*
%TO.C,J2*%
X108125000Y-82125000D03*
D15*
X106125000Y-82125000D03*
%TD*%
D20*
%TO.C,R2*%
X130815000Y-97635000D03*
X130815000Y-96615000D03*
%TD*%
D21*
%TO.C,D1*%
X122100000Y-91055000D03*
X123675000Y-91055000D03*
%TD*%
D22*
%TO.C,U2*%
X134375000Y-92615000D03*
X134375000Y-90075000D03*
X128075000Y-90075000D03*
X128075000Y-92615000D03*
%TD*%
D23*
%TO.C,R4*%
X133160000Y-101800000D03*
X134180000Y-101800000D03*
%TD*%
D24*
%TO.C,R6*%
X135570000Y-106570000D03*
X134550000Y-106570000D03*
%TD*%
D25*
%TO.C,D4*%
X124390000Y-87225000D03*
X121090000Y-87225000D03*
%TD*%
D26*
%TO.C,U1*%
X119590000Y-104920000D03*
D27*
X122130000Y-104920000D03*
X124670000Y-104920000D03*
X127210000Y-104920000D03*
X127210000Y-97300000D03*
X124670000Y-97300000D03*
X122130000Y-97300000D03*
X119590000Y-97300000D03*
%TD*%
D21*
%TO.C,D2*%
X122090000Y-89355000D03*
X123665000Y-89355000D03*
%TD*%
D20*
%TO.C,R5*%
X125200000Y-90385000D03*
X125200000Y-89365000D03*
%TD*%
D28*
%TO.C,U3*%
X143355000Y-94925000D03*
X143355000Y-92625000D03*
D29*
X137055000Y-92625000D03*
D28*
X143355000Y-90325000D03*
%TD*%
D30*
%TO.C,NTC1*%
X139930000Y-106570000D03*
D31*
X142470000Y-106570000D03*
%TD*%
M02*
