%TF.GenerationSoftware,KiCad,Pcbnew,7.0.2*%
%TF.CreationDate,2023-10-13T05:00:02+05:00*%
%TF.ProjectId,IM100_Override,494d3130-305f-44f7-9665-72726964652e,V1.0*%
%TF.SameCoordinates,Original*%
%TF.FileFunction,Copper,L1,Top*%
%TF.FilePolarity,Positive*%
%FSLAX46Y46*%
G04 Gerber Fmt 4.6, Leading zero omitted, Abs format (unit mm)*
G04 Created by KiCad (PCBNEW 7.0.2) date 2023-10-13 05:00:02*
%MOMM*%
%LPD*%
G01*
G04 APERTURE LIST*
G04 Aperture macros list*
%AMRoundRect*
0 Rectangle with rounded corners*
0 $1 Rounding radius*
0 $2 $3 $4 $5 $6 $7 $8 $9 X,Y pos of 4 corners*
0 Add a 4 corners polygon primitive as box body*
4,1,4,$2,$3,$4,$5,$6,$7,$8,$9,$2,$3,0*
0 Add four circle primitives for the rounded corners*
1,1,$1+$1,$2,$3*
1,1,$1+$1,$4,$5*
1,1,$1+$1,$6,$7*
1,1,$1+$1,$8,$9*
0 Add four rect primitives between the rounded corners*
20,1,$1+$1,$2,$3,$4,$5,0*
20,1,$1+$1,$4,$5,$6,$7,0*
20,1,$1+$1,$6,$7,$8,$9,0*
20,1,$1+$1,$8,$9,$2,$3,0*%
G04 Aperture macros list end*
%TA.AperFunction,ComponentPad*%
%ADD10C,7.500000*%
%TD*%
%TA.AperFunction,SMDPad,CuDef*%
%ADD11R,2.000000X1.500000*%
%TD*%
%TA.AperFunction,SMDPad,CuDef*%
%ADD12R,2.000000X3.800000*%
%TD*%
%TA.AperFunction,SMDPad,CuDef*%
%ADD13RoundRect,0.150000X0.750000X0.150000X-0.750000X0.150000X-0.750000X-0.150000X0.750000X-0.150000X0*%
%TD*%
%TA.AperFunction,ComponentPad*%
%ADD14R,1.600000X1.600000*%
%TD*%
%TA.AperFunction,ComponentPad*%
%ADD15O,1.600000X1.600000*%
%TD*%
%TA.AperFunction,SMDPad,CuDef*%
%ADD16R,2.000000X1.600000*%
%TD*%
%TA.AperFunction,SMDPad,CuDef*%
%ADD17RoundRect,0.135000X0.135000X0.185000X-0.135000X0.185000X-0.135000X-0.185000X0.135000X-0.185000X0*%
%TD*%
%TA.AperFunction,SMDPad,CuDef*%
%ADD18RoundRect,0.135000X0.185000X-0.135000X0.185000X0.135000X-0.185000X0.135000X-0.185000X-0.135000X0*%
%TD*%
%TA.AperFunction,SMDPad,CuDef*%
%ADD19RoundRect,0.135000X-0.135000X-0.185000X0.135000X-0.185000X0.135000X0.185000X-0.135000X0.185000X0*%
%TD*%
%TA.AperFunction,ComponentPad*%
%ADD20R,1.700000X1.700000*%
%TD*%
%TA.AperFunction,ComponentPad*%
%ADD21O,1.700000X1.700000*%
%TD*%
%TA.AperFunction,ComponentPad*%
%ADD22O,1.200000X1.750000*%
%TD*%
%TA.AperFunction,ComponentPad*%
%ADD23RoundRect,0.250000X0.350000X0.625000X-0.350000X0.625000X-0.350000X-0.625000X0.350000X-0.625000X0*%
%TD*%
%TA.AperFunction,SMDPad,CuDef*%
%ADD24RoundRect,0.225000X0.225000X0.375000X-0.225000X0.375000X-0.225000X-0.375000X0.225000X-0.375000X0*%
%TD*%
%TA.AperFunction,SMDPad,CuDef*%
%ADD25RoundRect,0.218750X-0.218750X-0.256250X0.218750X-0.256250X0.218750X0.256250X-0.218750X0.256250X0*%
%TD*%
%TA.AperFunction,SMDPad,CuDef*%
%ADD26RoundRect,0.250000X-0.475000X0.250000X-0.475000X-0.250000X0.475000X-0.250000X0.475000X0.250000X0*%
%TD*%
%TA.AperFunction,SMDPad,CuDef*%
%ADD27RoundRect,0.250000X0.475000X-0.250000X0.475000X0.250000X-0.475000X0.250000X-0.475000X-0.250000X0*%
%TD*%
%TA.AperFunction,ViaPad*%
%ADD28C,0.800000*%
%TD*%
%TA.AperFunction,Conductor*%
%ADD29C,0.500000*%
%TD*%
%TA.AperFunction,Conductor*%
%ADD30C,1.000000*%
%TD*%
G04 APERTURE END LIST*
D10*
%TO.P,H1,*%
%TO.N,*%
X110000000Y-105000000D03*
%TD*%
D11*
%TO.P,U3,1,GND*%
%TO.N,GND*%
X143355000Y-94925000D03*
D12*
%TO.P,U3,2,VO*%
%TO.N,+3V3*%
X137055000Y-92625000D03*
D11*
X143355000Y-92625000D03*
%TO.P,U3,3,VI*%
%TO.N,+BATT*%
X143355000Y-90325000D03*
%TD*%
D13*
%TO.P,U2,1*%
%TO.N,Net-(R2-Pad2)*%
X134375000Y-92615000D03*
%TO.P,U2,2*%
%TO.N,GND*%
X134375000Y-90075000D03*
%TO.P,U2,3*%
%TO.N,VALVE*%
X128075000Y-90075000D03*
%TO.P,U2,4*%
%TO.N,+BATT*%
X128075000Y-92615000D03*
%TD*%
D14*
%TO.P,U1,1,~{RESET}/PB5*%
%TO.N,unconnected-(U1-~{RESET}{slash}PB5-Pad1)*%
X119590000Y-104920000D03*
D15*
%TO.P,U1,2,PB3*%
%TO.N,Net-(U1-PB3)*%
X122130000Y-104920000D03*
%TO.P,U1,3,PB4*%
%TO.N,Net-(U1-PB4)*%
X124670000Y-104920000D03*
%TO.P,U1,4,GND*%
%TO.N,GND*%
X127210000Y-104920000D03*
%TO.P,U1,5,PB0*%
%TO.N,Net-(U1-PB0)*%
X127210000Y-97300000D03*
%TO.P,U1,6,PB1*%
%TO.N,Net-(U1-PB1)*%
X124670000Y-97300000D03*
%TO.P,U1,7,PB2*%
%TO.N,Net-(U1-PB2)*%
X122130000Y-97300000D03*
%TO.P,U1,8,VCC*%
%TO.N,+3V3*%
X119590000Y-97300000D03*
%TD*%
D16*
%TO.P,SW1,1,1*%
%TO.N,BUTTON*%
X137585000Y-101735000D03*
%TO.P,SW1,2,2*%
%TO.N,GND*%
X142985000Y-101735000D03*
%TD*%
D17*
%TO.P,R6,1*%
%TO.N,Net-(U1-PB4)*%
X135570000Y-106570000D03*
%TO.P,R6,2*%
%TO.N,GND*%
X134550000Y-106570000D03*
%TD*%
D18*
%TO.P,R5,1*%
%TO.N,VALVE*%
X125200000Y-90385000D03*
%TO.P,R5,2*%
%TO.N,Net-(D2-A)*%
X125200000Y-89365000D03*
%TD*%
D19*
%TO.P,R4,1*%
%TO.N,Net-(U1-PB1)*%
X133160000Y-101800000D03*
%TO.P,R4,2*%
%TO.N,BUTTON*%
X134180000Y-101800000D03*
%TD*%
D18*
%TO.P,R3,2*%
%TO.N,SHUTTER*%
X127175000Y-94455000D03*
%TO.P,R3,1*%
%TO.N,Net-(U1-PB0)*%
X127175000Y-95475000D03*
%TD*%
%TO.P,R2,1*%
%TO.N,Net-(U1-PB3)*%
X130815000Y-97635000D03*
%TO.P,R2,2*%
%TO.N,Net-(R2-Pad2)*%
X130815000Y-96615000D03*
%TD*%
%TO.P,R1,1*%
%TO.N,Net-(U1-PB2)*%
X122165000Y-95245000D03*
%TO.P,R1,2*%
%TO.N,Net-(D1-A)*%
X122165000Y-94225000D03*
%TD*%
D20*
%TO.P,NTC1,1*%
%TO.N,Net-(U1-PB4)*%
X139930000Y-106570000D03*
D21*
%TO.P,NTC1,2*%
%TO.N,+3V3*%
X142470000Y-106570000D03*
%TD*%
D22*
%TO.P,J3,2*%
%TO.N,GND*%
X121950000Y-82210000D03*
D23*
%TO.P,J3,1*%
%TO.N,VALVE*%
X123950000Y-82210000D03*
%TD*%
%TO.P,J2,1*%
%TO.N,SHUTTER*%
X108125000Y-82125000D03*
D22*
%TO.P,J2,2*%
%TO.N,GND*%
X106125000Y-82125000D03*
%TD*%
D23*
%TO.P,J1,1*%
%TO.N,+BATT*%
X139770000Y-82095000D03*
D22*
%TO.P,J1,2*%
%TO.N,GND*%
X137770000Y-82095000D03*
%TD*%
D24*
%TO.P,D4,1,K*%
%TO.N,VALVE*%
X124390000Y-87225000D03*
%TO.P,D4,2,A*%
%TO.N,GND*%
X121090000Y-87225000D03*
%TD*%
D25*
%TO.P,D2,2,A*%
%TO.N,Net-(D2-A)*%
X123665000Y-89355000D03*
%TO.P,D2,1,K*%
%TO.N,GND*%
X122090000Y-89355000D03*
%TD*%
%TO.P,D1,1,K*%
%TO.N,GND*%
X122100000Y-91055000D03*
%TO.P,D1,2,A*%
%TO.N,Net-(D1-A)*%
X123675000Y-91055000D03*
%TD*%
D26*
%TO.P,C2,1*%
%TO.N,+3V3*%
X116360000Y-97300000D03*
%TO.P,C2,2*%
%TO.N,GND*%
X116360000Y-99200000D03*
%TD*%
D27*
%TO.P,C1,1*%
%TO.N,+BATT*%
X132785000Y-87745000D03*
%TO.P,C1,2*%
%TO.N,GND*%
X132785000Y-85845000D03*
%TD*%
D28*
%TO.N,GND*%
X129455000Y-86770000D03*
X130530000Y-94605000D03*
X134265000Y-95310000D03*
X135075000Y-99680000D03*
X134935000Y-103285000D03*
X120720000Y-107720000D03*
X116025000Y-106280000D03*
X115485000Y-102970000D03*
X113675000Y-95135000D03*
X116675000Y-93975000D03*
X114015000Y-91315000D03*
X117100000Y-85660000D03*
X132800000Y-82120000D03*
X129745000Y-82065000D03*
X116420000Y-82350000D03*
X113310000Y-82205000D03*
%TO.N,+3V3*%
X137119360Y-92624644D03*
%TO.N,GND*%
X139437517Y-90444006D03*
X139594680Y-94962446D03*
X140710000Y-90455000D03*
X143010000Y-98730000D03*
%TO.N,+3V3*%
X137015000Y-95890000D03*
%TO.N,SHUTTER*%
X124765000Y-93445000D03*
%TO.N,GND*%
X141140000Y-94990000D03*
X119000000Y-88350000D03*
%TD*%
D29*
%TO.N,VALVE*%
X126575000Y-90075000D02*
X126265000Y-90385000D01*
X126265000Y-90385000D02*
X125200000Y-90385000D01*
%TO.N,Net-(D1-A)*%
X122165000Y-94225000D02*
X122165000Y-93520000D01*
X122165000Y-93520000D02*
X123675000Y-92010000D01*
X123675000Y-92010000D02*
X123675000Y-91055000D01*
%TO.N,Net-(D2-A)*%
X123665000Y-89355000D02*
X125062685Y-89355000D01*
X125062685Y-89355000D02*
X125072685Y-89365000D01*
%TO.N,Net-(U1-PB3)*%
X130815000Y-97635000D02*
X130815000Y-97910000D01*
X124165000Y-102885000D02*
X122130000Y-104920000D01*
X130815000Y-97910000D02*
X131190000Y-98285000D01*
X139035000Y-98285000D02*
X140335000Y-99585000D01*
X131190000Y-98285000D02*
X139035000Y-98285000D01*
X138800000Y-104820000D02*
X131825000Y-104820000D01*
X129890000Y-102885000D02*
X124165000Y-102885000D01*
X140335000Y-99585000D02*
X140335000Y-103285000D01*
X140335000Y-103285000D02*
X138800000Y-104820000D01*
X131825000Y-104820000D02*
X129890000Y-102885000D01*
D30*
%TO.N,+BATT*%
X128075000Y-92615000D02*
X129435000Y-92615000D01*
X129435000Y-92615000D02*
X131510000Y-90540000D01*
X131510000Y-90540000D02*
X131510000Y-87835000D01*
X131590000Y-87755000D02*
X140665000Y-87755000D01*
X140665000Y-87755000D02*
X142910000Y-85510000D01*
X131510000Y-87835000D02*
X131590000Y-87755000D01*
D29*
%TO.N,GND*%
X134375000Y-90075000D02*
X134375000Y-89695000D01*
X134700000Y-89370000D02*
X139625000Y-89370000D01*
X134375000Y-89695000D02*
X134700000Y-89370000D01*
X139625000Y-89370000D02*
X140710000Y-90455000D01*
%TO.N,Net-(U1-PB4)*%
X124670000Y-104920000D02*
X124670000Y-106105000D01*
X135570000Y-107320000D02*
X135570000Y-106570000D01*
X124670000Y-106105000D02*
X126245000Y-107680000D01*
X126245000Y-107680000D02*
X135210000Y-107680000D01*
X135210000Y-107680000D02*
X135570000Y-107320000D01*
%TO.N,SHUTTER*%
X127175000Y-94455000D02*
X125775000Y-94455000D01*
X125775000Y-94455000D02*
X124765000Y-93445000D01*
%TO.N,Net-(U1-PB1)*%
X133160000Y-101800000D02*
X133160000Y-101345000D01*
X133160000Y-101345000D02*
X132365000Y-100550000D01*
X132365000Y-100550000D02*
X125380000Y-100550000D01*
X125380000Y-100550000D02*
X124670000Y-99840000D01*
X124670000Y-99840000D02*
X124670000Y-97300000D01*
%TO.N,Net-(R2-Pad2)*%
X130815000Y-96615000D02*
X131205000Y-96615000D01*
X131205000Y-96615000D02*
X132275000Y-95545000D01*
X132275000Y-93220000D02*
X132880000Y-92615000D01*
X132275000Y-95545000D02*
X132275000Y-93220000D01*
X132880000Y-92615000D02*
X134375000Y-92615000D01*
%TO.N,VALVE*%
X124390000Y-87225000D02*
X125390000Y-87225000D01*
X127530000Y-85085000D02*
X127530000Y-83285000D01*
X125390000Y-87225000D02*
X127530000Y-85085000D01*
X127530000Y-83285000D02*
X126530000Y-82285000D01*
X126530000Y-82285000D02*
X124025000Y-82285000D01*
X124025000Y-82285000D02*
X123950000Y-82210000D01*
%TO.N,GND*%
X142985000Y-101735000D02*
X142985000Y-98755000D01*
X142985000Y-98755000D02*
X143010000Y-98730000D01*
%TO.N,+3V3*%
X137055000Y-92625000D02*
X137055000Y-95850000D01*
X137055000Y-95850000D02*
X137015000Y-95890000D01*
X116360000Y-97300000D02*
X119590000Y-97300000D01*
%TO.N,GND*%
X141205000Y-94925000D02*
X141140000Y-94990000D01*
X143355000Y-94925000D02*
X141205000Y-94925000D01*
%TO.N,Net-(U1-PB0)*%
X127175000Y-95475000D02*
X127175000Y-97265000D01*
X127175000Y-97265000D02*
X127210000Y-97300000D01*
D30*
%TO.N,+BATT*%
X139770000Y-82095000D02*
X141315000Y-82095000D01*
X141315000Y-82095000D02*
X142910000Y-83690000D01*
X142910000Y-83690000D02*
X142910000Y-85510000D01*
X142910000Y-85510000D02*
X143350000Y-85950000D01*
D29*
%TO.N,GND*%
X121090000Y-87225000D02*
X120125000Y-87225000D01*
X120125000Y-87225000D02*
X119000000Y-88350000D01*
%TO.N,VALVE*%
X124390000Y-87225000D02*
X125045000Y-87225000D01*
X125045000Y-87225000D02*
X126355000Y-88535000D01*
X126355000Y-88535000D02*
X126355000Y-89855000D01*
X126355000Y-89855000D02*
X126575000Y-90075000D01*
X126575000Y-90075000D02*
X128075000Y-90075000D01*
%TO.N,GND*%
X122090000Y-89355000D02*
X122090000Y-89005000D01*
X122090000Y-89005000D02*
X121090000Y-88005000D01*
X121090000Y-88005000D02*
X121090000Y-87225000D01*
X122120000Y-91070000D02*
X122120000Y-89385000D01*
X122120000Y-89385000D02*
X122090000Y-89355000D01*
%TO.N,Net-(U1-PB2)*%
X122130000Y-97300000D02*
X122130000Y-95280000D01*
X122130000Y-95280000D02*
X122165000Y-95245000D01*
%TO.N,BUTTON*%
X137585000Y-101735000D02*
X134245000Y-101735000D01*
X134245000Y-101735000D02*
X134180000Y-101800000D01*
%TO.N,GND*%
X134550000Y-106570000D02*
X134545000Y-106565000D01*
X127260000Y-104970000D02*
X127210000Y-104920000D01*
X134545000Y-106565000D02*
X127970000Y-106565000D01*
X127970000Y-106565000D02*
X127260000Y-105855000D01*
X127260000Y-105855000D02*
X127260000Y-104970000D01*
%TO.N,Net-(U1-PB4)*%
X135570000Y-106570000D02*
X139930000Y-106570000D01*
%TO.N,+3V3*%
X140550000Y-92625000D02*
X137055000Y-92625000D01*
X143355000Y-92625000D02*
X140550000Y-92625000D01*
%TO.N,+BATT*%
X143350000Y-87765000D02*
X143355000Y-87770000D01*
X143355000Y-87770000D02*
X143355000Y-90325000D01*
D30*
X143350000Y-85950000D02*
X143350000Y-87765000D01*
%TD*%
%TA.AperFunction,Conductor*%
%TO.N,GND*%
G36*
X144642539Y-80320185D02*
G01*
X144688294Y-80372989D01*
X144699500Y-80424500D01*
X144699500Y-88990717D01*
X144679815Y-89057756D01*
X144627011Y-89103511D01*
X144557853Y-89113455D01*
X144532167Y-89106899D01*
X144462485Y-89080909D01*
X144406166Y-89074854D01*
X144406165Y-89074853D01*
X144402873Y-89074500D01*
X144399551Y-89074500D01*
X144229500Y-89074500D01*
X144162461Y-89054815D01*
X144116706Y-89002011D01*
X144105500Y-88950500D01*
X144105500Y-88469816D01*
X144125185Y-88402777D01*
X144127725Y-88398979D01*
X144141503Y-88379184D01*
X144229295Y-88253049D01*
X144309540Y-88066058D01*
X144350500Y-87866741D01*
X144350500Y-85964276D01*
X144350540Y-85961135D01*
X144352757Y-85873638D01*
X144342350Y-85815574D01*
X144341041Y-85806242D01*
X144335074Y-85747562D01*
X144325962Y-85718520D01*
X144322226Y-85703297D01*
X144316858Y-85673347D01*
X144294976Y-85618566D01*
X144291816Y-85609689D01*
X144274159Y-85553412D01*
X144259395Y-85526812D01*
X144252660Y-85512631D01*
X144247313Y-85499244D01*
X144241377Y-85484383D01*
X144208917Y-85435131D01*
X144204036Y-85427074D01*
X144194813Y-85410457D01*
X144175409Y-85375498D01*
X144155582Y-85352403D01*
X144146146Y-85339888D01*
X144129402Y-85314481D01*
X144129400Y-85314479D01*
X144129399Y-85314477D01*
X144087700Y-85272779D01*
X144081294Y-85265867D01*
X144042868Y-85221106D01*
X144018805Y-85202480D01*
X144007026Y-85192105D01*
X143946819Y-85131898D01*
X143913334Y-85070575D01*
X143910500Y-85044217D01*
X143910500Y-83704277D01*
X143910540Y-83701135D01*
X143912757Y-83613640D01*
X143912756Y-83613639D01*
X143912757Y-83613637D01*
X143902344Y-83555545D01*
X143901042Y-83546260D01*
X143895074Y-83487562D01*
X143885962Y-83458524D01*
X143882224Y-83443291D01*
X143876858Y-83413348D01*
X143854975Y-83358563D01*
X143851815Y-83349686D01*
X143834159Y-83293412D01*
X143819398Y-83266817D01*
X143812663Y-83252636D01*
X143810341Y-83246823D01*
X143801378Y-83224383D01*
X143768901Y-83175106D01*
X143764040Y-83167082D01*
X143735409Y-83115498D01*
X143735408Y-83115496D01*
X143715593Y-83092415D01*
X143706144Y-83079883D01*
X143689402Y-83054481D01*
X143647699Y-83012779D01*
X143641292Y-83005866D01*
X143602865Y-82961103D01*
X143578802Y-82942477D01*
X143567022Y-82932102D01*
X142032567Y-81397647D01*
X142030412Y-81395438D01*
X141970059Y-81331947D01*
X141921640Y-81298246D01*
X141914118Y-81292575D01*
X141868405Y-81255300D01*
X141841440Y-81241215D01*
X141828019Y-81233084D01*
X141803049Y-81215705D01*
X141803048Y-81215704D01*
X141803046Y-81215703D01*
X141748845Y-81192443D01*
X141740336Y-81188402D01*
X141688053Y-81161092D01*
X141682126Y-81159396D01*
X141658798Y-81152721D01*
X141644020Y-81147459D01*
X141616058Y-81135460D01*
X141558272Y-81123583D01*
X141549128Y-81121338D01*
X141492421Y-81105113D01*
X141462075Y-81102802D01*
X141446534Y-81100622D01*
X141416742Y-81094500D01*
X141416741Y-81094500D01*
X141357758Y-81094500D01*
X141348344Y-81094142D01*
X141339198Y-81093445D01*
X141289524Y-81089663D01*
X141289523Y-81089663D01*
X141289522Y-81089663D01*
X141259349Y-81093506D01*
X141243683Y-81094500D01*
X140839378Y-81094500D01*
X140772339Y-81074815D01*
X140733839Y-81035596D01*
X140712711Y-81001342D01*
X140588657Y-80877288D01*
X140439334Y-80785186D01*
X140272797Y-80730000D01*
X140173141Y-80719819D01*
X140173122Y-80719818D01*
X140170009Y-80719500D01*
X140166860Y-80719500D01*
X139373141Y-80719500D01*
X139373121Y-80719500D01*
X139369992Y-80719501D01*
X139366860Y-80719820D01*
X139366858Y-80719821D01*
X139267203Y-80730000D01*
X139100665Y-80785186D01*
X138951342Y-80877288D01*
X138827287Y-81001343D01*
X138787905Y-81065192D01*
X138735957Y-81111917D01*
X138666995Y-81123138D01*
X138602913Y-81095295D01*
X138584897Y-81076748D01*
X138569728Y-81057460D01*
X138410963Y-80919888D01*
X138229036Y-80814853D01*
X138030511Y-80746143D01*
X138020000Y-80744631D01*
X138020000Y-81814382D01*
X137950948Y-81760637D01*
X137832576Y-81720000D01*
X137738927Y-81720000D01*
X137646554Y-81735414D01*
X137536486Y-81794981D01*
X137520000Y-81812889D01*
X137520000Y-80748740D01*
X137408593Y-80775768D01*
X137217494Y-80863039D01*
X137046378Y-80984892D01*
X136901407Y-81136933D01*
X136787833Y-81313655D01*
X136709755Y-81508685D01*
X136670000Y-81714962D01*
X136670000Y-81845000D01*
X137490440Y-81845000D01*
X137451722Y-81887059D01*
X137401449Y-82001670D01*
X137391114Y-82126395D01*
X137421837Y-82247719D01*
X137485394Y-82345000D01*
X136670000Y-82345000D01*
X136670000Y-82419450D01*
X136670281Y-82425359D01*
X136684964Y-82579120D01*
X136744149Y-82780687D01*
X136840412Y-82967412D01*
X136970269Y-83132538D01*
X137129036Y-83270111D01*
X137310963Y-83375146D01*
X137509485Y-83443855D01*
X137520000Y-83445366D01*
X137520000Y-82375617D01*
X137589052Y-82429363D01*
X137707424Y-82470000D01*
X137801073Y-82470000D01*
X137893446Y-82454586D01*
X138003514Y-82395019D01*
X138020000Y-82377110D01*
X138020000Y-83441257D01*
X138131410Y-83414229D01*
X138322505Y-83326960D01*
X138493624Y-83205105D01*
X138591479Y-83102478D01*
X138651987Y-83067543D01*
X138721778Y-83070867D01*
X138778692Y-83111395D01*
X138786761Y-83122951D01*
X138827288Y-83188657D01*
X138951342Y-83312711D01*
X138951344Y-83312712D01*
X139100666Y-83404814D01*
X139212017Y-83441712D01*
X139267202Y-83459999D01*
X139366858Y-83470180D01*
X139366859Y-83470180D01*
X139369991Y-83470500D01*
X140170008Y-83470499D01*
X140272797Y-83459999D01*
X140439334Y-83404814D01*
X140588656Y-83312712D01*
X140712712Y-83188656D01*
X140733838Y-83154404D01*
X140785787Y-83107679D01*
X140839378Y-83095500D01*
X140849217Y-83095500D01*
X140916256Y-83115185D01*
X140936898Y-83131819D01*
X141873182Y-84068103D01*
X141906666Y-84129424D01*
X141909500Y-84155782D01*
X141909500Y-85044217D01*
X141889815Y-85111256D01*
X141873181Y-85131898D01*
X140286899Y-86718181D01*
X140225576Y-86751666D01*
X140199218Y-86754500D01*
X133956586Y-86754500D01*
X133889547Y-86734815D01*
X133843792Y-86682011D01*
X133833848Y-86612853D01*
X133851047Y-86565404D01*
X133944357Y-86414122D01*
X133999506Y-86247696D01*
X134009680Y-86148109D01*
X134010000Y-86141831D01*
X134010000Y-86095000D01*
X131560001Y-86095000D01*
X131560001Y-86141829D01*
X131560321Y-86148111D01*
X131570493Y-86247695D01*
X131625642Y-86414122D01*
X131718953Y-86565404D01*
X131737393Y-86632796D01*
X131716470Y-86699460D01*
X131662828Y-86744229D01*
X131613414Y-86754500D01*
X131604262Y-86754500D01*
X131601121Y-86754460D01*
X131599839Y-86754427D01*
X131513637Y-86752242D01*
X131455580Y-86762648D01*
X131446251Y-86763957D01*
X131387562Y-86769926D01*
X131358527Y-86779035D01*
X131343290Y-86782774D01*
X131313350Y-86788141D01*
X131258567Y-86810022D01*
X131249698Y-86813179D01*
X131193410Y-86830841D01*
X131166809Y-86845605D01*
X131152639Y-86852335D01*
X131124385Y-86863622D01*
X131075121Y-86896087D01*
X131067070Y-86900964D01*
X131015498Y-86929590D01*
X130992414Y-86949407D01*
X130979887Y-86958853D01*
X130954481Y-86975598D01*
X130912777Y-87017301D01*
X130905870Y-87023701D01*
X130861109Y-87062129D01*
X130861105Y-87062133D01*
X130861105Y-87062134D01*
X130842477Y-87086197D01*
X130832109Y-87097968D01*
X130812640Y-87117437D01*
X130810393Y-87119629D01*
X130746947Y-87179940D01*
X130713245Y-87228361D01*
X130707573Y-87235882D01*
X130670301Y-87281593D01*
X130656210Y-87308566D01*
X130648082Y-87321983D01*
X130630705Y-87346950D01*
X130607439Y-87401165D01*
X130603399Y-87409671D01*
X130576090Y-87461952D01*
X130567720Y-87491201D01*
X130562459Y-87505978D01*
X130550460Y-87533942D01*
X130538587Y-87591713D01*
X130536342Y-87600860D01*
X130520113Y-87657580D01*
X130517802Y-87687925D01*
X130515622Y-87703466D01*
X130509500Y-87733258D01*
X130509500Y-87792241D01*
X130509141Y-87801656D01*
X130504663Y-87860476D01*
X130505460Y-87866739D01*
X130508506Y-87890656D01*
X130509499Y-87906318D01*
X130509499Y-90074217D01*
X130489814Y-90141256D01*
X130473180Y-90161898D01*
X129056899Y-91578181D01*
X128995576Y-91611666D01*
X128969218Y-91614500D01*
X128024258Y-91614500D01*
X128021147Y-91614816D01*
X128021134Y-91614817D01*
X127872559Y-91629926D01*
X127678412Y-91690841D01*
X127553107Y-91760391D01*
X127489472Y-91795711D01*
X127487909Y-91792895D01*
X127442637Y-91813318D01*
X127425558Y-91814500D01*
X127259306Y-91814500D01*
X127256886Y-91814690D01*
X127256871Y-91814691D01*
X127222427Y-91817402D01*
X127064602Y-91863255D01*
X126923134Y-91946919D01*
X126806919Y-92063134D01*
X126723255Y-92204602D01*
X126677402Y-92362427D01*
X126674691Y-92396871D01*
X126674690Y-92396886D01*
X126674500Y-92399306D01*
X126674500Y-92830694D01*
X126674690Y-92833114D01*
X126674691Y-92833128D01*
X126677402Y-92867572D01*
X126723255Y-93025397D01*
X126781168Y-93123323D01*
X126806919Y-93166865D01*
X126923135Y-93283081D01*
X127030011Y-93346287D01*
X127064602Y-93366744D01*
X127222427Y-93412597D01*
X127222431Y-93412598D01*
X127259306Y-93415500D01*
X127434838Y-93415500D01*
X127501877Y-93435185D01*
X127505663Y-93437717D01*
X127540430Y-93461916D01*
X127584208Y-93516369D01*
X127591597Y-93585847D01*
X127560251Y-93648290D01*
X127500121Y-93683873D01*
X127459865Y-93687308D01*
X127426618Y-93684691D01*
X127426598Y-93684690D01*
X127424181Y-93684500D01*
X127421735Y-93684500D01*
X126928243Y-93684500D01*
X126928217Y-93684500D01*
X126925820Y-93684501D01*
X126923429Y-93684689D01*
X126923406Y-93684690D01*
X126889794Y-93687335D01*
X126847662Y-93699576D01*
X126813067Y-93704500D01*
X126137229Y-93704500D01*
X126070190Y-93684815D01*
X126049548Y-93668181D01*
X125864134Y-93482767D01*
X125677771Y-93296403D01*
X125647521Y-93247040D01*
X125592179Y-93076715D01*
X125497533Y-92912783D01*
X125370870Y-92772110D01*
X125217730Y-92660848D01*
X125044802Y-92583855D01*
X124859648Y-92544500D01*
X124859646Y-92544500D01*
X124670354Y-92544500D01*
X124670352Y-92544500D01*
X124485196Y-92583855D01*
X124471157Y-92590106D01*
X124401907Y-92599390D01*
X124338630Y-92569760D01*
X124301418Y-92510625D01*
X124302084Y-92440758D01*
X124312834Y-92420217D01*
X124311981Y-92419819D01*
X124318107Y-92406679D01*
X124318110Y-92406677D01*
X124349832Y-92338647D01*
X124351348Y-92335516D01*
X124385040Y-92268433D01*
X124385040Y-92268429D01*
X124385610Y-92267296D01*
X124391999Y-92248917D01*
X124393944Y-92239496D01*
X124407431Y-92174171D01*
X124408186Y-92170767D01*
X124425500Y-92097721D01*
X124425500Y-92097717D01*
X124425790Y-92096494D01*
X124427769Y-92077123D01*
X124427732Y-92075859D01*
X124427733Y-92075856D01*
X124425552Y-92000888D01*
X124425500Y-91997283D01*
X124425500Y-91848034D01*
X124445185Y-91780995D01*
X124461756Y-91760430D01*
X124461778Y-91760393D01*
X124461781Y-91760391D01*
X124550049Y-91617287D01*
X124602936Y-91457685D01*
X124613000Y-91359174D01*
X124613000Y-91230137D01*
X124632685Y-91163098D01*
X124685489Y-91117343D01*
X124754647Y-91107399D01*
X124771590Y-91111060D01*
X124914796Y-91152665D01*
X124950819Y-91155500D01*
X125449180Y-91155499D01*
X125485204Y-91152665D01*
X125527337Y-91140424D01*
X125561933Y-91135500D01*
X126201294Y-91135500D01*
X126219264Y-91136809D01*
X126223320Y-91137402D01*
X126243023Y-91140289D01*
X126292368Y-91135972D01*
X126303176Y-91135500D01*
X126305100Y-91135500D01*
X126308709Y-91135500D01*
X126339550Y-91131894D01*
X126343031Y-91131539D01*
X126417797Y-91124999D01*
X126417797Y-91124998D01*
X126419052Y-91124889D01*
X126438062Y-91120674D01*
X126439250Y-91120241D01*
X126439255Y-91120241D01*
X126509820Y-91094557D01*
X126513095Y-91093419D01*
X126584334Y-91069814D01*
X126584336Y-91069812D01*
X126585536Y-91069415D01*
X126603063Y-91060929D01*
X126604112Y-91060238D01*
X126604117Y-91060237D01*
X126666806Y-91019005D01*
X126669798Y-91017099D01*
X126733656Y-90977712D01*
X126733656Y-90977711D01*
X126734729Y-90977050D01*
X126749824Y-90964753D01*
X126750692Y-90963832D01*
X126750696Y-90963830D01*
X126802170Y-90909269D01*
X126804652Y-90906715D01*
X126849552Y-90861817D01*
X126910876Y-90828333D01*
X126937231Y-90825500D01*
X127042673Y-90825500D01*
X127077268Y-90830424D01*
X127222427Y-90872597D01*
X127222431Y-90872598D01*
X127259306Y-90875500D01*
X127261751Y-90875500D01*
X128888249Y-90875500D01*
X128890694Y-90875500D01*
X128927569Y-90872598D01*
X129085398Y-90826744D01*
X129226865Y-90743081D01*
X129343081Y-90626865D01*
X129426744Y-90485398D01*
X129472598Y-90327569D01*
X129475500Y-90290694D01*
X129475500Y-89859306D01*
X129472598Y-89822431D01*
X129453757Y-89757582D01*
X129426744Y-89664602D01*
X129421653Y-89655993D01*
X129343081Y-89523135D01*
X129226865Y-89406919D01*
X129101315Y-89332669D01*
X129085397Y-89323255D01*
X128927572Y-89277402D01*
X128893128Y-89274691D01*
X128893114Y-89274690D01*
X128890694Y-89274500D01*
X127259306Y-89274500D01*
X127256889Y-89274690D01*
X127256868Y-89274691D01*
X127239227Y-89276080D01*
X127170850Y-89261715D01*
X127121093Y-89212663D01*
X127105499Y-89152462D01*
X127105499Y-88952315D01*
X127105499Y-88598691D01*
X127106809Y-88580732D01*
X127106857Y-88580410D01*
X127110289Y-88556977D01*
X127108314Y-88534401D01*
X127105972Y-88507629D01*
X127105500Y-88496823D01*
X127105500Y-88494901D01*
X127105500Y-88491291D01*
X127101903Y-88460520D01*
X127101536Y-88456929D01*
X127098639Y-88423815D01*
X127094999Y-88382203D01*
X127094998Y-88382201D01*
X127094889Y-88380949D01*
X127090672Y-88361930D01*
X127064592Y-88290274D01*
X127063408Y-88286868D01*
X127039814Y-88215666D01*
X127039812Y-88215663D01*
X127039415Y-88214464D01*
X127030929Y-88196936D01*
X127030237Y-88195884D01*
X127030237Y-88195883D01*
X126989001Y-88133188D01*
X126987086Y-88130181D01*
X126947048Y-88065269D01*
X126934748Y-88050170D01*
X126879273Y-87997832D01*
X126876686Y-87995319D01*
X126366548Y-87485181D01*
X126333063Y-87423858D01*
X126338047Y-87354166D01*
X126366548Y-87309819D01*
X127135067Y-86541300D01*
X128015642Y-85660724D01*
X128029260Y-85648954D01*
X128048530Y-85634610D01*
X128080366Y-85596667D01*
X128081894Y-85595000D01*
X131560000Y-85595000D01*
X132534999Y-85595000D01*
X132534999Y-84845000D01*
X133034999Y-84845000D01*
X133034999Y-85594999D01*
X133035001Y-85595000D01*
X134009998Y-85595000D01*
X134009999Y-85548170D01*
X134009678Y-85541888D01*
X133999506Y-85442304D01*
X133944357Y-85275877D01*
X133852316Y-85126654D01*
X133728345Y-85002683D01*
X133579122Y-84910642D01*
X133412696Y-84855493D01*
X133313109Y-84845319D01*
X133306832Y-84845000D01*
X133034999Y-84845000D01*
X132534999Y-84845000D01*
X132263171Y-84845000D01*
X132256888Y-84845321D01*
X132157304Y-84855493D01*
X131990877Y-84910642D01*
X131841654Y-85002683D01*
X131717683Y-85126654D01*
X131625642Y-85275877D01*
X131570493Y-85442303D01*
X131560319Y-85541890D01*
X131560000Y-85548168D01*
X131560000Y-85595000D01*
X128081894Y-85595000D01*
X128087680Y-85588688D01*
X128088264Y-85588103D01*
X128091591Y-85584777D01*
X128110833Y-85560439D01*
X128113090Y-85557670D01*
X128138983Y-85526812D01*
X128161302Y-85500214D01*
X128161303Y-85500211D01*
X128162115Y-85499244D01*
X128172573Y-85482827D01*
X128173106Y-85481682D01*
X128173111Y-85481677D01*
X128204833Y-85413646D01*
X128206362Y-85410488D01*
X128240040Y-85343433D01*
X128240040Y-85343432D01*
X128240612Y-85342294D01*
X128247000Y-85323914D01*
X128247255Y-85322675D01*
X128247257Y-85322673D01*
X128262447Y-85249103D01*
X128263186Y-85245770D01*
X128280500Y-85172721D01*
X128280500Y-85172716D01*
X128280791Y-85171489D01*
X128282770Y-85152122D01*
X128282733Y-85150859D01*
X128282734Y-85150856D01*
X128280550Y-85075801D01*
X128280499Y-85072332D01*
X128280499Y-83348703D01*
X128281809Y-83330729D01*
X128282361Y-83326960D01*
X128285289Y-83306977D01*
X128280972Y-83257629D01*
X128280500Y-83246823D01*
X128280500Y-83244901D01*
X128280500Y-83241291D01*
X128276903Y-83210520D01*
X128276536Y-83206929D01*
X128269889Y-83130949D01*
X128265672Y-83111930D01*
X128261645Y-83100867D01*
X128239591Y-83040273D01*
X128238408Y-83036868D01*
X128237955Y-83035500D01*
X128214814Y-82965666D01*
X128214812Y-82965663D01*
X128214415Y-82964464D01*
X128205929Y-82946936D01*
X128205237Y-82945884D01*
X128205237Y-82945883D01*
X128164001Y-82883188D01*
X128162086Y-82880181D01*
X128122048Y-82815269D01*
X128109748Y-82800170D01*
X128054273Y-82747832D01*
X128051686Y-82745319D01*
X127105728Y-81799360D01*
X127093946Y-81785727D01*
X127079609Y-81766469D01*
X127041666Y-81734631D01*
X127033691Y-81727323D01*
X127032329Y-81725961D01*
X127029777Y-81723409D01*
X127005444Y-81704169D01*
X127002647Y-81701890D01*
X126944251Y-81652890D01*
X126927821Y-81642422D01*
X126858691Y-81610186D01*
X126855447Y-81608615D01*
X126787306Y-81574394D01*
X126768903Y-81567997D01*
X126694211Y-81552574D01*
X126690692Y-81551794D01*
X126616490Y-81534208D01*
X126597121Y-81532229D01*
X126520869Y-81534448D01*
X126517263Y-81534500D01*
X125162427Y-81534500D01*
X125095388Y-81514815D01*
X125049633Y-81462011D01*
X125044977Y-81444860D01*
X125044271Y-81445095D01*
X125027803Y-81395399D01*
X124984814Y-81265666D01*
X124911904Y-81147459D01*
X124892711Y-81116342D01*
X124768657Y-80992288D01*
X124619334Y-80900186D01*
X124452797Y-80845000D01*
X124353141Y-80834819D01*
X124353122Y-80834818D01*
X124350009Y-80834500D01*
X124346860Y-80834500D01*
X123553141Y-80834500D01*
X123553121Y-80834500D01*
X123549992Y-80834501D01*
X123546860Y-80834820D01*
X123546858Y-80834821D01*
X123447203Y-80845000D01*
X123280665Y-80900186D01*
X123131342Y-80992288D01*
X123007287Y-81116343D01*
X122967905Y-81180192D01*
X122915957Y-81226917D01*
X122846995Y-81238138D01*
X122782913Y-81210295D01*
X122764897Y-81191748D01*
X122749728Y-81172460D01*
X122590963Y-81034888D01*
X122409036Y-80929853D01*
X122210511Y-80861143D01*
X122200000Y-80859631D01*
X122200000Y-81929382D01*
X122130948Y-81875637D01*
X122012576Y-81835000D01*
X121918927Y-81835000D01*
X121826554Y-81850414D01*
X121716486Y-81909981D01*
X121700000Y-81927889D01*
X121700000Y-80863740D01*
X121588593Y-80890768D01*
X121397494Y-80978039D01*
X121226378Y-81099892D01*
X121081407Y-81251933D01*
X120967833Y-81428655D01*
X120889755Y-81623685D01*
X120850000Y-81829962D01*
X120850000Y-81960000D01*
X121670440Y-81960000D01*
X121631722Y-82002059D01*
X121581449Y-82116670D01*
X121571114Y-82241395D01*
X121601837Y-82362719D01*
X121665394Y-82460000D01*
X120850000Y-82460000D01*
X120850000Y-82534450D01*
X120850281Y-82540359D01*
X120864964Y-82694120D01*
X120924149Y-82895687D01*
X121020412Y-83082412D01*
X121150269Y-83247538D01*
X121309036Y-83385111D01*
X121490963Y-83490146D01*
X121689485Y-83558855D01*
X121700000Y-83560366D01*
X121700000Y-82490617D01*
X121769052Y-82544363D01*
X121887424Y-82585000D01*
X121981073Y-82585000D01*
X122073446Y-82569586D01*
X122183514Y-82510019D01*
X122200000Y-82492110D01*
X122200000Y-83556257D01*
X122311410Y-83529229D01*
X122502505Y-83441960D01*
X122673624Y-83320105D01*
X122771479Y-83217478D01*
X122831987Y-83182543D01*
X122901778Y-83185867D01*
X122958692Y-83226395D01*
X122966761Y-83237951D01*
X123007288Y-83303657D01*
X123131342Y-83427711D01*
X123157516Y-83443855D01*
X123280666Y-83519814D01*
X123392016Y-83556712D01*
X123447202Y-83574999D01*
X123546858Y-83585180D01*
X123546859Y-83585180D01*
X123549991Y-83585500D01*
X124350008Y-83585499D01*
X124452797Y-83574999D01*
X124619334Y-83519814D01*
X124768656Y-83427712D01*
X124892712Y-83303656D01*
X124984814Y-83154334D01*
X124996027Y-83120494D01*
X125035801Y-83063050D01*
X125100317Y-83036228D01*
X125113733Y-83035500D01*
X126167770Y-83035500D01*
X126234809Y-83055185D01*
X126255451Y-83071819D01*
X126743181Y-83559548D01*
X126776666Y-83620871D01*
X126779500Y-83647229D01*
X126779500Y-84722769D01*
X126759815Y-84789808D01*
X126743181Y-84810450D01*
X125260003Y-86293628D01*
X125198680Y-86327113D01*
X125128988Y-86322129D01*
X125084641Y-86293628D01*
X125068044Y-86277031D01*
X124923699Y-86187997D01*
X124762707Y-86134650D01*
X124666477Y-86124819D01*
X124666458Y-86124818D01*
X124663345Y-86124500D01*
X124660196Y-86124500D01*
X124119805Y-86124500D01*
X124119785Y-86124500D01*
X124116656Y-86124501D01*
X124113524Y-86124820D01*
X124113522Y-86124821D01*
X124017292Y-86134650D01*
X123856300Y-86187997D01*
X123711955Y-86277031D01*
X123592031Y-86396955D01*
X123502997Y-86541300D01*
X123449650Y-86702292D01*
X123439819Y-86798522D01*
X123439817Y-86798542D01*
X123439500Y-86801655D01*
X123439500Y-86804802D01*
X123439500Y-86804803D01*
X123439500Y-87645194D01*
X123439500Y-87645213D01*
X123439501Y-87648344D01*
X123439820Y-87651476D01*
X123439821Y-87651477D01*
X123449650Y-87747707D01*
X123502997Y-87908699D01*
X123592031Y-88053044D01*
X123706806Y-88167819D01*
X123740291Y-88229142D01*
X123735307Y-88298834D01*
X123693435Y-88354767D01*
X123627971Y-88379184D01*
X123619125Y-88379500D01*
X123398326Y-88379500D01*
X123395213Y-88379817D01*
X123395193Y-88379819D01*
X123299814Y-88389563D01*
X123140214Y-88442450D01*
X122997105Y-88530721D01*
X122964826Y-88563000D01*
X122903503Y-88596485D01*
X122833811Y-88591499D01*
X122789464Y-88562998D01*
X122757581Y-88531114D01*
X122614573Y-88442906D01*
X122455083Y-88390056D01*
X122359775Y-88380319D01*
X122353496Y-88380000D01*
X122339999Y-88380000D01*
X122340000Y-89105000D01*
X122340000Y-90061880D01*
X122347166Y-90075004D01*
X122350000Y-90101362D01*
X122350000Y-92029998D01*
X122384135Y-92064134D01*
X122417620Y-92125457D01*
X122412636Y-92195149D01*
X122384135Y-92239496D01*
X121679358Y-92944272D01*
X121665727Y-92956053D01*
X121646468Y-92970391D01*
X121614635Y-93008328D01*
X121607338Y-93016292D01*
X121605972Y-93017657D01*
X121605950Y-93017681D01*
X121603409Y-93020223D01*
X121601173Y-93023050D01*
X121601171Y-93023053D01*
X121584176Y-93044546D01*
X121581902Y-93047337D01*
X121532894Y-93105744D01*
X121522418Y-93122187D01*
X121490192Y-93191294D01*
X121488622Y-93194536D01*
X121454393Y-93262692D01*
X121447996Y-93281098D01*
X121432573Y-93355788D01*
X121431793Y-93359305D01*
X121414208Y-93433506D01*
X121412229Y-93452879D01*
X121414448Y-93529129D01*
X121414500Y-93532735D01*
X121414500Y-93763860D01*
X121397234Y-93826978D01*
X121392130Y-93835607D01*
X121347335Y-93989793D01*
X121344691Y-94023384D01*
X121344690Y-94023400D01*
X121344500Y-94025819D01*
X121344500Y-94028263D01*
X121344500Y-94028264D01*
X121344500Y-94421756D01*
X121344500Y-94421781D01*
X121344501Y-94424180D01*
X121344689Y-94426571D01*
X121344690Y-94426593D01*
X121347335Y-94460205D01*
X121392130Y-94614392D01*
X121426128Y-94671881D01*
X121443309Y-94739605D01*
X121426128Y-94798119D01*
X121392130Y-94855607D01*
X121347335Y-95009793D01*
X121344691Y-95043384D01*
X121344690Y-95043400D01*
X121344500Y-95045819D01*
X121344500Y-95048263D01*
X121344500Y-95048264D01*
X121344500Y-95441756D01*
X121344500Y-95441781D01*
X121344501Y-95444180D01*
X121344689Y-95446571D01*
X121344690Y-95446593D01*
X121346913Y-95474847D01*
X121347335Y-95480204D01*
X121362988Y-95534082D01*
X121374576Y-95573968D01*
X121379499Y-95608562D01*
X121379500Y-96173336D01*
X121359816Y-96240375D01*
X121326626Y-96274909D01*
X121290860Y-96299953D01*
X121129953Y-96460860D01*
X120999433Y-96647263D01*
X120972382Y-96705275D01*
X120926209Y-96757714D01*
X120859015Y-96776865D01*
X120792134Y-96756649D01*
X120747618Y-96705275D01*
X120747617Y-96705273D01*
X120720568Y-96647266D01*
X120720566Y-96647263D01*
X120590046Y-96460859D01*
X120429140Y-96299953D01*
X120242735Y-96169432D01*
X120036497Y-96073261D01*
X119816689Y-96014364D01*
X119589999Y-95994531D01*
X119363310Y-96014364D01*
X119143502Y-96073261D01*
X118937264Y-96169432D01*
X118750859Y-96299953D01*
X118589953Y-96460859D01*
X118564912Y-96496623D01*
X118510336Y-96540248D01*
X118463337Y-96549500D01*
X117447230Y-96549500D01*
X117380191Y-96529815D01*
X117359553Y-96513185D01*
X117303656Y-96457288D01*
X117303655Y-96457287D01*
X117303654Y-96457286D01*
X117154334Y-96365186D01*
X116987797Y-96310000D01*
X116888141Y-96299819D01*
X116888122Y-96299818D01*
X116885009Y-96299500D01*
X116881860Y-96299500D01*
X115838140Y-96299500D01*
X115838120Y-96299500D01*
X115834992Y-96299501D01*
X115831860Y-96299820D01*
X115831858Y-96299821D01*
X115732203Y-96310000D01*
X115565665Y-96365186D01*
X115416342Y-96457288D01*
X115292288Y-96581342D01*
X115200186Y-96730665D01*
X115145000Y-96897202D01*
X115134819Y-96996858D01*
X115134817Y-96996878D01*
X115134500Y-96999991D01*
X115134500Y-97003138D01*
X115134500Y-97003139D01*
X115134500Y-97596858D01*
X115134500Y-97596877D01*
X115134501Y-97600008D01*
X115134820Y-97603140D01*
X115134821Y-97603141D01*
X115145000Y-97702796D01*
X115200186Y-97869334D01*
X115292288Y-98018657D01*
X115416340Y-98142709D01*
X115416342Y-98142710D01*
X115416344Y-98142712D01*
X115419652Y-98144752D01*
X115466379Y-98196698D01*
X115477603Y-98265660D01*
X115449762Y-98329744D01*
X115419659Y-98355830D01*
X115416654Y-98357683D01*
X115292683Y-98481654D01*
X115200642Y-98630877D01*
X115145493Y-98797303D01*
X115135319Y-98896890D01*
X115135000Y-98903168D01*
X115135000Y-98950000D01*
X117584999Y-98950000D01*
X117584999Y-98903170D01*
X117584678Y-98896888D01*
X117574506Y-98797304D01*
X117519357Y-98630877D01*
X117427316Y-98481654D01*
X117303344Y-98357682D01*
X117300343Y-98355831D01*
X117253618Y-98303883D01*
X117242397Y-98234921D01*
X117270240Y-98170839D01*
X117300345Y-98144753D01*
X117303656Y-98142712D01*
X117359550Y-98086817D01*
X117420871Y-98053334D01*
X117447230Y-98050500D01*
X118463337Y-98050500D01*
X118530376Y-98070185D01*
X118564912Y-98103377D01*
X118589953Y-98139140D01*
X118750859Y-98300046D01*
X118937264Y-98430567D01*
X118937265Y-98430567D01*
X118937266Y-98430568D01*
X119143504Y-98526739D01*
X119363308Y-98585635D01*
X119514436Y-98598856D01*
X119589999Y-98605468D01*
X119589999Y-98605467D01*
X119590000Y-98605468D01*
X119816692Y-98585635D01*
X120036496Y-98526739D01*
X120242734Y-98430568D01*
X120429139Y-98300047D01*
X120590047Y-98139139D01*
X120720568Y-97952734D01*
X120747618Y-97894724D01*
X120793790Y-97842285D01*
X120860983Y-97823133D01*
X120927865Y-97843348D01*
X120972382Y-97894725D01*
X120999431Y-97952733D01*
X121129953Y-98139140D01*
X121290859Y-98300046D01*
X121477264Y-98430567D01*
X121477265Y-98430567D01*
X121477266Y-98430568D01*
X121683504Y-98526739D01*
X121903308Y-98585635D01*
X122054435Y-98598856D01*
X122129999Y-98605468D01*
X122129999Y-98605467D01*
X122130000Y-98605468D01*
X122356692Y-98585635D01*
X122576496Y-98526739D01*
X122782734Y-98430568D01*
X122969139Y-98300047D01*
X123130047Y-98139139D01*
X123260568Y-97952734D01*
X123287618Y-97894724D01*
X123333790Y-97842285D01*
X123400983Y-97823133D01*
X123467865Y-97843348D01*
X123512382Y-97894725D01*
X123539431Y-97952733D01*
X123669953Y-98139140D01*
X123830857Y-98300044D01*
X123830860Y-98300046D01*
X123830861Y-98300047D01*
X123866623Y-98325087D01*
X123910247Y-98379661D01*
X123919500Y-98426662D01*
X123919500Y-99776294D01*
X123918191Y-99794264D01*
X123914711Y-99818023D01*
X123919028Y-99867368D01*
X123919500Y-99878175D01*
X123919500Y-99883709D01*
X123919916Y-99887272D01*
X123919917Y-99887282D01*
X123923098Y-99914496D01*
X123923464Y-99918082D01*
X123930109Y-99994041D01*
X123934329Y-100013071D01*
X123934758Y-100014251D01*
X123934759Y-100014255D01*
X123960413Y-100084742D01*
X123961582Y-100088107D01*
X123985580Y-100160524D01*
X123994075Y-100178072D01*
X124035979Y-100241784D01*
X124037889Y-100244782D01*
X124077288Y-100308656D01*
X124077952Y-100309732D01*
X124090253Y-100324831D01*
X124145710Y-100377152D01*
X124148297Y-100379665D01*
X124804268Y-101035635D01*
X124816044Y-101049260D01*
X124830390Y-101068530D01*
X124868339Y-101100373D01*
X124876314Y-101107681D01*
X124880224Y-101111591D01*
X124901137Y-101128127D01*
X124904541Y-101130818D01*
X124907304Y-101133069D01*
X124964786Y-101181302D01*
X124964788Y-101181303D01*
X124965750Y-101182110D01*
X124982180Y-101192578D01*
X124983322Y-101193110D01*
X124983323Y-101193111D01*
X125051350Y-101224832D01*
X125054527Y-101226371D01*
X125121567Y-101260040D01*
X125122702Y-101260610D01*
X125141085Y-101266999D01*
X125142322Y-101267254D01*
X125142328Y-101267257D01*
X125215852Y-101282437D01*
X125219286Y-101283199D01*
X125265566Y-101294168D01*
X125293506Y-101300791D01*
X125312879Y-101302770D01*
X125314141Y-101302733D01*
X125314145Y-101302734D01*
X125386534Y-101300627D01*
X125389132Y-101300552D01*
X125392738Y-101300500D01*
X132002770Y-101300500D01*
X132069809Y-101320185D01*
X132090451Y-101336819D01*
X132353181Y-101599549D01*
X132386666Y-101660872D01*
X132389500Y-101687230D01*
X132389500Y-102046756D01*
X132389500Y-102046781D01*
X132389501Y-102049180D01*
X132389689Y-102051571D01*
X132389690Y-102051593D01*
X132392335Y-102085205D01*
X132437130Y-102239392D01*
X132493454Y-102334631D01*
X132518865Y-102377598D01*
X132632402Y-102491135D01*
X132770607Y-102572869D01*
X132924796Y-102617665D01*
X132960819Y-102620500D01*
X133359180Y-102620499D01*
X133395204Y-102617665D01*
X133549393Y-102572869D01*
X133606879Y-102538871D01*
X133674601Y-102521688D01*
X133733120Y-102538871D01*
X133754924Y-102551766D01*
X133790606Y-102572869D01*
X133897529Y-102603932D01*
X133944796Y-102617665D01*
X133980819Y-102620500D01*
X134379180Y-102620499D01*
X134415204Y-102617665D01*
X134569393Y-102572869D01*
X134687928Y-102502767D01*
X134751048Y-102485500D01*
X135962649Y-102485500D01*
X136029688Y-102505185D01*
X136075443Y-102557989D01*
X136085939Y-102596247D01*
X136090909Y-102642484D01*
X136111238Y-102696987D01*
X136141204Y-102777331D01*
X136227454Y-102892546D01*
X136342669Y-102978796D01*
X136477517Y-103029091D01*
X136537127Y-103035500D01*
X138632872Y-103035499D01*
X138692483Y-103029091D01*
X138827331Y-102978796D01*
X138942546Y-102892546D01*
X139028796Y-102777331D01*
X139079091Y-102642483D01*
X139085500Y-102582873D01*
X139085499Y-100887128D01*
X139079091Y-100827517D01*
X139028796Y-100692669D01*
X138942546Y-100577454D01*
X138827331Y-100491204D01*
X138692483Y-100440909D01*
X138640816Y-100435354D01*
X138636166Y-100434854D01*
X138636165Y-100434853D01*
X138632873Y-100434500D01*
X138629550Y-100434500D01*
X136540439Y-100434500D01*
X136540420Y-100434500D01*
X136537128Y-100434501D01*
X136533848Y-100434853D01*
X136533840Y-100434854D01*
X136477515Y-100440909D01*
X136342669Y-100491204D01*
X136227454Y-100577454D01*
X136141204Y-100692668D01*
X136090910Y-100827515D01*
X136090909Y-100827517D01*
X136087492Y-100859304D01*
X136085938Y-100873755D01*
X136059200Y-100938306D01*
X136001807Y-100978154D01*
X135962648Y-100984500D01*
X134440303Y-100984500D01*
X134427915Y-100982736D01*
X134427869Y-100983332D01*
X134415204Y-100982335D01*
X134412807Y-100982146D01*
X134381615Y-100979691D01*
X134381600Y-100979690D01*
X134379181Y-100979500D01*
X134376735Y-100979500D01*
X133983243Y-100979500D01*
X133983217Y-100979500D01*
X133980820Y-100979501D01*
X133978408Y-100979690D01*
X133978401Y-100979691D01*
X133944792Y-100982334D01*
X133927941Y-100987230D01*
X133858072Y-100987029D01*
X133799403Y-100949085D01*
X133787811Y-100933250D01*
X133759362Y-100887127D01*
X133752712Y-100876345D01*
X133752710Y-100876343D01*
X133752046Y-100875266D01*
X133739748Y-100860170D01*
X133684273Y-100807832D01*
X133681686Y-100805319D01*
X132940728Y-100064360D01*
X132928946Y-100050727D01*
X132922684Y-100042316D01*
X132914610Y-100031470D01*
X132876667Y-99999631D01*
X132868691Y-99992323D01*
X132867329Y-99990961D01*
X132864777Y-99988409D01*
X132840444Y-99969169D01*
X132837647Y-99966890D01*
X132779251Y-99917890D01*
X132762821Y-99907422D01*
X132693691Y-99875186D01*
X132690447Y-99873615D01*
X132622306Y-99839394D01*
X132603903Y-99832997D01*
X132602673Y-99832743D01*
X132529206Y-99817572D01*
X132525692Y-99816794D01*
X132451490Y-99799208D01*
X132432121Y-99797229D01*
X132355869Y-99799448D01*
X132352263Y-99799500D01*
X125742229Y-99799500D01*
X125675190Y-99779815D01*
X125654548Y-99763181D01*
X125456819Y-99565451D01*
X125423334Y-99504128D01*
X125420500Y-99477770D01*
X125420500Y-98426662D01*
X125440185Y-98359623D01*
X125473375Y-98325088D01*
X125509139Y-98300047D01*
X125670047Y-98139139D01*
X125800568Y-97952734D01*
X125827618Y-97894724D01*
X125873790Y-97842285D01*
X125940983Y-97823133D01*
X126007865Y-97843348D01*
X126052382Y-97894725D01*
X126079431Y-97952733D01*
X126209953Y-98139140D01*
X126370859Y-98300046D01*
X126557264Y-98430567D01*
X126557265Y-98430567D01*
X126557266Y-98430568D01*
X126763504Y-98526739D01*
X126983308Y-98585635D01*
X127210000Y-98605468D01*
X127436692Y-98585635D01*
X127656496Y-98526739D01*
X127862734Y-98430568D01*
X128049139Y-98300047D01*
X128210047Y-98139139D01*
X128340568Y-97952734D01*
X128436739Y-97746496D01*
X128495635Y-97526692D01*
X128515468Y-97300000D01*
X128495635Y-97073308D01*
X128436739Y-96853504D01*
X128340568Y-96647266D01*
X128294410Y-96581344D01*
X128210046Y-96460859D01*
X128049140Y-96299953D01*
X127978376Y-96250404D01*
X127934751Y-96195827D01*
X127925499Y-96148829D01*
X127925499Y-96073261D01*
X127925499Y-95936135D01*
X127942769Y-95873016D01*
X127947869Y-95864393D01*
X127992665Y-95710204D01*
X127995500Y-95674181D01*
X127995499Y-95275820D01*
X127992665Y-95239796D01*
X127966212Y-95148745D01*
X127947869Y-95085606D01*
X127913872Y-95028122D01*
X127896688Y-94960399D01*
X127913872Y-94901878D01*
X127947869Y-94844393D01*
X127961313Y-94798119D01*
X127992665Y-94690204D01*
X127995500Y-94654181D01*
X127995499Y-94255820D01*
X127992665Y-94219796D01*
X127947869Y-94065607D01*
X127866135Y-93927402D01*
X127752598Y-93813865D01*
X127741521Y-93802788D01*
X127743450Y-93800858D01*
X127711605Y-93766749D01*
X127699104Y-93698007D01*
X127725753Y-93633419D01*
X127783090Y-93593491D01*
X127847368Y-93589629D01*
X127973259Y-93615500D01*
X129420721Y-93615500D01*
X129423862Y-93615539D01*
X129511363Y-93617757D01*
X129569432Y-93607348D01*
X129578736Y-93606043D01*
X129637438Y-93600074D01*
X129666467Y-93590965D01*
X129681700Y-93587226D01*
X129711653Y-93581858D01*
X129766426Y-93559978D01*
X129775301Y-93556819D01*
X129792675Y-93551367D01*
X129831588Y-93539159D01*
X129858194Y-93524390D01*
X129872362Y-93517662D01*
X129900617Y-93506377D01*
X129949879Y-93473909D01*
X129957910Y-93469043D01*
X130009502Y-93440409D01*
X130032587Y-93420589D01*
X130045114Y-93411144D01*
X130070519Y-93394402D01*
X130112251Y-93352668D01*
X130119123Y-93346300D01*
X130163895Y-93307866D01*
X130182524Y-93283798D01*
X130192883Y-93272036D01*
X132207390Y-91257528D01*
X132209560Y-91255412D01*
X132273053Y-91195059D01*
X132306759Y-91146630D01*
X132312428Y-91139113D01*
X132314307Y-91136809D01*
X132349698Y-91093407D01*
X132363783Y-91066439D01*
X132371918Y-91053015D01*
X132378373Y-91043740D01*
X132389295Y-91028049D01*
X132412568Y-90973815D01*
X132416588Y-90965350D01*
X132443909Y-90913049D01*
X132452275Y-90883808D01*
X132457539Y-90869019D01*
X132469540Y-90841058D01*
X132481417Y-90783256D01*
X132483652Y-90774148D01*
X132499886Y-90717418D01*
X132502196Y-90687078D01*
X132504376Y-90671540D01*
X132510500Y-90641742D01*
X132510500Y-90582754D01*
X132510858Y-90573339D01*
X132515337Y-90514524D01*
X132511628Y-90485397D01*
X132511493Y-90484339D01*
X132510500Y-90468676D01*
X132510500Y-90325000D01*
X132977704Y-90325000D01*
X132977900Y-90327488D01*
X133023719Y-90485200D01*
X133107317Y-90626557D01*
X133223442Y-90742682D01*
X133364802Y-90826282D01*
X133522506Y-90872099D01*
X133556923Y-90874808D01*
X133561803Y-90875000D01*
X134125000Y-90875000D01*
X134125000Y-90325000D01*
X132977704Y-90325000D01*
X132510500Y-90325000D01*
X132510500Y-89824999D01*
X132977704Y-89824999D01*
X132977705Y-89825000D01*
X134125000Y-89825000D01*
X134125000Y-89275000D01*
X134625000Y-89275000D01*
X134625000Y-89825000D01*
X135772295Y-89825000D01*
X135772295Y-89824999D01*
X135772099Y-89822511D01*
X135726280Y-89664799D01*
X135642682Y-89523442D01*
X135526557Y-89407317D01*
X135385197Y-89323717D01*
X135227493Y-89277900D01*
X135193076Y-89275191D01*
X135188197Y-89275000D01*
X134625000Y-89275000D01*
X134125000Y-89275000D01*
X133561803Y-89275000D01*
X133556923Y-89275191D01*
X133522506Y-89277900D01*
X133364802Y-89323717D01*
X133223442Y-89407317D01*
X133107317Y-89523442D01*
X133023719Y-89664799D01*
X132977900Y-89822511D01*
X132977704Y-89824999D01*
X132510500Y-89824999D01*
X132510500Y-88879500D01*
X132530185Y-88812461D01*
X132582989Y-88766706D01*
X132634500Y-88755500D01*
X140650721Y-88755500D01*
X140653862Y-88755539D01*
X140741363Y-88757757D01*
X140799432Y-88747348D01*
X140808736Y-88746043D01*
X140867438Y-88740074D01*
X140896467Y-88730965D01*
X140911700Y-88727226D01*
X140941653Y-88721858D01*
X140996426Y-88699978D01*
X141005301Y-88696819D01*
X141022675Y-88691367D01*
X141061588Y-88679159D01*
X141088194Y-88664390D01*
X141102362Y-88657662D01*
X141130617Y-88646377D01*
X141179879Y-88613909D01*
X141187910Y-88609043D01*
X141239502Y-88580409D01*
X141262587Y-88560589D01*
X141275114Y-88551144D01*
X141300519Y-88534402D01*
X141342251Y-88492668D01*
X141349123Y-88486300D01*
X141393895Y-88447866D01*
X141412519Y-88423803D01*
X141422880Y-88412039D01*
X142137821Y-87697098D01*
X142199142Y-87663615D01*
X142268834Y-87668599D01*
X142324767Y-87710471D01*
X142349184Y-87775935D01*
X142349500Y-87784780D01*
X142349500Y-87815742D01*
X142349816Y-87818853D01*
X142349817Y-87818865D01*
X142364926Y-87967440D01*
X142390883Y-88050170D01*
X142425841Y-88161588D01*
X142506836Y-88307513D01*
X142524591Y-88339502D01*
X142574586Y-88397739D01*
X142603318Y-88461427D01*
X142604500Y-88478509D01*
X142604500Y-88950500D01*
X142584815Y-89017539D01*
X142532011Y-89063294D01*
X142480501Y-89074500D01*
X142310439Y-89074500D01*
X142310420Y-89074500D01*
X142307128Y-89074501D01*
X142303848Y-89074853D01*
X142303840Y-89074854D01*
X142247515Y-89080909D01*
X142112669Y-89131204D01*
X141997454Y-89217454D01*
X141911204Y-89332668D01*
X141883511Y-89406919D01*
X141860909Y-89467517D01*
X141854500Y-89527127D01*
X141854500Y-89530448D01*
X141854500Y-89530449D01*
X141854500Y-91119560D01*
X141854500Y-91119578D01*
X141854501Y-91122872D01*
X141854853Y-91126152D01*
X141854854Y-91126159D01*
X141860909Y-91182484D01*
X141888497Y-91256451D01*
X141911204Y-91317331D01*
X141973606Y-91400690D01*
X141998023Y-91466152D01*
X141983172Y-91534425D01*
X141973606Y-91549309D01*
X141911205Y-91632666D01*
X141855466Y-91782110D01*
X141853944Y-91781542D01*
X141834579Y-91828302D01*
X141777188Y-91868153D01*
X141738024Y-91874500D01*
X138679499Y-91874500D01*
X138612460Y-91854815D01*
X138566705Y-91802011D01*
X138555499Y-91750500D01*
X138555499Y-90680439D01*
X138555499Y-90680438D01*
X138555499Y-90677128D01*
X138549091Y-90617517D01*
X138498796Y-90482669D01*
X138412546Y-90367454D01*
X138297331Y-90281204D01*
X138162483Y-90230909D01*
X138102873Y-90224500D01*
X138099550Y-90224500D01*
X136010439Y-90224500D01*
X136010420Y-90224500D01*
X136007128Y-90224501D01*
X136003848Y-90224853D01*
X136003840Y-90224854D01*
X135947515Y-90230909D01*
X135812668Y-90281204D01*
X135812669Y-90281204D01*
X135787203Y-90300267D01*
X135721741Y-90324684D01*
X135712894Y-90325000D01*
X134625000Y-90325000D01*
X134625000Y-90875000D01*
X135188197Y-90875000D01*
X135193076Y-90874808D01*
X135227493Y-90872099D01*
X135395905Y-90823171D01*
X135465774Y-90823370D01*
X135524444Y-90861312D01*
X135553288Y-90924950D01*
X135554500Y-90942247D01*
X135554500Y-91747232D01*
X135534815Y-91814271D01*
X135482011Y-91860026D01*
X135412853Y-91869970D01*
X135395905Y-91866308D01*
X135227572Y-91817402D01*
X135193128Y-91814691D01*
X135193114Y-91814690D01*
X135190694Y-91814500D01*
X133559306Y-91814500D01*
X133556886Y-91814690D01*
X133556871Y-91814691D01*
X133522427Y-91817402D01*
X133377268Y-91859576D01*
X133342673Y-91864500D01*
X132943706Y-91864500D01*
X132925736Y-91863191D01*
X132904127Y-91860026D01*
X132901977Y-91859711D01*
X132901976Y-91859711D01*
X132852634Y-91864028D01*
X132841827Y-91864500D01*
X132836291Y-91864500D01*
X132832717Y-91864917D01*
X132832711Y-91864918D01*
X132805487Y-91868099D01*
X132801906Y-91868465D01*
X132725952Y-91875111D01*
X132706926Y-91879329D01*
X132635245Y-91905417D01*
X132631842Y-91906600D01*
X132559474Y-91930580D01*
X132541927Y-91939076D01*
X132478236Y-91980965D01*
X132475196Y-91982902D01*
X132410280Y-92022943D01*
X132395165Y-92035255D01*
X132342848Y-92090708D01*
X132340336Y-92093294D01*
X131789358Y-92644272D01*
X131775727Y-92656053D01*
X131756468Y-92670391D01*
X131724635Y-92708328D01*
X131717338Y-92716292D01*
X131715972Y-92717657D01*
X131715950Y-92717681D01*
X131713409Y-92720223D01*
X131711173Y-92723050D01*
X131711171Y-92723053D01*
X131694176Y-92744546D01*
X131691902Y-92747337D01*
X131642894Y-92805744D01*
X131632418Y-92822187D01*
X131600192Y-92891294D01*
X131598622Y-92894536D01*
X131564393Y-92962692D01*
X131557996Y-92981098D01*
X131542573Y-93055788D01*
X131541793Y-93059305D01*
X131524208Y-93133506D01*
X131522229Y-93152879D01*
X131524448Y-93229129D01*
X131524500Y-93232735D01*
X131524500Y-95182769D01*
X131504815Y-95249808D01*
X131488181Y-95270450D01*
X130950449Y-95808181D01*
X130889126Y-95841666D01*
X130862768Y-95844500D01*
X130568243Y-95844500D01*
X130568217Y-95844500D01*
X130565820Y-95844501D01*
X130563429Y-95844689D01*
X130563406Y-95844690D01*
X130529794Y-95847335D01*
X130375607Y-95892130D01*
X130237401Y-95973865D01*
X130123865Y-96087401D01*
X130042130Y-96225607D01*
X129997335Y-96379793D01*
X129994691Y-96413384D01*
X129994690Y-96413400D01*
X129994500Y-96415819D01*
X129994500Y-96418263D01*
X129994500Y-96418264D01*
X129994500Y-96811756D01*
X129994500Y-96811781D01*
X129994501Y-96814180D01*
X129994689Y-96816571D01*
X129994690Y-96816593D01*
X129997335Y-96850205D01*
X130042130Y-97004392D01*
X130076127Y-97061878D01*
X130093310Y-97129602D01*
X130076128Y-97188118D01*
X130042130Y-97245606D01*
X129997335Y-97399793D01*
X129994691Y-97433384D01*
X129994690Y-97433400D01*
X129994500Y-97435819D01*
X129994500Y-97438263D01*
X129994500Y-97438264D01*
X129994500Y-97831756D01*
X129994500Y-97831781D01*
X129994501Y-97834180D01*
X129994689Y-97836571D01*
X129994690Y-97836593D01*
X129997335Y-97870205D01*
X130042130Y-98024392D01*
X130077463Y-98084136D01*
X130087254Y-98104849D01*
X130105410Y-98154736D01*
X130106592Y-98158137D01*
X130130581Y-98230525D01*
X130139075Y-98248072D01*
X130180979Y-98311784D01*
X130182889Y-98314782D01*
X130222288Y-98378656D01*
X130222952Y-98379732D01*
X130235253Y-98394830D01*
X130236168Y-98395693D01*
X130236170Y-98395696D01*
X130268992Y-98426662D01*
X130290708Y-98447150D01*
X130293295Y-98449663D01*
X130614269Y-98770637D01*
X130626051Y-98784270D01*
X130640390Y-98803531D01*
X130678338Y-98835373D01*
X130686313Y-98842681D01*
X130690223Y-98846591D01*
X130714556Y-98865830D01*
X130717335Y-98868095D01*
X130775752Y-98917113D01*
X130792179Y-98927578D01*
X130861320Y-98959819D01*
X130864567Y-98961391D01*
X130932700Y-98995609D01*
X130951088Y-99002000D01*
X130952322Y-99002254D01*
X130952327Y-99002257D01*
X131025829Y-99017432D01*
X131029307Y-99018204D01*
X131076866Y-99029476D01*
X131103502Y-99035790D01*
X131122876Y-99037769D01*
X131124140Y-99037732D01*
X131124144Y-99037733D01*
X131199110Y-99035552D01*
X131202716Y-99035500D01*
X138672770Y-99035500D01*
X138739809Y-99055185D01*
X138760451Y-99071819D01*
X139548181Y-99859548D01*
X139581666Y-99920871D01*
X139584500Y-99947229D01*
X139584500Y-102922770D01*
X139564815Y-102989809D01*
X139548181Y-103010451D01*
X138525451Y-104033181D01*
X138464128Y-104066666D01*
X138437770Y-104069500D01*
X132187230Y-104069500D01*
X132120191Y-104049815D01*
X132099549Y-104033181D01*
X130465728Y-102399360D01*
X130453946Y-102385727D01*
X130441892Y-102369536D01*
X130439610Y-102366470D01*
X130435846Y-102363312D01*
X130401666Y-102334631D01*
X130393691Y-102327323D01*
X130392329Y-102325961D01*
X130389777Y-102323409D01*
X130365444Y-102304169D01*
X130362647Y-102301890D01*
X130304251Y-102252890D01*
X130287821Y-102242422D01*
X130218691Y-102210186D01*
X130215447Y-102208615D01*
X130147306Y-102174394D01*
X130128903Y-102167997D01*
X130054211Y-102152574D01*
X130050692Y-102151794D01*
X129976490Y-102134208D01*
X129957121Y-102132229D01*
X129880869Y-102134448D01*
X129877263Y-102134500D01*
X124228706Y-102134500D01*
X124210736Y-102133191D01*
X124196853Y-102131157D01*
X124186977Y-102129711D01*
X124186976Y-102129711D01*
X124137631Y-102134028D01*
X124126824Y-102134500D01*
X124121291Y-102134500D01*
X124117730Y-102134916D01*
X124117715Y-102134917D01*
X124090501Y-102138098D01*
X124086916Y-102138464D01*
X124010961Y-102145109D01*
X123991921Y-102149330D01*
X123920232Y-102175421D01*
X123916831Y-102176603D01*
X123844474Y-102200580D01*
X123826927Y-102209075D01*
X123763221Y-102250975D01*
X123760181Y-102252912D01*
X123695280Y-102292944D01*
X123680164Y-102305257D01*
X123627831Y-102360726D01*
X123625319Y-102363312D01*
X122395348Y-103593282D01*
X122334025Y-103626767D01*
X122296860Y-103629129D01*
X122130000Y-103614531D01*
X121903310Y-103634364D01*
X121683502Y-103693261D01*
X121477264Y-103789432D01*
X121290859Y-103919953D01*
X121129951Y-104080861D01*
X121112725Y-104105463D01*
X121058148Y-104149088D01*
X120988649Y-104156280D01*
X120926295Y-104124757D01*
X120890882Y-104064527D01*
X120887861Y-104047592D01*
X120886312Y-104033181D01*
X120884091Y-104012517D01*
X120833796Y-103877669D01*
X120747546Y-103762454D01*
X120632331Y-103676204D01*
X120497483Y-103625909D01*
X120437873Y-103619500D01*
X120434550Y-103619500D01*
X118745439Y-103619500D01*
X118745420Y-103619500D01*
X118742128Y-103619501D01*
X118738848Y-103619853D01*
X118738840Y-103619854D01*
X118682515Y-103625909D01*
X118547669Y-103676204D01*
X118432454Y-103762454D01*
X118346204Y-103877668D01*
X118295910Y-104012515D01*
X118295909Y-104012517D01*
X118289500Y-104072127D01*
X118289500Y-104075448D01*
X118289500Y-104075449D01*
X118289500Y-105764560D01*
X118289500Y-105764578D01*
X118289501Y-105767872D01*
X118289853Y-105771152D01*
X118289854Y-105771159D01*
X118292646Y-105797131D01*
X118295909Y-105827483D01*
X118346204Y-105962331D01*
X118432454Y-106077546D01*
X118547669Y-106163796D01*
X118682517Y-106214091D01*
X118742127Y-106220500D01*
X120437872Y-106220499D01*
X120497483Y-106214091D01*
X120632331Y-106163796D01*
X120747546Y-106077546D01*
X120833796Y-105962331D01*
X120884091Y-105827483D01*
X120887862Y-105792404D01*
X120914598Y-105727856D01*
X120971989Y-105688006D01*
X121041814Y-105685511D01*
X121101904Y-105721162D01*
X121112726Y-105734537D01*
X121129953Y-105759140D01*
X121290859Y-105920046D01*
X121477264Y-106050567D01*
X121477265Y-106050567D01*
X121477266Y-106050568D01*
X121683504Y-106146739D01*
X121903308Y-106205635D01*
X122054435Y-106218856D01*
X122129999Y-106225468D01*
X122129999Y-106225467D01*
X122130000Y-106225468D01*
X122356692Y-106205635D01*
X122576496Y-106146739D01*
X122782734Y-106050568D01*
X122969139Y-105920047D01*
X123130047Y-105759139D01*
X123260568Y-105572734D01*
X123287618Y-105514724D01*
X123333790Y-105462285D01*
X123400983Y-105443133D01*
X123467865Y-105463348D01*
X123512382Y-105514725D01*
X123539431Y-105572733D01*
X123669953Y-105759140D01*
X123830856Y-105920043D01*
X123830859Y-105920045D01*
X123830861Y-105920047D01*
X123865910Y-105944588D01*
X123909534Y-105999164D01*
X123917477Y-106064130D01*
X123914710Y-106083019D01*
X123919028Y-106132368D01*
X123919500Y-106143175D01*
X123919500Y-106148709D01*
X123919916Y-106152272D01*
X123919917Y-106152282D01*
X123923098Y-106179496D01*
X123923464Y-106183082D01*
X123930109Y-106259041D01*
X123934329Y-106278071D01*
X123934758Y-106279251D01*
X123934759Y-106279255D01*
X123960413Y-106349742D01*
X123961582Y-106353107D01*
X123985580Y-106425524D01*
X123994075Y-106443072D01*
X124035979Y-106506784D01*
X124037889Y-106509782D01*
X124075033Y-106570000D01*
X124077952Y-106574732D01*
X124090253Y-106589830D01*
X124091168Y-106590693D01*
X124091170Y-106590696D01*
X124145709Y-106642151D01*
X124148296Y-106644664D01*
X125669267Y-108165634D01*
X125681048Y-108179266D01*
X125695390Y-108198530D01*
X125718324Y-108217774D01*
X125733339Y-108230373D01*
X125741314Y-108237681D01*
X125745223Y-108241590D01*
X125748055Y-108243829D01*
X125748065Y-108243838D01*
X125769542Y-108260819D01*
X125772298Y-108263063D01*
X125829786Y-108311302D01*
X125829788Y-108311303D01*
X125830757Y-108312116D01*
X125847177Y-108322576D01*
X125848321Y-108323109D01*
X125848323Y-108323111D01*
X125916357Y-108354835D01*
X125919456Y-108356335D01*
X125985667Y-108389588D01*
X125987704Y-108390611D01*
X126006084Y-108396998D01*
X126007321Y-108397253D01*
X126007327Y-108397256D01*
X126080862Y-108412439D01*
X126084209Y-108413181D01*
X126157279Y-108430500D01*
X126157281Y-108430500D01*
X126158505Y-108430790D01*
X126177876Y-108432769D01*
X126179140Y-108432732D01*
X126179144Y-108432733D01*
X126254110Y-108430552D01*
X126257716Y-108430500D01*
X135146294Y-108430500D01*
X135164264Y-108431809D01*
X135168320Y-108432402D01*
X135188023Y-108435289D01*
X135237368Y-108430972D01*
X135248176Y-108430500D01*
X135250100Y-108430500D01*
X135253709Y-108430500D01*
X135284550Y-108426894D01*
X135288031Y-108426539D01*
X135362797Y-108419999D01*
X135362797Y-108419998D01*
X135364052Y-108419889D01*
X135383062Y-108415674D01*
X135384250Y-108415241D01*
X135384255Y-108415241D01*
X135454820Y-108389557D01*
X135458095Y-108388419D01*
X135529334Y-108364814D01*
X135529336Y-108364812D01*
X135530536Y-108364415D01*
X135548063Y-108355929D01*
X135549112Y-108355238D01*
X135549117Y-108355237D01*
X135611806Y-108314005D01*
X135614798Y-108312099D01*
X135678656Y-108272712D01*
X135678656Y-108272711D01*
X135679729Y-108272050D01*
X135694824Y-108259753D01*
X135695692Y-108258832D01*
X135695696Y-108258830D01*
X135747184Y-108204254D01*
X135749630Y-108201736D01*
X136055642Y-107895724D01*
X136069260Y-107883954D01*
X136088530Y-107869610D01*
X136120366Y-107831667D01*
X136127680Y-107823688D01*
X136128264Y-107823103D01*
X136131591Y-107819777D01*
X136150833Y-107795439D01*
X136153090Y-107792670D01*
X136167853Y-107775075D01*
X136201302Y-107735214D01*
X136201303Y-107735211D01*
X136202115Y-107734244D01*
X136212573Y-107717827D01*
X136213106Y-107716682D01*
X136213111Y-107716677D01*
X136244833Y-107648646D01*
X136246362Y-107645488D01*
X136280040Y-107578433D01*
X136280040Y-107578432D01*
X136280612Y-107577294D01*
X136287000Y-107558914D01*
X136287255Y-107557675D01*
X136287257Y-107557673D01*
X136302447Y-107484102D01*
X136303182Y-107480784D01*
X136318561Y-107415898D01*
X136353177Y-107355209D01*
X136415110Y-107322866D01*
X136439218Y-107320500D01*
X138455501Y-107320500D01*
X138522540Y-107340185D01*
X138568295Y-107392989D01*
X138579501Y-107444499D01*
X138579501Y-107467872D01*
X138579853Y-107471152D01*
X138579854Y-107471159D01*
X138585909Y-107527484D01*
X138597169Y-107557673D01*
X138636204Y-107662331D01*
X138722454Y-107777546D01*
X138837669Y-107863796D01*
X138972517Y-107914091D01*
X139032127Y-107920500D01*
X140827872Y-107920499D01*
X140887483Y-107914091D01*
X141022331Y-107863796D01*
X141137546Y-107777546D01*
X141223796Y-107662331D01*
X141272810Y-107530916D01*
X141314681Y-107474983D01*
X141380146Y-107450566D01*
X141448419Y-107465418D01*
X141476673Y-107486569D01*
X141598599Y-107608495D01*
X141792170Y-107744035D01*
X142006337Y-107843903D01*
X142234592Y-107905063D01*
X142470000Y-107925659D01*
X142705408Y-107905063D01*
X142933663Y-107843903D01*
X143147830Y-107744035D01*
X143341401Y-107608495D01*
X143508495Y-107441401D01*
X143644035Y-107247830D01*
X143743903Y-107033663D01*
X143805063Y-106805408D01*
X143825659Y-106570000D01*
X143805063Y-106334592D01*
X143743903Y-106106337D01*
X143644035Y-105892171D01*
X143508495Y-105698599D01*
X143341401Y-105531505D01*
X143147830Y-105395965D01*
X142933663Y-105296097D01*
X142872501Y-105279709D01*
X142705407Y-105234936D01*
X142469999Y-105214340D01*
X142234592Y-105234936D01*
X142006336Y-105296097D01*
X141792170Y-105395965D01*
X141598601Y-105531503D01*
X141476673Y-105653431D01*
X141415350Y-105686915D01*
X141345658Y-105681931D01*
X141289725Y-105640059D01*
X141272810Y-105609082D01*
X141259253Y-105572734D01*
X141223796Y-105477669D01*
X141137546Y-105362454D01*
X141022331Y-105276204D01*
X140887483Y-105225909D01*
X140827873Y-105219500D01*
X140824551Y-105219500D01*
X139761229Y-105219500D01*
X139694190Y-105199815D01*
X139648435Y-105147011D01*
X139638491Y-105077853D01*
X139667516Y-105014297D01*
X139673548Y-105007819D01*
X140207863Y-104473504D01*
X140820642Y-103860724D01*
X140834260Y-103848954D01*
X140853530Y-103834610D01*
X140885366Y-103796667D01*
X140892680Y-103788688D01*
X140893264Y-103788103D01*
X140896591Y-103784777D01*
X140915833Y-103760439D01*
X140918090Y-103757670D01*
X140935435Y-103736999D01*
X140966302Y-103700214D01*
X140966303Y-103700211D01*
X140967115Y-103699244D01*
X140977573Y-103682827D01*
X140978106Y-103681682D01*
X140978111Y-103681677D01*
X141009833Y-103613646D01*
X141011362Y-103610488D01*
X141045040Y-103543433D01*
X141045040Y-103543432D01*
X141045612Y-103542294D01*
X141052000Y-103523914D01*
X141052255Y-103522675D01*
X141052257Y-103522673D01*
X141067447Y-103449103D01*
X141068186Y-103445770D01*
X141085500Y-103372721D01*
X141085500Y-103372716D01*
X141085791Y-103371489D01*
X141087770Y-103352121D01*
X141087733Y-103350859D01*
X141087734Y-103350856D01*
X141085552Y-103275868D01*
X141085500Y-103272262D01*
X141085500Y-101985000D01*
X141485000Y-101985000D01*
X141485000Y-102579518D01*
X141485354Y-102586132D01*
X141491400Y-102642371D01*
X141541647Y-102777089D01*
X141627811Y-102892188D01*
X141742910Y-102978352D01*
X141877628Y-103028599D01*
X141933867Y-103034645D01*
X141940482Y-103035000D01*
X142735000Y-103035000D01*
X142735000Y-101985000D01*
X141485000Y-101985000D01*
X141085500Y-101985000D01*
X141085500Y-101485000D01*
X141485000Y-101485000D01*
X142735000Y-101485000D01*
X142735000Y-100435000D01*
X141940482Y-100435000D01*
X141933867Y-100435354D01*
X141877628Y-100441400D01*
X141742910Y-100491647D01*
X141627811Y-100577811D01*
X141541647Y-100692910D01*
X141491400Y-100827628D01*
X141485354Y-100883867D01*
X141485000Y-100890481D01*
X141485000Y-101485000D01*
X141085500Y-101485000D01*
X141085500Y-99648705D01*
X141086809Y-99630735D01*
X141086961Y-99629691D01*
X141090289Y-99606977D01*
X141085972Y-99557629D01*
X141085500Y-99546823D01*
X141085500Y-99544901D01*
X141085500Y-99541291D01*
X141081903Y-99510520D01*
X141081536Y-99506929D01*
X141074889Y-99430949D01*
X141070672Y-99411930D01*
X141044592Y-99340274D01*
X141043408Y-99336868D01*
X141019814Y-99265666D01*
X141019812Y-99265663D01*
X141019415Y-99264464D01*
X141010929Y-99246936D01*
X141010237Y-99245884D01*
X141010237Y-99245883D01*
X140969001Y-99183188D01*
X140967086Y-99180181D01*
X140927048Y-99115269D01*
X140914748Y-99100170D01*
X140859273Y-99047832D01*
X140856686Y-99045319D01*
X139610728Y-97799360D01*
X139598946Y-97785727D01*
X139584609Y-97766469D01*
X139546666Y-97734631D01*
X139538691Y-97727323D01*
X139537329Y-97725961D01*
X139534777Y-97723409D01*
X139510444Y-97704169D01*
X139507647Y-97701890D01*
X139449251Y-97652890D01*
X139432821Y-97642422D01*
X139363691Y-97610186D01*
X139360447Y-97608615D01*
X139292306Y-97574394D01*
X139273903Y-97567997D01*
X139199211Y-97552574D01*
X139195692Y-97551794D01*
X139121490Y-97534208D01*
X139102121Y-97532229D01*
X139025869Y-97534448D01*
X139022263Y-97534500D01*
X131757890Y-97534500D01*
X131690851Y-97514815D01*
X131645096Y-97462011D01*
X131634272Y-97420222D01*
X131632665Y-97399795D01*
X131617892Y-97348947D01*
X131618091Y-97279078D01*
X131656032Y-97220407D01*
X131671870Y-97208813D01*
X131673656Y-97207712D01*
X131673658Y-97207709D01*
X131674732Y-97207047D01*
X131689824Y-97194753D01*
X131690692Y-97193832D01*
X131690696Y-97193830D01*
X131742185Y-97139253D01*
X131744631Y-97136735D01*
X132760641Y-96120725D01*
X132774258Y-96108957D01*
X132793530Y-96094610D01*
X132825372Y-96056661D01*
X132832686Y-96048681D01*
X132833264Y-96048102D01*
X132836591Y-96044776D01*
X132855853Y-96020413D01*
X132858076Y-96017686D01*
X132877505Y-95994532D01*
X132906302Y-95960214D01*
X132906303Y-95960211D01*
X132907115Y-95959244D01*
X132917573Y-95942828D01*
X132918107Y-95941680D01*
X132918111Y-95941677D01*
X132949845Y-95873621D01*
X132951371Y-95870470D01*
X132985040Y-95803433D01*
X132985040Y-95803431D01*
X132985609Y-95802299D01*
X132992002Y-95783906D01*
X133007431Y-95709184D01*
X133008212Y-95705660D01*
X133015102Y-95676593D01*
X133025500Y-95632721D01*
X133025500Y-95632720D01*
X133025791Y-95631493D01*
X133027770Y-95612120D01*
X133027733Y-95610858D01*
X133027734Y-95610855D01*
X133025552Y-95535868D01*
X133025500Y-95532262D01*
X133025500Y-93582228D01*
X133045185Y-93515189D01*
X133061810Y-93494556D01*
X133154550Y-93401816D01*
X133215872Y-93368334D01*
X133242229Y-93365500D01*
X133342673Y-93365500D01*
X133377268Y-93370424D01*
X133522427Y-93412597D01*
X133522431Y-93412598D01*
X133559306Y-93415500D01*
X133561751Y-93415500D01*
X135188249Y-93415500D01*
X135190694Y-93415500D01*
X135227569Y-93412598D01*
X135385398Y-93366744D01*
X135385400Y-93366742D01*
X135395904Y-93363691D01*
X135465774Y-93363890D01*
X135524444Y-93401832D01*
X135553288Y-93465470D01*
X135554500Y-93482767D01*
X135554500Y-94569560D01*
X135554500Y-94569578D01*
X135554501Y-94572872D01*
X135554853Y-94576152D01*
X135554854Y-94576159D01*
X135560909Y-94632484D01*
X135582438Y-94690206D01*
X135611204Y-94767331D01*
X135697454Y-94882546D01*
X135812669Y-94968796D01*
X135947517Y-95019091D01*
X136007127Y-95025500D01*
X136180500Y-95025499D01*
X136247539Y-95045183D01*
X136293294Y-95097987D01*
X136304500Y-95149499D01*
X136304500Y-95286396D01*
X136287887Y-95348396D01*
X136187820Y-95521715D01*
X136129326Y-95701742D01*
X136109540Y-95890000D01*
X136129326Y-96078257D01*
X136187820Y-96258284D01*
X136282466Y-96422216D01*
X136409129Y-96562889D01*
X136562269Y-96674151D01*
X136735197Y-96751144D01*
X136920352Y-96790500D01*
X136920354Y-96790500D01*
X137109648Y-96790500D01*
X137263893Y-96757714D01*
X137294803Y-96751144D01*
X137467730Y-96674151D01*
X137504738Y-96647263D01*
X137620870Y-96562889D01*
X137665628Y-96513181D01*
X137747533Y-96422216D01*
X137842179Y-96258284D01*
X137900674Y-96078256D01*
X137920460Y-95890000D01*
X137900674Y-95701744D01*
X137842179Y-95521716D01*
X137822112Y-95486958D01*
X137805500Y-95424959D01*
X137805500Y-95175000D01*
X141855000Y-95175000D01*
X141855000Y-95719518D01*
X141855354Y-95726132D01*
X141861400Y-95782371D01*
X141911647Y-95917089D01*
X141997811Y-96032188D01*
X142112910Y-96118352D01*
X142247628Y-96168599D01*
X142303867Y-96174645D01*
X142310482Y-96175000D01*
X143105000Y-96175000D01*
X143105000Y-95175000D01*
X141855000Y-95175000D01*
X137805500Y-95175000D01*
X137805500Y-95149499D01*
X137825185Y-95082460D01*
X137877989Y-95036705D01*
X137929500Y-95025499D01*
X138099561Y-95025499D01*
X138102872Y-95025499D01*
X138162483Y-95019091D01*
X138297331Y-94968796D01*
X138412546Y-94882546D01*
X138498796Y-94767331D01*
X138549091Y-94632483D01*
X138555500Y-94572873D01*
X138555500Y-93499499D01*
X138575185Y-93432461D01*
X138627989Y-93386706D01*
X138679500Y-93375500D01*
X140462279Y-93375500D01*
X141738024Y-93375500D01*
X141805063Y-93395185D01*
X141850818Y-93447989D01*
X141858534Y-93476116D01*
X141907171Y-93606518D01*
X141911204Y-93617331D01*
X141973918Y-93701106D01*
X141998335Y-93766569D01*
X141983484Y-93834842D01*
X141973918Y-93849726D01*
X141911648Y-93932908D01*
X141861400Y-94067628D01*
X141855354Y-94123867D01*
X141855000Y-94130481D01*
X141855000Y-94675000D01*
X143481000Y-94675000D01*
X143548039Y-94694685D01*
X143593794Y-94747489D01*
X143605000Y-94799000D01*
X143605000Y-96175000D01*
X144399518Y-96175000D01*
X144406132Y-96174645D01*
X144462371Y-96168599D01*
X144532166Y-96142567D01*
X144601858Y-96137583D01*
X144663181Y-96171067D01*
X144696666Y-96232390D01*
X144699500Y-96258749D01*
X144699500Y-100732599D01*
X144679815Y-100799638D01*
X144627011Y-100845393D01*
X144557853Y-100855337D01*
X144494297Y-100826312D01*
X144459318Y-100775933D01*
X144428352Y-100692910D01*
X144342188Y-100577811D01*
X144227089Y-100491647D01*
X144092371Y-100441400D01*
X144036132Y-100435354D01*
X144029518Y-100435000D01*
X143235000Y-100435000D01*
X143235000Y-103035000D01*
X144029518Y-103035000D01*
X144036132Y-103034645D01*
X144092371Y-103028599D01*
X144227089Y-102978352D01*
X144342188Y-102892188D01*
X144428352Y-102777088D01*
X144459318Y-102694067D01*
X144501189Y-102638133D01*
X144566654Y-102613716D01*
X144634927Y-102628568D01*
X144684332Y-102677973D01*
X144699500Y-102737400D01*
X144699500Y-108575500D01*
X144679815Y-108642539D01*
X144627011Y-108688294D01*
X144575500Y-108699500D01*
X112527736Y-108699500D01*
X112460697Y-108679815D01*
X112414942Y-108627011D01*
X112404998Y-108557853D01*
X112434023Y-108494297D01*
X112460695Y-108471185D01*
X112468328Y-108466281D01*
X112786642Y-108215956D01*
X113079720Y-107936507D01*
X113344907Y-107630464D01*
X113579803Y-107300600D01*
X113782279Y-106949900D01*
X113950503Y-106581543D01*
X114082950Y-106198862D01*
X114178421Y-105805325D01*
X114236052Y-105404494D01*
X114255320Y-105000000D01*
X114236052Y-104595506D01*
X114178421Y-104194675D01*
X114082950Y-103801138D01*
X113950503Y-103418457D01*
X113929053Y-103371489D01*
X113783505Y-103052784D01*
X113783502Y-103052779D01*
X113782279Y-103050100D01*
X113579803Y-102699400D01*
X113576005Y-102694067D01*
X113346619Y-102371940D01*
X113346617Y-102371938D01*
X113344907Y-102369536D01*
X113079720Y-102063493D01*
X112786642Y-101784044D01*
X112468328Y-101533719D01*
X112465855Y-101532129D01*
X112465847Y-101532124D01*
X112130141Y-101316379D01*
X112130134Y-101316375D01*
X112127660Y-101314785D01*
X112125052Y-101313440D01*
X112125046Y-101313437D01*
X111878356Y-101186260D01*
X111767724Y-101129225D01*
X111391779Y-100978719D01*
X111254145Y-100938306D01*
X111006066Y-100865463D01*
X111006051Y-100865459D01*
X111003230Y-100864631D01*
X111000332Y-100864072D01*
X111000326Y-100864071D01*
X110608496Y-100788552D01*
X110608493Y-100788551D01*
X110605595Y-100787993D01*
X110602675Y-100787714D01*
X110602660Y-100787712D01*
X110205411Y-100749780D01*
X110205405Y-100749779D01*
X110202476Y-100749500D01*
X109797524Y-100749500D01*
X109794595Y-100749779D01*
X109794588Y-100749780D01*
X109397339Y-100787712D01*
X109397321Y-100787714D01*
X109394405Y-100787993D01*
X109391509Y-100788551D01*
X109391503Y-100788552D01*
X108999673Y-100864071D01*
X108999663Y-100864073D01*
X108996770Y-100864631D01*
X108993952Y-100865458D01*
X108993933Y-100865463D01*
X108611047Y-100977889D01*
X108611042Y-100977890D01*
X108608221Y-100978719D01*
X108605496Y-100979809D01*
X108605490Y-100979812D01*
X108235018Y-101128127D01*
X108235013Y-101128129D01*
X108232276Y-101129225D01*
X108229655Y-101130575D01*
X108229651Y-101130578D01*
X107874953Y-101313437D01*
X107874938Y-101313445D01*
X107872340Y-101314785D01*
X107869874Y-101316369D01*
X107869858Y-101316379D01*
X107534152Y-101532124D01*
X107534134Y-101532136D01*
X107531672Y-101533719D01*
X107529374Y-101535526D01*
X107529363Y-101535534D01*
X107215670Y-101782225D01*
X107215659Y-101782233D01*
X107213358Y-101784044D01*
X107211235Y-101786067D01*
X107211226Y-101786076D01*
X106922404Y-102061467D01*
X106922395Y-102061475D01*
X106920280Y-102063493D01*
X106918359Y-102065709D01*
X106918358Y-102065711D01*
X106657022Y-102367309D01*
X106657015Y-102367317D01*
X106655093Y-102369536D01*
X106653391Y-102371925D01*
X106653380Y-102371940D01*
X106421914Y-102696987D01*
X106421902Y-102697005D01*
X106420197Y-102699400D01*
X106418725Y-102701949D01*
X106418717Y-102701962D01*
X106226644Y-103034645D01*
X106217721Y-103050100D01*
X106216504Y-103052762D01*
X106216494Y-103052784D01*
X106050723Y-103415770D01*
X106050715Y-103415789D01*
X106049497Y-103418457D01*
X106048535Y-103421236D01*
X106048530Y-103421249D01*
X105918018Y-103798339D01*
X105918013Y-103798353D01*
X105917050Y-103801138D01*
X105916354Y-103804004D01*
X105916353Y-103804010D01*
X105822275Y-104191803D01*
X105822272Y-104191817D01*
X105821579Y-104194675D01*
X105821159Y-104197594D01*
X105821158Y-104197601D01*
X105764366Y-104592593D01*
X105764364Y-104592610D01*
X105763948Y-104595506D01*
X105763808Y-104598438D01*
X105763808Y-104598442D01*
X105760399Y-104670000D01*
X105744680Y-105000000D01*
X105744820Y-105002939D01*
X105758784Y-105296097D01*
X105763948Y-105404494D01*
X105764364Y-105407391D01*
X105764366Y-105407406D01*
X105821158Y-105802398D01*
X105821579Y-105805325D01*
X105822273Y-105808186D01*
X105822275Y-105808196D01*
X105900540Y-106130807D01*
X105917050Y-106198862D01*
X105918015Y-106201652D01*
X105918018Y-106201660D01*
X106048530Y-106578750D01*
X106049497Y-106581543D01*
X106050718Y-106584217D01*
X106050723Y-106584229D01*
X106216494Y-106947215D01*
X106216500Y-106947228D01*
X106217721Y-106949900D01*
X106326408Y-107138152D01*
X106389728Y-107247827D01*
X106420197Y-107300600D01*
X106421908Y-107303003D01*
X106421914Y-107303012D01*
X106653380Y-107628059D01*
X106655093Y-107630464D01*
X106920280Y-107936507D01*
X107213358Y-108215956D01*
X107531672Y-108466281D01*
X107539302Y-108471185D01*
X107585058Y-108523987D01*
X107595002Y-108593145D01*
X107565978Y-108656701D01*
X107507200Y-108694477D01*
X107472264Y-108699500D01*
X100424500Y-108699500D01*
X100357461Y-108679815D01*
X100311706Y-108627011D01*
X100300500Y-108575500D01*
X100300500Y-99450000D01*
X115135001Y-99450000D01*
X115135001Y-99496829D01*
X115135321Y-99503111D01*
X115145493Y-99602695D01*
X115200642Y-99769122D01*
X115292683Y-99918345D01*
X115416654Y-100042316D01*
X115565877Y-100134357D01*
X115732303Y-100189506D01*
X115831890Y-100199680D01*
X115838168Y-100199999D01*
X116109999Y-100199999D01*
X116110000Y-100199998D01*
X116110000Y-99450000D01*
X116610000Y-99450000D01*
X116610000Y-100199999D01*
X116881829Y-100199999D01*
X116888111Y-100199678D01*
X116987695Y-100189506D01*
X117154122Y-100134357D01*
X117303345Y-100042316D01*
X117427316Y-99918345D01*
X117519357Y-99769122D01*
X117574506Y-99602696D01*
X117584680Y-99503109D01*
X117585000Y-99496831D01*
X117585000Y-99450000D01*
X116610000Y-99450000D01*
X116110000Y-99450000D01*
X115135001Y-99450000D01*
X100300500Y-99450000D01*
X100300500Y-91305000D01*
X121162501Y-91305000D01*
X121162501Y-91355993D01*
X121162821Y-91362275D01*
X121172556Y-91457582D01*
X121225406Y-91617073D01*
X121313614Y-91760081D01*
X121432418Y-91878885D01*
X121575426Y-91967093D01*
X121734916Y-92019943D01*
X121830206Y-92029678D01*
X121836522Y-92029999D01*
X121850000Y-92029999D01*
X121850000Y-91305000D01*
X121162501Y-91305000D01*
X100300500Y-91305000D01*
X100300500Y-89605000D01*
X121152501Y-89605000D01*
X121152501Y-89655993D01*
X121152821Y-89662275D01*
X121162556Y-89757582D01*
X121215406Y-89917073D01*
X121303613Y-90060078D01*
X121365852Y-90122317D01*
X121399337Y-90183640D01*
X121394353Y-90253332D01*
X121365853Y-90297680D01*
X121313613Y-90349920D01*
X121225406Y-90492926D01*
X121172556Y-90652416D01*
X121162819Y-90747724D01*
X121162500Y-90754004D01*
X121162500Y-90805000D01*
X121850000Y-90805000D01*
X121850000Y-90348119D01*
X121842834Y-90334996D01*
X121840000Y-90308638D01*
X121840000Y-89605000D01*
X121152501Y-89605000D01*
X100300500Y-89605000D01*
X100300500Y-89105000D01*
X121152500Y-89105000D01*
X121840000Y-89105000D01*
X121840000Y-88379999D01*
X121831820Y-88371821D01*
X121792633Y-88360316D01*
X121746876Y-88307513D01*
X121736931Y-88238355D01*
X121765953Y-88174798D01*
X121771988Y-88168316D01*
X121887575Y-88052729D01*
X121976546Y-87908486D01*
X122029856Y-87747606D01*
X122039680Y-87651445D01*
X122040000Y-87645167D01*
X122040000Y-87475000D01*
X121340000Y-87475000D01*
X121340000Y-88324999D01*
X121344501Y-88329500D01*
X121396211Y-88344684D01*
X121441966Y-88397488D01*
X121451910Y-88466646D01*
X121422885Y-88530202D01*
X121416853Y-88536680D01*
X121303614Y-88649918D01*
X121215406Y-88792926D01*
X121162556Y-88952416D01*
X121152819Y-89047724D01*
X121152500Y-89054004D01*
X121152500Y-89105000D01*
X100300500Y-89105000D01*
X100300500Y-87475000D01*
X120140001Y-87475000D01*
X120140001Y-87645165D01*
X120140321Y-87651447D01*
X120150143Y-87747605D01*
X120203453Y-87908486D01*
X120292426Y-88052732D01*
X120412267Y-88172573D01*
X120556513Y-88261546D01*
X120717393Y-88314856D01*
X120813536Y-88324678D01*
X120819851Y-88324999D01*
X120840000Y-88324999D01*
X120840000Y-87475000D01*
X120140001Y-87475000D01*
X100300500Y-87475000D01*
X100300500Y-86975000D01*
X120140000Y-86975000D01*
X120840000Y-86975000D01*
X120840000Y-86125000D01*
X121340000Y-86125000D01*
X121340000Y-86975000D01*
X122039999Y-86975000D01*
X122039999Y-86804834D01*
X122039678Y-86798552D01*
X122029856Y-86702394D01*
X121976546Y-86541513D01*
X121887573Y-86397267D01*
X121767732Y-86277426D01*
X121623486Y-86188453D01*
X121462606Y-86135143D01*
X121366445Y-86125319D01*
X121360168Y-86125000D01*
X121340000Y-86125000D01*
X120840000Y-86125000D01*
X120819836Y-86125000D01*
X120813550Y-86125321D01*
X120717394Y-86135143D01*
X120556513Y-86188453D01*
X120412267Y-86277426D01*
X120292426Y-86397267D01*
X120203453Y-86541513D01*
X120150143Y-86702393D01*
X120140319Y-86798554D01*
X120140000Y-86804832D01*
X120140000Y-86975000D01*
X100300500Y-86975000D01*
X100300500Y-82449450D01*
X105025000Y-82449450D01*
X105025281Y-82455359D01*
X105039964Y-82609120D01*
X105099149Y-82810687D01*
X105195412Y-82997412D01*
X105325269Y-83162538D01*
X105484036Y-83300111D01*
X105665963Y-83405146D01*
X105864485Y-83473855D01*
X105875000Y-83475366D01*
X105874999Y-82405617D01*
X105944052Y-82459363D01*
X106062424Y-82500000D01*
X106156073Y-82500000D01*
X106248446Y-82484586D01*
X106358514Y-82425019D01*
X106375000Y-82407110D01*
X106375000Y-83471257D01*
X106486410Y-83444229D01*
X106677505Y-83356960D01*
X106848624Y-83235105D01*
X106946479Y-83132478D01*
X107006987Y-83097543D01*
X107076778Y-83100867D01*
X107133692Y-83141395D01*
X107141761Y-83152951D01*
X107182288Y-83218657D01*
X107306342Y-83342711D01*
X107324956Y-83354192D01*
X107455666Y-83434814D01*
X107567016Y-83471712D01*
X107622202Y-83489999D01*
X107721858Y-83500180D01*
X107721859Y-83500180D01*
X107724991Y-83500500D01*
X108525008Y-83500499D01*
X108627797Y-83489999D01*
X108794334Y-83434814D01*
X108943656Y-83342712D01*
X109067712Y-83218656D01*
X109159814Y-83069334D01*
X109214999Y-82902797D01*
X109225500Y-82800009D01*
X109225499Y-81449992D01*
X109214999Y-81347203D01*
X109159814Y-81180666D01*
X109094525Y-81074815D01*
X109067711Y-81031342D01*
X108943657Y-80907288D01*
X108794334Y-80815186D01*
X108627797Y-80760000D01*
X108528141Y-80749819D01*
X108528122Y-80749818D01*
X108525009Y-80749500D01*
X108521860Y-80749500D01*
X107728141Y-80749500D01*
X107728121Y-80749500D01*
X107724992Y-80749501D01*
X107721860Y-80749820D01*
X107721858Y-80749821D01*
X107622203Y-80760000D01*
X107455665Y-80815186D01*
X107306342Y-80907288D01*
X107182287Y-81031343D01*
X107142905Y-81095192D01*
X107090957Y-81141917D01*
X107021995Y-81153138D01*
X106957913Y-81125295D01*
X106939897Y-81106748D01*
X106924728Y-81087460D01*
X106765963Y-80949888D01*
X106584036Y-80844853D01*
X106385511Y-80776143D01*
X106375000Y-80774631D01*
X106375000Y-81844382D01*
X106305948Y-81790637D01*
X106187576Y-81750000D01*
X106093927Y-81750000D01*
X106001554Y-81765414D01*
X105891486Y-81824981D01*
X105875000Y-81842889D01*
X105875000Y-80778740D01*
X105763593Y-80805768D01*
X105572494Y-80893039D01*
X105401378Y-81014892D01*
X105256407Y-81166933D01*
X105142833Y-81343655D01*
X105064755Y-81538685D01*
X105025000Y-81744962D01*
X105025000Y-81875000D01*
X105845440Y-81875000D01*
X105806722Y-81917059D01*
X105756449Y-82031670D01*
X105746114Y-82156395D01*
X105776837Y-82277719D01*
X105840394Y-82375000D01*
X105025000Y-82375000D01*
X105025000Y-82449450D01*
X100300500Y-82449450D01*
X100300500Y-80424500D01*
X100320185Y-80357461D01*
X100372989Y-80311706D01*
X100424500Y-80300500D01*
X144575500Y-80300500D01*
X144642539Y-80320185D01*
G37*
%TD.AperFunction*%
%TA.AperFunction,Conductor*%
G36*
X129594809Y-103655185D02*
G01*
X129615451Y-103671819D01*
X131249267Y-105305634D01*
X131261048Y-105319266D01*
X131275389Y-105338529D01*
X131275390Y-105338530D01*
X131313339Y-105370373D01*
X131321314Y-105377681D01*
X131325223Y-105381590D01*
X131328055Y-105383829D01*
X131328065Y-105383838D01*
X131349542Y-105400819D01*
X131352298Y-105403063D01*
X131409786Y-105451302D01*
X131409788Y-105451303D01*
X131410757Y-105452116D01*
X131427177Y-105462576D01*
X131428321Y-105463109D01*
X131428323Y-105463111D01*
X131496357Y-105494835D01*
X131499456Y-105496335D01*
X131566567Y-105530040D01*
X131567704Y-105530611D01*
X131586084Y-105536998D01*
X131587321Y-105537253D01*
X131587327Y-105537256D01*
X131660862Y-105552439D01*
X131664209Y-105553181D01*
X131737279Y-105570500D01*
X131737281Y-105570500D01*
X131738505Y-105570790D01*
X131757876Y-105572769D01*
X131759140Y-105572732D01*
X131759144Y-105572733D01*
X131834110Y-105570552D01*
X131837716Y-105570500D01*
X134091534Y-105570500D01*
X134158573Y-105590185D01*
X134204328Y-105642989D01*
X134214272Y-105712147D01*
X134185247Y-105775703D01*
X134154655Y-105801232D01*
X134022709Y-105879264D01*
X133909264Y-105992709D01*
X133827593Y-106130807D01*
X133782833Y-106284872D01*
X133780069Y-106320000D01*
X134675500Y-106320000D01*
X134742539Y-106339685D01*
X134788294Y-106392489D01*
X134799500Y-106444000D01*
X134799501Y-106696000D01*
X134779817Y-106763039D01*
X134727013Y-106808794D01*
X134675501Y-106820000D01*
X133780069Y-106820000D01*
X133771015Y-106829792D01*
X133763799Y-106864147D01*
X133714748Y-106913905D01*
X133654545Y-106929500D01*
X126607229Y-106929500D01*
X126540190Y-106909815D01*
X126519548Y-106893181D01*
X125615457Y-105989090D01*
X125581972Y-105927767D01*
X125586956Y-105858075D01*
X125615454Y-105813731D01*
X125670047Y-105759139D01*
X125800568Y-105572734D01*
X125827893Y-105514134D01*
X125874065Y-105461695D01*
X125941258Y-105442543D01*
X126008139Y-105462758D01*
X126052657Y-105514133D01*
X126079866Y-105572482D01*
X126210341Y-105758819D01*
X126371180Y-105919658D01*
X126557519Y-106050134D01*
X126763673Y-106146266D01*
X126959999Y-106198871D01*
X126960000Y-106198871D01*
X126960000Y-105235686D01*
X126971955Y-105247641D01*
X127084852Y-105305165D01*
X127178519Y-105320000D01*
X127241481Y-105320000D01*
X127335148Y-105305165D01*
X127448045Y-105247641D01*
X127460000Y-105235685D01*
X127460000Y-106198871D01*
X127656326Y-106146266D01*
X127862480Y-106050134D01*
X128048819Y-105919658D01*
X128209658Y-105758819D01*
X128340134Y-105572480D01*
X128436266Y-105366326D01*
X128488872Y-105170000D01*
X127525686Y-105170000D01*
X127537641Y-105158045D01*
X127595165Y-105045148D01*
X127614986Y-104920000D01*
X127595165Y-104794852D01*
X127537641Y-104681955D01*
X127525686Y-104670000D01*
X128488872Y-104670000D01*
X128488871Y-104669999D01*
X128436266Y-104473673D01*
X128340134Y-104267519D01*
X128209658Y-104081180D01*
X128048819Y-103920341D01*
X127964179Y-103861075D01*
X127920554Y-103806498D01*
X127913362Y-103736999D01*
X127944884Y-103674645D01*
X128005114Y-103639231D01*
X128035303Y-103635500D01*
X129527770Y-103635500D01*
X129594809Y-103655185D01*
G37*
%TD.AperFunction*%
%TD*%
M02*
