M48
; DRILL file {KiCad 7.0.2} date Fri 13 Oct 04:59:56 2023
; FORMAT={-:-/ absolute / metric / decimal}
; #@! TF.CreationDate,2023-10-13T04:59:56+05:00
; #@! TF.GenerationSoftware,Kicad,Pcbnew,7.0.2
; #@! TF.FileFunction,Plated,1,2,PTH
FMAT,2
METRIC
; #@! TA.AperFunction,Plated,PTH,ViaDrill
T1C0.400
; #@! TA.AperFunction,Plated,PTH,ComponentDrill
T2C0.750
; #@! TA.AperFunction,Plated,PTH,ComponentDrill
T3C0.800
; #@! TA.AperFunction,Plated,PTH,ComponentDrill
T4C1.000
; #@! TA.AperFunction,Plated,PTH,ComponentDrill
T5C4.300
%
G90
G05
T1
X113.31Y-82.205
X113.675Y-95.135
X114.015Y-91.315
X115.485Y-102.97
X116.025Y-106.28
X116.42Y-82.35
X116.675Y-93.975
X117.1Y-85.66
X119.0Y-88.35
X120.72Y-107.72
X124.765Y-93.445
X129.455Y-86.77
X129.745Y-82.065
X130.53Y-94.605
X132.8Y-82.12
X134.265Y-95.31
X134.935Y-103.285
X135.075Y-99.68
X137.015Y-95.89
X137.119Y-92.625
X139.438Y-90.444
X139.595Y-94.962
X140.71Y-90.455
X141.14Y-94.99
X143.01Y-98.73
T2
X106.125Y-82.125
X108.125Y-82.125
X121.95Y-82.21
X123.95Y-82.21
X137.77Y-82.095
X139.77Y-82.095
T3
X119.59Y-97.3
X119.59Y-104.92
X122.13Y-97.3
X122.13Y-104.92
X124.67Y-97.3
X124.67Y-104.92
X127.21Y-97.3
X127.21Y-104.92
T4
X139.93Y-106.57
X142.47Y-106.57
T5
X110.0Y-105.0
T0
M30
