%TF.GenerationSoftware,KiCad,Pcbnew,7.0.2*%
%TF.CreationDate,2023-10-13T05:00:02+05:00*%
%TF.ProjectId,IM100_Override,494d3130-305f-44f7-9665-72726964652e,V1.0*%
%TF.SameCoordinates,Original*%
%TF.FileFunction,Legend,Top*%
%TF.FilePolarity,Positive*%
%FSLAX46Y46*%
G04 Gerber Fmt 4.6, Leading zero omitted, Abs format (unit mm)*
G04 Created by KiCad (PCBNEW 7.0.2) date 2023-10-13 05:00:02*
%MOMM*%
%LPD*%
G01*
G04 APERTURE LIST*
%ADD10C,0.150000*%
%ADD11C,0.120000*%
G04 APERTURE END LIST*
D10*
X137728095Y-98873809D02*
X137870952Y-98921428D01*
X137870952Y-98921428D02*
X137918571Y-98969047D01*
X137918571Y-98969047D02*
X137966190Y-99064285D01*
X137966190Y-99064285D02*
X137966190Y-99207142D01*
X137966190Y-99207142D02*
X137918571Y-99302380D01*
X137918571Y-99302380D02*
X137870952Y-99350000D01*
X137870952Y-99350000D02*
X137775714Y-99397619D01*
X137775714Y-99397619D02*
X137394762Y-99397619D01*
X137394762Y-99397619D02*
X137394762Y-98397619D01*
X137394762Y-98397619D02*
X137728095Y-98397619D01*
X137728095Y-98397619D02*
X137823333Y-98445238D01*
X137823333Y-98445238D02*
X137870952Y-98492857D01*
X137870952Y-98492857D02*
X137918571Y-98588095D01*
X137918571Y-98588095D02*
X137918571Y-98683333D01*
X137918571Y-98683333D02*
X137870952Y-98778571D01*
X137870952Y-98778571D02*
X137823333Y-98826190D01*
X137823333Y-98826190D02*
X137728095Y-98873809D01*
X137728095Y-98873809D02*
X137394762Y-98873809D01*
X138394762Y-98397619D02*
X138394762Y-99207142D01*
X138394762Y-99207142D02*
X138442381Y-99302380D01*
X138442381Y-99302380D02*
X138490000Y-99350000D01*
X138490000Y-99350000D02*
X138585238Y-99397619D01*
X138585238Y-99397619D02*
X138775714Y-99397619D01*
X138775714Y-99397619D02*
X138870952Y-99350000D01*
X138870952Y-99350000D02*
X138918571Y-99302380D01*
X138918571Y-99302380D02*
X138966190Y-99207142D01*
X138966190Y-99207142D02*
X138966190Y-98397619D01*
X139299524Y-98397619D02*
X139870952Y-98397619D01*
X139585238Y-99397619D02*
X139585238Y-98397619D01*
X140061429Y-98397619D02*
X140632857Y-98397619D01*
X140347143Y-99397619D02*
X140347143Y-98397619D01*
X141156667Y-98397619D02*
X141347143Y-98397619D01*
X141347143Y-98397619D02*
X141442381Y-98445238D01*
X141442381Y-98445238D02*
X141537619Y-98540476D01*
X141537619Y-98540476D02*
X141585238Y-98730952D01*
X141585238Y-98730952D02*
X141585238Y-99064285D01*
X141585238Y-99064285D02*
X141537619Y-99254761D01*
X141537619Y-99254761D02*
X141442381Y-99350000D01*
X141442381Y-99350000D02*
X141347143Y-99397619D01*
X141347143Y-99397619D02*
X141156667Y-99397619D01*
X141156667Y-99397619D02*
X141061429Y-99350000D01*
X141061429Y-99350000D02*
X140966191Y-99254761D01*
X140966191Y-99254761D02*
X140918572Y-99064285D01*
X140918572Y-99064285D02*
X140918572Y-98730952D01*
X140918572Y-98730952D02*
X140966191Y-98540476D01*
X140966191Y-98540476D02*
X141061429Y-98445238D01*
X141061429Y-98445238D02*
X141156667Y-98397619D01*
X142013810Y-99397619D02*
X142013810Y-98397619D01*
X142013810Y-98397619D02*
X142585238Y-99397619D01*
X142585238Y-99397619D02*
X142585238Y-98397619D01*
X100000000Y-84000000D02*
X145000000Y-84000000D01*
%TO.C,H1*%
X109118095Y-105542619D02*
X109118095Y-104542619D01*
X109118095Y-105018809D02*
X109689523Y-105018809D01*
X109689523Y-105542619D02*
X109689523Y-104542619D01*
X110689523Y-105542619D02*
X110118095Y-105542619D01*
X110403809Y-105542619D02*
X110403809Y-104542619D01*
X110403809Y-104542619D02*
X110308571Y-104685476D01*
X110308571Y-104685476D02*
X110213333Y-104780714D01*
X110213333Y-104780714D02*
X110118095Y-104828333D01*
%TO.C,U3*%
X139543095Y-92117619D02*
X139543095Y-92927142D01*
X139543095Y-92927142D02*
X139590714Y-93022380D01*
X139590714Y-93022380D02*
X139638333Y-93070000D01*
X139638333Y-93070000D02*
X139733571Y-93117619D01*
X139733571Y-93117619D02*
X139924047Y-93117619D01*
X139924047Y-93117619D02*
X140019285Y-93070000D01*
X140019285Y-93070000D02*
X140066904Y-93022380D01*
X140066904Y-93022380D02*
X140114523Y-92927142D01*
X140114523Y-92927142D02*
X140114523Y-92117619D01*
X140495476Y-92117619D02*
X141114523Y-92117619D01*
X141114523Y-92117619D02*
X140781190Y-92498571D01*
X140781190Y-92498571D02*
X140924047Y-92498571D01*
X140924047Y-92498571D02*
X141019285Y-92546190D01*
X141019285Y-92546190D02*
X141066904Y-92593809D01*
X141066904Y-92593809D02*
X141114523Y-92689047D01*
X141114523Y-92689047D02*
X141114523Y-92927142D01*
X141114523Y-92927142D02*
X141066904Y-93022380D01*
X141066904Y-93022380D02*
X141019285Y-93070000D01*
X141019285Y-93070000D02*
X140924047Y-93117619D01*
X140924047Y-93117619D02*
X140638333Y-93117619D01*
X140638333Y-93117619D02*
X140543095Y-93070000D01*
X140543095Y-93070000D02*
X140495476Y-93022380D01*
%TO.C,U2*%
X130518095Y-90827619D02*
X130518095Y-91637142D01*
X130518095Y-91637142D02*
X130565714Y-91732380D01*
X130565714Y-91732380D02*
X130613333Y-91780000D01*
X130613333Y-91780000D02*
X130708571Y-91827619D01*
X130708571Y-91827619D02*
X130899047Y-91827619D01*
X130899047Y-91827619D02*
X130994285Y-91780000D01*
X130994285Y-91780000D02*
X131041904Y-91732380D01*
X131041904Y-91732380D02*
X131089523Y-91637142D01*
X131089523Y-91637142D02*
X131089523Y-90827619D01*
X131518095Y-90922857D02*
X131565714Y-90875238D01*
X131565714Y-90875238D02*
X131660952Y-90827619D01*
X131660952Y-90827619D02*
X131899047Y-90827619D01*
X131899047Y-90827619D02*
X131994285Y-90875238D01*
X131994285Y-90875238D02*
X132041904Y-90922857D01*
X132041904Y-90922857D02*
X132089523Y-91018095D01*
X132089523Y-91018095D02*
X132089523Y-91113333D01*
X132089523Y-91113333D02*
X132041904Y-91256190D01*
X132041904Y-91256190D02*
X131470476Y-91827619D01*
X131470476Y-91827619D02*
X132089523Y-91827619D01*
%TO.C,U1*%
X122862619Y-101856904D02*
X123672142Y-101856904D01*
X123672142Y-101856904D02*
X123767380Y-101809285D01*
X123767380Y-101809285D02*
X123815000Y-101761666D01*
X123815000Y-101761666D02*
X123862619Y-101666428D01*
X123862619Y-101666428D02*
X123862619Y-101475952D01*
X123862619Y-101475952D02*
X123815000Y-101380714D01*
X123815000Y-101380714D02*
X123767380Y-101333095D01*
X123767380Y-101333095D02*
X123672142Y-101285476D01*
X123672142Y-101285476D02*
X122862619Y-101285476D01*
X123862619Y-100285476D02*
X123862619Y-100856904D01*
X123862619Y-100571190D02*
X122862619Y-100571190D01*
X122862619Y-100571190D02*
X123005476Y-100666428D01*
X123005476Y-100666428D02*
X123100714Y-100761666D01*
X123100714Y-100761666D02*
X123148333Y-100856904D01*
%TO.C,SW1*%
X139446666Y-102005500D02*
X139546666Y-102038833D01*
X139546666Y-102038833D02*
X139713333Y-102038833D01*
X139713333Y-102038833D02*
X139779999Y-102005500D01*
X139779999Y-102005500D02*
X139813333Y-101972166D01*
X139813333Y-101972166D02*
X139846666Y-101905500D01*
X139846666Y-101905500D02*
X139846666Y-101838833D01*
X139846666Y-101838833D02*
X139813333Y-101772166D01*
X139813333Y-101772166D02*
X139779999Y-101738833D01*
X139779999Y-101738833D02*
X139713333Y-101705500D01*
X139713333Y-101705500D02*
X139579999Y-101672166D01*
X139579999Y-101672166D02*
X139513333Y-101638833D01*
X139513333Y-101638833D02*
X139479999Y-101605500D01*
X139479999Y-101605500D02*
X139446666Y-101538833D01*
X139446666Y-101538833D02*
X139446666Y-101472166D01*
X139446666Y-101472166D02*
X139479999Y-101405500D01*
X139479999Y-101405500D02*
X139513333Y-101372166D01*
X139513333Y-101372166D02*
X139579999Y-101338833D01*
X139579999Y-101338833D02*
X139746666Y-101338833D01*
X139746666Y-101338833D02*
X139846666Y-101372166D01*
X140080000Y-101338833D02*
X140246666Y-102038833D01*
X140246666Y-102038833D02*
X140380000Y-101538833D01*
X140380000Y-101538833D02*
X140513333Y-102038833D01*
X140513333Y-102038833D02*
X140680000Y-101338833D01*
X141313333Y-102038833D02*
X140913333Y-102038833D01*
X141113333Y-102038833D02*
X141113333Y-101338833D01*
X141113333Y-101338833D02*
X141046666Y-101438833D01*
X141046666Y-101438833D02*
X140980000Y-101505500D01*
X140980000Y-101505500D02*
X140913333Y-101538833D01*
%TO.C,R6*%
X134893333Y-108202619D02*
X134560000Y-107726428D01*
X134321905Y-108202619D02*
X134321905Y-107202619D01*
X134321905Y-107202619D02*
X134702857Y-107202619D01*
X134702857Y-107202619D02*
X134798095Y-107250238D01*
X134798095Y-107250238D02*
X134845714Y-107297857D01*
X134845714Y-107297857D02*
X134893333Y-107393095D01*
X134893333Y-107393095D02*
X134893333Y-107535952D01*
X134893333Y-107535952D02*
X134845714Y-107631190D01*
X134845714Y-107631190D02*
X134798095Y-107678809D01*
X134798095Y-107678809D02*
X134702857Y-107726428D01*
X134702857Y-107726428D02*
X134321905Y-107726428D01*
X135750476Y-107202619D02*
X135560000Y-107202619D01*
X135560000Y-107202619D02*
X135464762Y-107250238D01*
X135464762Y-107250238D02*
X135417143Y-107297857D01*
X135417143Y-107297857D02*
X135321905Y-107440714D01*
X135321905Y-107440714D02*
X135274286Y-107631190D01*
X135274286Y-107631190D02*
X135274286Y-108012142D01*
X135274286Y-108012142D02*
X135321905Y-108107380D01*
X135321905Y-108107380D02*
X135369524Y-108155000D01*
X135369524Y-108155000D02*
X135464762Y-108202619D01*
X135464762Y-108202619D02*
X135655238Y-108202619D01*
X135655238Y-108202619D02*
X135750476Y-108155000D01*
X135750476Y-108155000D02*
X135798095Y-108107380D01*
X135798095Y-108107380D02*
X135845714Y-108012142D01*
X135845714Y-108012142D02*
X135845714Y-107774047D01*
X135845714Y-107774047D02*
X135798095Y-107678809D01*
X135798095Y-107678809D02*
X135750476Y-107631190D01*
X135750476Y-107631190D02*
X135655238Y-107583571D01*
X135655238Y-107583571D02*
X135464762Y-107583571D01*
X135464762Y-107583571D02*
X135369524Y-107631190D01*
X135369524Y-107631190D02*
X135321905Y-107678809D01*
X135321905Y-107678809D02*
X135274286Y-107774047D01*
%TO.C,R5*%
X125617619Y-92031666D02*
X125141428Y-92364999D01*
X125617619Y-92603094D02*
X124617619Y-92603094D01*
X124617619Y-92603094D02*
X124617619Y-92222142D01*
X124617619Y-92222142D02*
X124665238Y-92126904D01*
X124665238Y-92126904D02*
X124712857Y-92079285D01*
X124712857Y-92079285D02*
X124808095Y-92031666D01*
X124808095Y-92031666D02*
X124950952Y-92031666D01*
X124950952Y-92031666D02*
X125046190Y-92079285D01*
X125046190Y-92079285D02*
X125093809Y-92126904D01*
X125093809Y-92126904D02*
X125141428Y-92222142D01*
X125141428Y-92222142D02*
X125141428Y-92603094D01*
X124617619Y-91126904D02*
X124617619Y-91603094D01*
X124617619Y-91603094D02*
X125093809Y-91650713D01*
X125093809Y-91650713D02*
X125046190Y-91603094D01*
X125046190Y-91603094D02*
X124998571Y-91507856D01*
X124998571Y-91507856D02*
X124998571Y-91269761D01*
X124998571Y-91269761D02*
X125046190Y-91174523D01*
X125046190Y-91174523D02*
X125093809Y-91126904D01*
X125093809Y-91126904D02*
X125189047Y-91079285D01*
X125189047Y-91079285D02*
X125427142Y-91079285D01*
X125427142Y-91079285D02*
X125522380Y-91126904D01*
X125522380Y-91126904D02*
X125570000Y-91174523D01*
X125570000Y-91174523D02*
X125617619Y-91269761D01*
X125617619Y-91269761D02*
X125617619Y-91507856D01*
X125617619Y-91507856D02*
X125570000Y-91603094D01*
X125570000Y-91603094D02*
X125522380Y-91650713D01*
%TO.C,R4*%
X133503333Y-101092619D02*
X133170000Y-100616428D01*
X132931905Y-101092619D02*
X132931905Y-100092619D01*
X132931905Y-100092619D02*
X133312857Y-100092619D01*
X133312857Y-100092619D02*
X133408095Y-100140238D01*
X133408095Y-100140238D02*
X133455714Y-100187857D01*
X133455714Y-100187857D02*
X133503333Y-100283095D01*
X133503333Y-100283095D02*
X133503333Y-100425952D01*
X133503333Y-100425952D02*
X133455714Y-100521190D01*
X133455714Y-100521190D02*
X133408095Y-100568809D01*
X133408095Y-100568809D02*
X133312857Y-100616428D01*
X133312857Y-100616428D02*
X132931905Y-100616428D01*
X134360476Y-100425952D02*
X134360476Y-101092619D01*
X134122381Y-100045000D02*
X133884286Y-100759285D01*
X133884286Y-100759285D02*
X134503333Y-100759285D01*
%TO.C,R3*%
X126467619Y-95131666D02*
X125991428Y-95464999D01*
X126467619Y-95703094D02*
X125467619Y-95703094D01*
X125467619Y-95703094D02*
X125467619Y-95322142D01*
X125467619Y-95322142D02*
X125515238Y-95226904D01*
X125515238Y-95226904D02*
X125562857Y-95179285D01*
X125562857Y-95179285D02*
X125658095Y-95131666D01*
X125658095Y-95131666D02*
X125800952Y-95131666D01*
X125800952Y-95131666D02*
X125896190Y-95179285D01*
X125896190Y-95179285D02*
X125943809Y-95226904D01*
X125943809Y-95226904D02*
X125991428Y-95322142D01*
X125991428Y-95322142D02*
X125991428Y-95703094D01*
X125467619Y-94798332D02*
X125467619Y-94179285D01*
X125467619Y-94179285D02*
X125848571Y-94512618D01*
X125848571Y-94512618D02*
X125848571Y-94369761D01*
X125848571Y-94369761D02*
X125896190Y-94274523D01*
X125896190Y-94274523D02*
X125943809Y-94226904D01*
X125943809Y-94226904D02*
X126039047Y-94179285D01*
X126039047Y-94179285D02*
X126277142Y-94179285D01*
X126277142Y-94179285D02*
X126372380Y-94226904D01*
X126372380Y-94226904D02*
X126420000Y-94274523D01*
X126420000Y-94274523D02*
X126467619Y-94369761D01*
X126467619Y-94369761D02*
X126467619Y-94655475D01*
X126467619Y-94655475D02*
X126420000Y-94750713D01*
X126420000Y-94750713D02*
X126372380Y-94798332D01*
%TO.C,R2*%
X130107619Y-97291666D02*
X129631428Y-97624999D01*
X130107619Y-97863094D02*
X129107619Y-97863094D01*
X129107619Y-97863094D02*
X129107619Y-97482142D01*
X129107619Y-97482142D02*
X129155238Y-97386904D01*
X129155238Y-97386904D02*
X129202857Y-97339285D01*
X129202857Y-97339285D02*
X129298095Y-97291666D01*
X129298095Y-97291666D02*
X129440952Y-97291666D01*
X129440952Y-97291666D02*
X129536190Y-97339285D01*
X129536190Y-97339285D02*
X129583809Y-97386904D01*
X129583809Y-97386904D02*
X129631428Y-97482142D01*
X129631428Y-97482142D02*
X129631428Y-97863094D01*
X129202857Y-96910713D02*
X129155238Y-96863094D01*
X129155238Y-96863094D02*
X129107619Y-96767856D01*
X129107619Y-96767856D02*
X129107619Y-96529761D01*
X129107619Y-96529761D02*
X129155238Y-96434523D01*
X129155238Y-96434523D02*
X129202857Y-96386904D01*
X129202857Y-96386904D02*
X129298095Y-96339285D01*
X129298095Y-96339285D02*
X129393333Y-96339285D01*
X129393333Y-96339285D02*
X129536190Y-96386904D01*
X129536190Y-96386904D02*
X130107619Y-96958332D01*
X130107619Y-96958332D02*
X130107619Y-96339285D01*
%TO.C,R1*%
X121457619Y-94901666D02*
X120981428Y-95234999D01*
X121457619Y-95473094D02*
X120457619Y-95473094D01*
X120457619Y-95473094D02*
X120457619Y-95092142D01*
X120457619Y-95092142D02*
X120505238Y-94996904D01*
X120505238Y-94996904D02*
X120552857Y-94949285D01*
X120552857Y-94949285D02*
X120648095Y-94901666D01*
X120648095Y-94901666D02*
X120790952Y-94901666D01*
X120790952Y-94901666D02*
X120886190Y-94949285D01*
X120886190Y-94949285D02*
X120933809Y-94996904D01*
X120933809Y-94996904D02*
X120981428Y-95092142D01*
X120981428Y-95092142D02*
X120981428Y-95473094D01*
X121457619Y-93949285D02*
X121457619Y-94520713D01*
X121457619Y-94234999D02*
X120457619Y-94234999D01*
X120457619Y-94234999D02*
X120600476Y-94330237D01*
X120600476Y-94330237D02*
X120695714Y-94425475D01*
X120695714Y-94425475D02*
X120743333Y-94520713D01*
%TO.C,NTC1*%
X138062619Y-108212856D02*
X137062619Y-108212856D01*
X137062619Y-108212856D02*
X138062619Y-107641428D01*
X138062619Y-107641428D02*
X137062619Y-107641428D01*
X137062619Y-107308094D02*
X137062619Y-106736666D01*
X138062619Y-107022380D02*
X137062619Y-107022380D01*
X137967380Y-105831904D02*
X138015000Y-105879523D01*
X138015000Y-105879523D02*
X138062619Y-106022380D01*
X138062619Y-106022380D02*
X138062619Y-106117618D01*
X138062619Y-106117618D02*
X138015000Y-106260475D01*
X138015000Y-106260475D02*
X137919761Y-106355713D01*
X137919761Y-106355713D02*
X137824523Y-106403332D01*
X137824523Y-106403332D02*
X137634047Y-106450951D01*
X137634047Y-106450951D02*
X137491190Y-106450951D01*
X137491190Y-106450951D02*
X137300714Y-106403332D01*
X137300714Y-106403332D02*
X137205476Y-106355713D01*
X137205476Y-106355713D02*
X137110238Y-106260475D01*
X137110238Y-106260475D02*
X137062619Y-106117618D01*
X137062619Y-106117618D02*
X137062619Y-106022380D01*
X137062619Y-106022380D02*
X137110238Y-105879523D01*
X137110238Y-105879523D02*
X137157857Y-105831904D01*
X138062619Y-104879523D02*
X138062619Y-105450951D01*
X138062619Y-105165237D02*
X137062619Y-105165237D01*
X137062619Y-105165237D02*
X137205476Y-105260475D01*
X137205476Y-105260475D02*
X137300714Y-105355713D01*
X137300714Y-105355713D02*
X137348333Y-105450951D01*
%TO.C,J3*%
X120581666Y-80262619D02*
X120581666Y-80976904D01*
X120581666Y-80976904D02*
X120534047Y-81119761D01*
X120534047Y-81119761D02*
X120438809Y-81215000D01*
X120438809Y-81215000D02*
X120295952Y-81262619D01*
X120295952Y-81262619D02*
X120200714Y-81262619D01*
X120962619Y-80262619D02*
X121581666Y-80262619D01*
X121581666Y-80262619D02*
X121248333Y-80643571D01*
X121248333Y-80643571D02*
X121391190Y-80643571D01*
X121391190Y-80643571D02*
X121486428Y-80691190D01*
X121486428Y-80691190D02*
X121534047Y-80738809D01*
X121534047Y-80738809D02*
X121581666Y-80834047D01*
X121581666Y-80834047D02*
X121581666Y-81072142D01*
X121581666Y-81072142D02*
X121534047Y-81167380D01*
X121534047Y-81167380D02*
X121486428Y-81215000D01*
X121486428Y-81215000D02*
X121391190Y-81262619D01*
X121391190Y-81262619D02*
X121105476Y-81262619D01*
X121105476Y-81262619D02*
X121010238Y-81215000D01*
X121010238Y-81215000D02*
X120962619Y-81167380D01*
%TO.C,J2*%
X104676666Y-80142619D02*
X104676666Y-80856904D01*
X104676666Y-80856904D02*
X104629047Y-80999761D01*
X104629047Y-80999761D02*
X104533809Y-81095000D01*
X104533809Y-81095000D02*
X104390952Y-81142619D01*
X104390952Y-81142619D02*
X104295714Y-81142619D01*
X105105238Y-80237857D02*
X105152857Y-80190238D01*
X105152857Y-80190238D02*
X105248095Y-80142619D01*
X105248095Y-80142619D02*
X105486190Y-80142619D01*
X105486190Y-80142619D02*
X105581428Y-80190238D01*
X105581428Y-80190238D02*
X105629047Y-80237857D01*
X105629047Y-80237857D02*
X105676666Y-80333095D01*
X105676666Y-80333095D02*
X105676666Y-80428333D01*
X105676666Y-80428333D02*
X105629047Y-80571190D01*
X105629047Y-80571190D02*
X105057619Y-81142619D01*
X105057619Y-81142619D02*
X105676666Y-81142619D01*
%TO.C,J1*%
X136296666Y-80147619D02*
X136296666Y-80861904D01*
X136296666Y-80861904D02*
X136249047Y-81004761D01*
X136249047Y-81004761D02*
X136153809Y-81100000D01*
X136153809Y-81100000D02*
X136010952Y-81147619D01*
X136010952Y-81147619D02*
X135915714Y-81147619D01*
X137296666Y-81147619D02*
X136725238Y-81147619D01*
X137010952Y-81147619D02*
X137010952Y-80147619D01*
X137010952Y-80147619D02*
X136915714Y-80290476D01*
X136915714Y-80290476D02*
X136820476Y-80385714D01*
X136820476Y-80385714D02*
X136725238Y-80433333D01*
%TO.C,D4*%
X118511905Y-87637619D02*
X118511905Y-86637619D01*
X118511905Y-86637619D02*
X118750000Y-86637619D01*
X118750000Y-86637619D02*
X118892857Y-86685238D01*
X118892857Y-86685238D02*
X118988095Y-86780476D01*
X118988095Y-86780476D02*
X119035714Y-86875714D01*
X119035714Y-86875714D02*
X119083333Y-87066190D01*
X119083333Y-87066190D02*
X119083333Y-87209047D01*
X119083333Y-87209047D02*
X119035714Y-87399523D01*
X119035714Y-87399523D02*
X118988095Y-87494761D01*
X118988095Y-87494761D02*
X118892857Y-87590000D01*
X118892857Y-87590000D02*
X118750000Y-87637619D01*
X118750000Y-87637619D02*
X118511905Y-87637619D01*
X119940476Y-86970952D02*
X119940476Y-87637619D01*
X119702381Y-86590000D02*
X119464286Y-87304285D01*
X119464286Y-87304285D02*
X120083333Y-87304285D01*
%TO.C,D2*%
X119661905Y-89772619D02*
X119661905Y-88772619D01*
X119661905Y-88772619D02*
X119900000Y-88772619D01*
X119900000Y-88772619D02*
X120042857Y-88820238D01*
X120042857Y-88820238D02*
X120138095Y-88915476D01*
X120138095Y-88915476D02*
X120185714Y-89010714D01*
X120185714Y-89010714D02*
X120233333Y-89201190D01*
X120233333Y-89201190D02*
X120233333Y-89344047D01*
X120233333Y-89344047D02*
X120185714Y-89534523D01*
X120185714Y-89534523D02*
X120138095Y-89629761D01*
X120138095Y-89629761D02*
X120042857Y-89725000D01*
X120042857Y-89725000D02*
X119900000Y-89772619D01*
X119900000Y-89772619D02*
X119661905Y-89772619D01*
X120614286Y-88867857D02*
X120661905Y-88820238D01*
X120661905Y-88820238D02*
X120757143Y-88772619D01*
X120757143Y-88772619D02*
X120995238Y-88772619D01*
X120995238Y-88772619D02*
X121090476Y-88820238D01*
X121090476Y-88820238D02*
X121138095Y-88867857D01*
X121138095Y-88867857D02*
X121185714Y-88963095D01*
X121185714Y-88963095D02*
X121185714Y-89058333D01*
X121185714Y-89058333D02*
X121138095Y-89201190D01*
X121138095Y-89201190D02*
X120566667Y-89772619D01*
X120566667Y-89772619D02*
X121185714Y-89772619D01*
%TO.C,D1*%
X119651905Y-91587619D02*
X119651905Y-90587619D01*
X119651905Y-90587619D02*
X119890000Y-90587619D01*
X119890000Y-90587619D02*
X120032857Y-90635238D01*
X120032857Y-90635238D02*
X120128095Y-90730476D01*
X120128095Y-90730476D02*
X120175714Y-90825714D01*
X120175714Y-90825714D02*
X120223333Y-91016190D01*
X120223333Y-91016190D02*
X120223333Y-91159047D01*
X120223333Y-91159047D02*
X120175714Y-91349523D01*
X120175714Y-91349523D02*
X120128095Y-91444761D01*
X120128095Y-91444761D02*
X120032857Y-91540000D01*
X120032857Y-91540000D02*
X119890000Y-91587619D01*
X119890000Y-91587619D02*
X119651905Y-91587619D01*
X121175714Y-91587619D02*
X120604286Y-91587619D01*
X120890000Y-91587619D02*
X120890000Y-90587619D01*
X120890000Y-90587619D02*
X120794762Y-90730476D01*
X120794762Y-90730476D02*
X120699524Y-90825714D01*
X120699524Y-90825714D02*
X120604286Y-90873333D01*
%TO.C,C2*%
X116727380Y-101261666D02*
X116775000Y-101309285D01*
X116775000Y-101309285D02*
X116822619Y-101452142D01*
X116822619Y-101452142D02*
X116822619Y-101547380D01*
X116822619Y-101547380D02*
X116775000Y-101690237D01*
X116775000Y-101690237D02*
X116679761Y-101785475D01*
X116679761Y-101785475D02*
X116584523Y-101833094D01*
X116584523Y-101833094D02*
X116394047Y-101880713D01*
X116394047Y-101880713D02*
X116251190Y-101880713D01*
X116251190Y-101880713D02*
X116060714Y-101833094D01*
X116060714Y-101833094D02*
X115965476Y-101785475D01*
X115965476Y-101785475D02*
X115870238Y-101690237D01*
X115870238Y-101690237D02*
X115822619Y-101547380D01*
X115822619Y-101547380D02*
X115822619Y-101452142D01*
X115822619Y-101452142D02*
X115870238Y-101309285D01*
X115870238Y-101309285D02*
X115917857Y-101261666D01*
X115917857Y-100880713D02*
X115870238Y-100833094D01*
X115870238Y-100833094D02*
X115822619Y-100737856D01*
X115822619Y-100737856D02*
X115822619Y-100499761D01*
X115822619Y-100499761D02*
X115870238Y-100404523D01*
X115870238Y-100404523D02*
X115917857Y-100356904D01*
X115917857Y-100356904D02*
X116013095Y-100309285D01*
X116013095Y-100309285D02*
X116108333Y-100309285D01*
X116108333Y-100309285D02*
X116251190Y-100356904D01*
X116251190Y-100356904D02*
X116822619Y-100928332D01*
X116822619Y-100928332D02*
X116822619Y-100309285D01*
%TO.C,C1*%
X134922380Y-87011666D02*
X134970000Y-87059285D01*
X134970000Y-87059285D02*
X135017619Y-87202142D01*
X135017619Y-87202142D02*
X135017619Y-87297380D01*
X135017619Y-87297380D02*
X134970000Y-87440237D01*
X134970000Y-87440237D02*
X134874761Y-87535475D01*
X134874761Y-87535475D02*
X134779523Y-87583094D01*
X134779523Y-87583094D02*
X134589047Y-87630713D01*
X134589047Y-87630713D02*
X134446190Y-87630713D01*
X134446190Y-87630713D02*
X134255714Y-87583094D01*
X134255714Y-87583094D02*
X134160476Y-87535475D01*
X134160476Y-87535475D02*
X134065238Y-87440237D01*
X134065238Y-87440237D02*
X134017619Y-87297380D01*
X134017619Y-87297380D02*
X134017619Y-87202142D01*
X134017619Y-87202142D02*
X134065238Y-87059285D01*
X134065238Y-87059285D02*
X134112857Y-87011666D01*
X135017619Y-86059285D02*
X135017619Y-86630713D01*
X135017619Y-86344999D02*
X134017619Y-86344999D01*
X134017619Y-86344999D02*
X134160476Y-86440237D01*
X134160476Y-86440237D02*
X134255714Y-86535475D01*
X134255714Y-86535475D02*
X134303333Y-86630713D01*
D11*
%TO.C,U3*%
X144305000Y-96035000D02*
X138295000Y-96035000D01*
X142055000Y-89215000D02*
X138295000Y-89215000D01*
X138295000Y-89215000D02*
X138295000Y-90475000D01*
X138295000Y-96035000D02*
X138295000Y-94775000D01*
%TO.C,U2*%
X131225000Y-93405000D02*
X133535000Y-93405000D01*
X128915000Y-89285000D02*
X128915000Y-89515000D01*
X128915000Y-93405000D02*
X128915000Y-93175000D01*
X133535000Y-93175000D02*
X135275000Y-93175000D01*
X133535000Y-93405000D02*
X133535000Y-93175000D01*
X133535000Y-89285000D02*
X133535000Y-89515000D01*
X131225000Y-89285000D02*
X128915000Y-89285000D01*
X131225000Y-93405000D02*
X128915000Y-93405000D01*
X131225000Y-89285000D02*
X133535000Y-89285000D01*
%TO.C,U1*%
X118260000Y-98460000D02*
X118260000Y-100110000D01*
X118260000Y-103760000D02*
X128540000Y-103760000D01*
X128540000Y-98460000D02*
X118260000Y-98460000D01*
X118260000Y-102110000D02*
X118260000Y-103760000D01*
X128540000Y-103760000D02*
X128540000Y-98460000D01*
X118260000Y-102110000D02*
G75*
G03*
X118260000Y-100110000I0J1000000D01*
G01*
%TO.C,SW1*%
X137185000Y-102935000D02*
X137185000Y-103585000D01*
X143385000Y-103585000D02*
X143385000Y-102935000D01*
X143385000Y-99885000D02*
X143385000Y-100535000D01*
X137185000Y-99885000D02*
X137185000Y-100535000D01*
X137185000Y-103585000D02*
X143385000Y-103585000D01*
X143385000Y-99885000D02*
X137185000Y-99885000D01*
%TO.C,R6*%
X135213641Y-106950000D02*
X134906359Y-106950000D01*
X135213641Y-106190000D02*
X134906359Y-106190000D01*
%TO.C,R5*%
X124820000Y-90028641D02*
X124820000Y-89721359D01*
X125580000Y-90028641D02*
X125580000Y-89721359D01*
%TO.C,R4*%
X133516359Y-101420000D02*
X133823641Y-101420000D01*
X133516359Y-102180000D02*
X133823641Y-102180000D01*
%TO.C,R3*%
X127555000Y-95118641D02*
X127555000Y-94811359D01*
X126795000Y-95118641D02*
X126795000Y-94811359D01*
%TO.C,R2*%
X130435000Y-97278641D02*
X130435000Y-96971359D01*
X131195000Y-97278641D02*
X131195000Y-96971359D01*
%TO.C,R1*%
X121785000Y-94888641D02*
X121785000Y-94581359D01*
X122545000Y-94888641D02*
X122545000Y-94581359D01*
%TO.C,NTC1*%
X139930000Y-107900000D02*
X138600000Y-107900000D01*
X143800000Y-107900000D02*
X143800000Y-105240000D01*
X141200000Y-107900000D02*
X143800000Y-107900000D01*
X141200000Y-107900000D02*
X141200000Y-105240000D01*
X138600000Y-107900000D02*
X138600000Y-106570000D01*
X141200000Y-105240000D02*
X143800000Y-105240000D01*
%TO.C,J3*%
X120810000Y-83670000D02*
X120810000Y-82070000D01*
X119890000Y-83670000D02*
X120810000Y-83670000D01*
X121650000Y-79710000D02*
X120650000Y-79710000D01*
X120650000Y-79710000D02*
X120650000Y-78110000D01*
X126010000Y-82070000D02*
X125090000Y-82070000D01*
X123450000Y-80210000D02*
X122450000Y-80210000D01*
X125250000Y-79710000D02*
X125250000Y-78110000D01*
X120650000Y-78110000D02*
X121650000Y-78110000D01*
X124810000Y-82070000D02*
X125090000Y-82070000D01*
X125090000Y-82070000D02*
X125090000Y-83670000D01*
X124250000Y-79710000D02*
X125250000Y-79710000D01*
X125090000Y-83670000D02*
X126010000Y-83670000D01*
X124750000Y-78110000D02*
X124750000Y-75850000D01*
X125250000Y-78110000D02*
X124250000Y-78110000D01*
X126010000Y-75850000D02*
X119890000Y-75850000D01*
X120810000Y-82070000D02*
X121090000Y-82070000D01*
X122450000Y-80210000D02*
X122450000Y-75850000D01*
X119890000Y-82070000D02*
X120810000Y-82070000D01*
X121650000Y-78110000D02*
X121650000Y-79710000D01*
X126010000Y-83670000D02*
X126010000Y-75850000D01*
X119890000Y-75850000D02*
X119890000Y-83670000D01*
X124810000Y-82070000D02*
X124810000Y-83285000D01*
X124250000Y-78110000D02*
X124250000Y-79710000D01*
X124250000Y-78110000D02*
X124250000Y-75850000D01*
X123450000Y-75850000D02*
X123450000Y-80210000D01*
%TO.C,J2*%
X107625000Y-75765000D02*
X107625000Y-80125000D01*
X108425000Y-78025000D02*
X108425000Y-75765000D01*
X108425000Y-78025000D02*
X108425000Y-79625000D01*
X108985000Y-81985000D02*
X108985000Y-83200000D01*
X104065000Y-75765000D02*
X104065000Y-83585000D01*
X110185000Y-83585000D02*
X110185000Y-75765000D01*
X105825000Y-78025000D02*
X105825000Y-79625000D01*
X104065000Y-81985000D02*
X104985000Y-81985000D01*
X106625000Y-80125000D02*
X106625000Y-75765000D01*
X104985000Y-81985000D02*
X105265000Y-81985000D01*
X110185000Y-75765000D02*
X104065000Y-75765000D01*
X109425000Y-78025000D02*
X108425000Y-78025000D01*
X108925000Y-78025000D02*
X108925000Y-75765000D01*
X109265000Y-83585000D02*
X110185000Y-83585000D01*
X108425000Y-79625000D02*
X109425000Y-79625000D01*
X109265000Y-81985000D02*
X109265000Y-83585000D01*
X108985000Y-81985000D02*
X109265000Y-81985000D01*
X104825000Y-78025000D02*
X105825000Y-78025000D01*
X109425000Y-79625000D02*
X109425000Y-78025000D01*
X107625000Y-80125000D02*
X106625000Y-80125000D01*
X110185000Y-81985000D02*
X109265000Y-81985000D01*
X104825000Y-79625000D02*
X104825000Y-78025000D01*
X105825000Y-79625000D02*
X104825000Y-79625000D01*
X104065000Y-83585000D02*
X104985000Y-83585000D01*
X104985000Y-83585000D02*
X104985000Y-81985000D01*
%TO.C,J1*%
X139270000Y-75735000D02*
X139270000Y-80095000D01*
X140070000Y-77995000D02*
X140070000Y-75735000D01*
X140070000Y-77995000D02*
X140070000Y-79595000D01*
X140630000Y-81955000D02*
X140630000Y-83170000D01*
X135710000Y-75735000D02*
X135710000Y-83555000D01*
X141830000Y-83555000D02*
X141830000Y-75735000D01*
X137470000Y-77995000D02*
X137470000Y-79595000D01*
X135710000Y-81955000D02*
X136630000Y-81955000D01*
X138270000Y-80095000D02*
X138270000Y-75735000D01*
X136630000Y-81955000D02*
X136910000Y-81955000D01*
X141830000Y-75735000D02*
X135710000Y-75735000D01*
X141070000Y-77995000D02*
X140070000Y-77995000D01*
X140570000Y-77995000D02*
X140570000Y-75735000D01*
X140910000Y-83555000D02*
X141830000Y-83555000D01*
X140070000Y-79595000D02*
X141070000Y-79595000D01*
X140910000Y-81955000D02*
X140910000Y-83555000D01*
X140630000Y-81955000D02*
X140910000Y-81955000D01*
X136470000Y-77995000D02*
X137470000Y-77995000D01*
X141070000Y-79595000D02*
X141070000Y-77995000D01*
X139270000Y-80095000D02*
X138270000Y-80095000D01*
X141830000Y-81955000D02*
X140910000Y-81955000D01*
X136470000Y-79595000D02*
X136470000Y-77995000D01*
X137470000Y-79595000D02*
X136470000Y-79595000D01*
X135710000Y-83555000D02*
X136630000Y-83555000D01*
X136630000Y-83555000D02*
X136630000Y-81955000D01*
%TO.C,D4*%
X125100000Y-86225000D02*
X121090000Y-86225000D01*
X125100000Y-88225000D02*
X121090000Y-88225000D01*
X125100000Y-88225000D02*
X125100000Y-86225000D01*
%TO.C,D2*%
X123677500Y-88620000D02*
X121392500Y-88620000D01*
X121392500Y-88620000D02*
X121392500Y-90090000D01*
X121392500Y-90090000D02*
X123677500Y-90090000D01*
%TO.C,D1*%
X121402500Y-91790000D02*
X123687500Y-91790000D01*
X121402500Y-90320000D02*
X121402500Y-91790000D01*
X123687500Y-90320000D02*
X121402500Y-90320000D01*
%TO.C,C2*%
X115625000Y-97988748D02*
X115625000Y-98511252D01*
X117095000Y-97988748D02*
X117095000Y-98511252D01*
%TO.C,C1*%
X133520000Y-87056252D02*
X133520000Y-86533748D01*
X132050000Y-87056252D02*
X132050000Y-86533748D01*
%TD*%
M02*
