%TF.GenerationSoftware,KiCad,Pcbnew,7.0.2*%
%TF.CreationDate,2023-10-13T05:00:02+05:00*%
%TF.ProjectId,IM100_Override,494d3130-305f-44f7-9665-72726964652e,V1.0*%
%TF.SameCoordinates,Original*%
%TF.FileFunction,Copper,L2,Bot*%
%TF.FilePolarity,Positive*%
%FSLAX46Y46*%
G04 Gerber Fmt 4.6, Leading zero omitted, Abs format (unit mm)*
G04 Created by KiCad (PCBNEW 7.0.2) date 2023-10-13 05:00:02*
%MOMM*%
%LPD*%
G01*
G04 APERTURE LIST*
G04 Aperture macros list*
%AMRoundRect*
0 Rectangle with rounded corners*
0 $1 Rounding radius*
0 $2 $3 $4 $5 $6 $7 $8 $9 X,Y pos of 4 corners*
0 Add a 4 corners polygon primitive as box body*
4,1,4,$2,$3,$4,$5,$6,$7,$8,$9,$2,$3,0*
0 Add four circle primitives for the rounded corners*
1,1,$1+$1,$2,$3*
1,1,$1+$1,$4,$5*
1,1,$1+$1,$6,$7*
1,1,$1+$1,$8,$9*
0 Add four rect primitives between the rounded corners*
20,1,$1+$1,$2,$3,$4,$5,0*
20,1,$1+$1,$4,$5,$6,$7,0*
20,1,$1+$1,$6,$7,$8,$9,0*
20,1,$1+$1,$8,$9,$2,$3,0*%
G04 Aperture macros list end*
%TA.AperFunction,ComponentPad*%
%ADD10C,7.500000*%
%TD*%
%TA.AperFunction,ComponentPad*%
%ADD11R,1.600000X1.600000*%
%TD*%
%TA.AperFunction,ComponentPad*%
%ADD12O,1.600000X1.600000*%
%TD*%
%TA.AperFunction,ComponentPad*%
%ADD13R,1.700000X1.700000*%
%TD*%
%TA.AperFunction,ComponentPad*%
%ADD14O,1.700000X1.700000*%
%TD*%
%TA.AperFunction,ComponentPad*%
%ADD15O,1.200000X1.750000*%
%TD*%
%TA.AperFunction,ComponentPad*%
%ADD16RoundRect,0.250000X0.350000X0.625000X-0.350000X0.625000X-0.350000X-0.625000X0.350000X-0.625000X0*%
%TD*%
%TA.AperFunction,ViaPad*%
%ADD17C,0.800000*%
%TD*%
%TA.AperFunction,Conductor*%
%ADD18C,0.500000*%
%TD*%
G04 APERTURE END LIST*
D10*
%TO.P,H1,*%
%TO.N,*%
X110000000Y-105000000D03*
%TD*%
D11*
%TO.P,U1,1,~{RESET}/PB5*%
%TO.N,unconnected-(U1-~{RESET}{slash}PB5-Pad1)*%
X119590000Y-104920000D03*
D12*
%TO.P,U1,2,PB3*%
%TO.N,Net-(U1-PB3)*%
X122130000Y-104920000D03*
%TO.P,U1,3,PB4*%
%TO.N,Net-(U1-PB4)*%
X124670000Y-104920000D03*
%TO.P,U1,4,GND*%
%TO.N,GND*%
X127210000Y-104920000D03*
%TO.P,U1,5,PB0*%
%TO.N,Net-(U1-PB0)*%
X127210000Y-97300000D03*
%TO.P,U1,6,PB1*%
%TO.N,Net-(U1-PB1)*%
X124670000Y-97300000D03*
%TO.P,U1,7,PB2*%
%TO.N,Net-(U1-PB2)*%
X122130000Y-97300000D03*
%TO.P,U1,8,VCC*%
%TO.N,+3V3*%
X119590000Y-97300000D03*
%TD*%
D13*
%TO.P,NTC1,1*%
%TO.N,Net-(U1-PB4)*%
X139930000Y-106570000D03*
D14*
%TO.P,NTC1,2*%
%TO.N,+3V3*%
X142470000Y-106570000D03*
%TD*%
D15*
%TO.P,J3,2*%
%TO.N,GND*%
X121950000Y-82210000D03*
D16*
%TO.P,J3,1*%
%TO.N,VALVE*%
X123950000Y-82210000D03*
%TD*%
%TO.P,J2,1*%
%TO.N,SHUTTER*%
X108125000Y-82125000D03*
D15*
%TO.P,J2,2*%
%TO.N,GND*%
X106125000Y-82125000D03*
%TD*%
D16*
%TO.P,J1,1*%
%TO.N,+BATT*%
X139770000Y-82095000D03*
D15*
%TO.P,J1,2*%
%TO.N,GND*%
X137770000Y-82095000D03*
%TD*%
D17*
%TO.N,GND*%
X129455000Y-86770000D03*
X130530000Y-94605000D03*
X134265000Y-95310000D03*
X135075000Y-99680000D03*
X134935000Y-103285000D03*
X120720000Y-107720000D03*
X116025000Y-106280000D03*
X115485000Y-102970000D03*
X113675000Y-95135000D03*
X116675000Y-93975000D03*
X114015000Y-91315000D03*
X117100000Y-85660000D03*
X132800000Y-82120000D03*
X129745000Y-82065000D03*
X116420000Y-82350000D03*
X113310000Y-82205000D03*
%TO.N,+3V3*%
X137119360Y-92624644D03*
%TO.N,GND*%
X139437517Y-90444006D03*
X139594680Y-94962446D03*
X140710000Y-90455000D03*
X143010000Y-98730000D03*
%TO.N,+3V3*%
X137015000Y-95890000D03*
%TO.N,SHUTTER*%
X124765000Y-93445000D03*
%TO.N,GND*%
X141140000Y-94990000D03*
X119000000Y-88350000D03*
%TD*%
D18*
%TO.N,SHUTTER*%
X108125000Y-82125000D02*
X119445000Y-93445000D01*
X119445000Y-93445000D02*
X124765000Y-93445000D01*
%TO.N,+3V3*%
X142470000Y-106570000D02*
X142470000Y-101345000D01*
X142470000Y-101345000D02*
X137015000Y-95890000D01*
X119590000Y-97300000D02*
X119590000Y-98480000D01*
X119590000Y-98480000D02*
X120630000Y-99520000D01*
X133385000Y-99520000D02*
X137015000Y-95890000D01*
X120630000Y-99520000D02*
X133385000Y-99520000D01*
%TD*%
%TA.AperFunction,Conductor*%
%TO.N,GND*%
G36*
X144642539Y-80320185D02*
G01*
X144688294Y-80372989D01*
X144699500Y-80424500D01*
X144699500Y-108575500D01*
X144679815Y-108642539D01*
X144627011Y-108688294D01*
X144575500Y-108699500D01*
X112527736Y-108699500D01*
X112460697Y-108679815D01*
X112414942Y-108627011D01*
X112404998Y-108557853D01*
X112434023Y-108494297D01*
X112460695Y-108471185D01*
X112468328Y-108466281D01*
X112786642Y-108215956D01*
X113079720Y-107936507D01*
X113344907Y-107630464D01*
X113579803Y-107300600D01*
X113782279Y-106949900D01*
X113950503Y-106581543D01*
X114082950Y-106198862D01*
X114178421Y-105805325D01*
X114184280Y-105764578D01*
X118289500Y-105764578D01*
X118289501Y-105767872D01*
X118289853Y-105771152D01*
X118289854Y-105771159D01*
X118293212Y-105802398D01*
X118295909Y-105827483D01*
X118346204Y-105962331D01*
X118432454Y-106077546D01*
X118547669Y-106163796D01*
X118682517Y-106214091D01*
X118742127Y-106220500D01*
X120437872Y-106220499D01*
X120497483Y-106214091D01*
X120632331Y-106163796D01*
X120747546Y-106077546D01*
X120833796Y-105962331D01*
X120884091Y-105827483D01*
X120887862Y-105792404D01*
X120914598Y-105727856D01*
X120971989Y-105688006D01*
X121041814Y-105685511D01*
X121101904Y-105721162D01*
X121112726Y-105734537D01*
X121129953Y-105759140D01*
X121290859Y-105920046D01*
X121477264Y-106050567D01*
X121477265Y-106050567D01*
X121477266Y-106050568D01*
X121683504Y-106146739D01*
X121903308Y-106205635D01*
X122054435Y-106218856D01*
X122129999Y-106225468D01*
X122129999Y-106225467D01*
X122130000Y-106225468D01*
X122356692Y-106205635D01*
X122576496Y-106146739D01*
X122782734Y-106050568D01*
X122969139Y-105920047D01*
X123130047Y-105759139D01*
X123260568Y-105572734D01*
X123287618Y-105514724D01*
X123333790Y-105462285D01*
X123400983Y-105443133D01*
X123467865Y-105463348D01*
X123512382Y-105514725D01*
X123539431Y-105572733D01*
X123669953Y-105759140D01*
X123830859Y-105920046D01*
X124017264Y-106050567D01*
X124017265Y-106050567D01*
X124017266Y-106050568D01*
X124223504Y-106146739D01*
X124443308Y-106205635D01*
X124670000Y-106225468D01*
X124896692Y-106205635D01*
X125116496Y-106146739D01*
X125322734Y-106050568D01*
X125509139Y-105920047D01*
X125670047Y-105759139D01*
X125800568Y-105572734D01*
X125827893Y-105514134D01*
X125874065Y-105461695D01*
X125941258Y-105442543D01*
X126008139Y-105462758D01*
X126052657Y-105514133D01*
X126079866Y-105572482D01*
X126210341Y-105758819D01*
X126371180Y-105919658D01*
X126557519Y-106050134D01*
X126763673Y-106146266D01*
X126959999Y-106198871D01*
X126960000Y-106198871D01*
X126960000Y-105235686D01*
X126971955Y-105247641D01*
X127084852Y-105305165D01*
X127178519Y-105320000D01*
X127241481Y-105320000D01*
X127335148Y-105305165D01*
X127448045Y-105247641D01*
X127460000Y-105235685D01*
X127460000Y-106198871D01*
X127656326Y-106146266D01*
X127862480Y-106050134D01*
X128048819Y-105919658D01*
X128209658Y-105758819D01*
X128340134Y-105572480D01*
X128436266Y-105366326D01*
X128488872Y-105170000D01*
X127525686Y-105170000D01*
X127537641Y-105158045D01*
X127595165Y-105045148D01*
X127614986Y-104920000D01*
X127595165Y-104794852D01*
X127537641Y-104681955D01*
X127525686Y-104670000D01*
X128488872Y-104670000D01*
X128488871Y-104669999D01*
X128436266Y-104473673D01*
X128340134Y-104267519D01*
X128209658Y-104081180D01*
X128048819Y-103920341D01*
X127862480Y-103789865D01*
X127656326Y-103693733D01*
X127460000Y-103641126D01*
X127460000Y-104604314D01*
X127448045Y-104592359D01*
X127335148Y-104534835D01*
X127241481Y-104520000D01*
X127178519Y-104520000D01*
X127084852Y-104534835D01*
X126971955Y-104592359D01*
X126960000Y-104604314D01*
X126960000Y-103641126D01*
X126959999Y-103641126D01*
X126763673Y-103693733D01*
X126557519Y-103789865D01*
X126371180Y-103920341D01*
X126210341Y-104081180D01*
X126079863Y-104267522D01*
X126052656Y-104325866D01*
X126006483Y-104378305D01*
X125939290Y-104397456D01*
X125872409Y-104377239D01*
X125827893Y-104325865D01*
X125800567Y-104267264D01*
X125670046Y-104080859D01*
X125509140Y-103919953D01*
X125322735Y-103789432D01*
X125116497Y-103693261D01*
X124896689Y-103634364D01*
X124669999Y-103614531D01*
X124443310Y-103634364D01*
X124223502Y-103693261D01*
X124017264Y-103789432D01*
X123830859Y-103919953D01*
X123669953Y-104080859D01*
X123539433Y-104267263D01*
X123512382Y-104325275D01*
X123466209Y-104377714D01*
X123399015Y-104396865D01*
X123332134Y-104376649D01*
X123287618Y-104325275D01*
X123260687Y-104267522D01*
X123260568Y-104267266D01*
X123260566Y-104267263D01*
X123130046Y-104080859D01*
X122969140Y-103919953D01*
X122782735Y-103789432D01*
X122576497Y-103693261D01*
X122356689Y-103634364D01*
X122129999Y-103614531D01*
X121903310Y-103634364D01*
X121683502Y-103693261D01*
X121477264Y-103789432D01*
X121290859Y-103919953D01*
X121129951Y-104080861D01*
X121112725Y-104105463D01*
X121058148Y-104149088D01*
X120988649Y-104156280D01*
X120926295Y-104124757D01*
X120890882Y-104064527D01*
X120887861Y-104047592D01*
X120884091Y-104012517D01*
X120833796Y-103877669D01*
X120747546Y-103762454D01*
X120632331Y-103676204D01*
X120497483Y-103625909D01*
X120437873Y-103619500D01*
X120434550Y-103619500D01*
X118745439Y-103619500D01*
X118745420Y-103619500D01*
X118742128Y-103619501D01*
X118738848Y-103619853D01*
X118738840Y-103619854D01*
X118682515Y-103625909D01*
X118547669Y-103676204D01*
X118432454Y-103762454D01*
X118346204Y-103877668D01*
X118295910Y-104012515D01*
X118295909Y-104012517D01*
X118289500Y-104072127D01*
X118289500Y-104075448D01*
X118289500Y-104075449D01*
X118289500Y-105764560D01*
X118289500Y-105764578D01*
X114184280Y-105764578D01*
X114236052Y-105404494D01*
X114255320Y-105000000D01*
X114236052Y-104595506D01*
X114178421Y-104194675D01*
X114082950Y-103801138D01*
X113950503Y-103418457D01*
X113782279Y-103050100D01*
X113579803Y-102699400D01*
X113344907Y-102369536D01*
X113079720Y-102063493D01*
X112786642Y-101784044D01*
X112468328Y-101533719D01*
X112465855Y-101532129D01*
X112465847Y-101532124D01*
X112130141Y-101316379D01*
X112130134Y-101316375D01*
X112127660Y-101314785D01*
X112125052Y-101313440D01*
X112125046Y-101313437D01*
X111850560Y-101171930D01*
X111767724Y-101129225D01*
X111391779Y-100978719D01*
X111270894Y-100943224D01*
X111006066Y-100865463D01*
X111006051Y-100865459D01*
X111003230Y-100864631D01*
X111000332Y-100864072D01*
X111000326Y-100864071D01*
X110608496Y-100788552D01*
X110608493Y-100788551D01*
X110605595Y-100787993D01*
X110602675Y-100787714D01*
X110602660Y-100787712D01*
X110205411Y-100749780D01*
X110205405Y-100749779D01*
X110202476Y-100749500D01*
X109797524Y-100749500D01*
X109794595Y-100749779D01*
X109794588Y-100749780D01*
X109397339Y-100787712D01*
X109397321Y-100787714D01*
X109394405Y-100787993D01*
X109391509Y-100788551D01*
X109391503Y-100788552D01*
X108999673Y-100864071D01*
X108999663Y-100864073D01*
X108996770Y-100864631D01*
X108993952Y-100865458D01*
X108993933Y-100865463D01*
X108611047Y-100977889D01*
X108611042Y-100977890D01*
X108608221Y-100978719D01*
X108605496Y-100979809D01*
X108605490Y-100979812D01*
X108235018Y-101128127D01*
X108235013Y-101128129D01*
X108232276Y-101129225D01*
X108229655Y-101130575D01*
X108229651Y-101130578D01*
X107874953Y-101313437D01*
X107874938Y-101313445D01*
X107872340Y-101314785D01*
X107869874Y-101316369D01*
X107869858Y-101316379D01*
X107534152Y-101532124D01*
X107534134Y-101532136D01*
X107531672Y-101533719D01*
X107529374Y-101535526D01*
X107529363Y-101535534D01*
X107215670Y-101782225D01*
X107215659Y-101782233D01*
X107213358Y-101784044D01*
X107211235Y-101786067D01*
X107211226Y-101786076D01*
X106922404Y-102061467D01*
X106922395Y-102061475D01*
X106920280Y-102063493D01*
X106918359Y-102065709D01*
X106918358Y-102065711D01*
X106657022Y-102367309D01*
X106657015Y-102367317D01*
X106655093Y-102369536D01*
X106653391Y-102371925D01*
X106653380Y-102371940D01*
X106421914Y-102696987D01*
X106421902Y-102697005D01*
X106420197Y-102699400D01*
X106418725Y-102701949D01*
X106418717Y-102701962D01*
X106219197Y-103047543D01*
X106217721Y-103050100D01*
X106216504Y-103052762D01*
X106216494Y-103052784D01*
X106050723Y-103415770D01*
X106050715Y-103415789D01*
X106049497Y-103418457D01*
X106048535Y-103421236D01*
X106048530Y-103421249D01*
X105918018Y-103798339D01*
X105918013Y-103798353D01*
X105917050Y-103801138D01*
X105916354Y-103804004D01*
X105916353Y-103804010D01*
X105822275Y-104191803D01*
X105822272Y-104191817D01*
X105821579Y-104194675D01*
X105821159Y-104197594D01*
X105821158Y-104197601D01*
X105764366Y-104592593D01*
X105764364Y-104592610D01*
X105763948Y-104595506D01*
X105763808Y-104598438D01*
X105763808Y-104598442D01*
X105760399Y-104670000D01*
X105744680Y-105000000D01*
X105763948Y-105404494D01*
X105764364Y-105407391D01*
X105764366Y-105407406D01*
X105819722Y-105792408D01*
X105821579Y-105805325D01*
X105822273Y-105808186D01*
X105822275Y-105808196D01*
X105859668Y-105962330D01*
X105917050Y-106198862D01*
X105918015Y-106201652D01*
X105918018Y-106201660D01*
X106045502Y-106570000D01*
X106049497Y-106581543D01*
X106050718Y-106584217D01*
X106050723Y-106584229D01*
X106216494Y-106947215D01*
X106216500Y-106947228D01*
X106217721Y-106949900D01*
X106326408Y-107138152D01*
X106389728Y-107247827D01*
X106420197Y-107300600D01*
X106421908Y-107303003D01*
X106421914Y-107303012D01*
X106653380Y-107628059D01*
X106655093Y-107630464D01*
X106920280Y-107936507D01*
X107213358Y-108215956D01*
X107531672Y-108466281D01*
X107539302Y-108471185D01*
X107585058Y-108523987D01*
X107595002Y-108593145D01*
X107565978Y-108656701D01*
X107507200Y-108694477D01*
X107472264Y-108699500D01*
X100424500Y-108699500D01*
X100357461Y-108679815D01*
X100311706Y-108627011D01*
X100300500Y-108575500D01*
X100300500Y-97299999D01*
X118284531Y-97299999D01*
X118304364Y-97526689D01*
X118363261Y-97746497D01*
X118459432Y-97952735D01*
X118589953Y-98139140D01*
X118750858Y-98300045D01*
X118785244Y-98324122D01*
X118828870Y-98378699D01*
X118836813Y-98443665D01*
X118834710Y-98458019D01*
X118839028Y-98507368D01*
X118839500Y-98518175D01*
X118839500Y-98523709D01*
X118839916Y-98527272D01*
X118839917Y-98527282D01*
X118843098Y-98554496D01*
X118843464Y-98558082D01*
X118850109Y-98634041D01*
X118854329Y-98653071D01*
X118854758Y-98654251D01*
X118854759Y-98654255D01*
X118880413Y-98724742D01*
X118881582Y-98728107D01*
X118905580Y-98800524D01*
X118914075Y-98818072D01*
X118955979Y-98881784D01*
X118957889Y-98884782D01*
X118987480Y-98932756D01*
X118997952Y-98949733D01*
X119010248Y-98964826D01*
X119011169Y-98965695D01*
X119011170Y-98965696D01*
X119065746Y-99017185D01*
X119068298Y-99019665D01*
X120054269Y-100005637D01*
X120066049Y-100019268D01*
X120080390Y-100038530D01*
X120087253Y-100044289D01*
X120118339Y-100070373D01*
X120126314Y-100077681D01*
X120130223Y-100081590D01*
X120133055Y-100083829D01*
X120133065Y-100083838D01*
X120154542Y-100100819D01*
X120157298Y-100103063D01*
X120214786Y-100151302D01*
X120214788Y-100151303D01*
X120215757Y-100152116D01*
X120232179Y-100162578D01*
X120301320Y-100194819D01*
X120304560Y-100196388D01*
X120369444Y-100228974D01*
X120372700Y-100230609D01*
X120391088Y-100237000D01*
X120392322Y-100237254D01*
X120392327Y-100237257D01*
X120465829Y-100252432D01*
X120469307Y-100253204D01*
X120497510Y-100259889D01*
X120543502Y-100270790D01*
X120562876Y-100272769D01*
X120564140Y-100272732D01*
X120564144Y-100272733D01*
X120639110Y-100270552D01*
X120642716Y-100270500D01*
X133321294Y-100270500D01*
X133339264Y-100271809D01*
X133343320Y-100272402D01*
X133363023Y-100275289D01*
X133412368Y-100270972D01*
X133423176Y-100270500D01*
X133425100Y-100270500D01*
X133428709Y-100270500D01*
X133459550Y-100266894D01*
X133463031Y-100266539D01*
X133537797Y-100259999D01*
X133537797Y-100259998D01*
X133539052Y-100259889D01*
X133558062Y-100255674D01*
X133559250Y-100255241D01*
X133559255Y-100255241D01*
X133629820Y-100229557D01*
X133633095Y-100228419D01*
X133704334Y-100204814D01*
X133704336Y-100204812D01*
X133705536Y-100204415D01*
X133723063Y-100195929D01*
X133724112Y-100195238D01*
X133724117Y-100195237D01*
X133786806Y-100154005D01*
X133789798Y-100152099D01*
X133853656Y-100112712D01*
X133853656Y-100112711D01*
X133854729Y-100112050D01*
X133869824Y-100099753D01*
X133870692Y-100098832D01*
X133870696Y-100098830D01*
X133922185Y-100044253D01*
X133924631Y-100041735D01*
X136927318Y-97039047D01*
X136988641Y-97005563D01*
X137058333Y-97010547D01*
X137102680Y-97039048D01*
X141683181Y-101619548D01*
X141716666Y-101680871D01*
X141719500Y-101707229D01*
X141719500Y-105382298D01*
X141699815Y-105449337D01*
X141666625Y-105483872D01*
X141598600Y-105531504D01*
X141476673Y-105653431D01*
X141415350Y-105686915D01*
X141345658Y-105681931D01*
X141289725Y-105640059D01*
X141272810Y-105609082D01*
X141259253Y-105572734D01*
X141223796Y-105477669D01*
X141137546Y-105362454D01*
X141022331Y-105276204D01*
X140887483Y-105225909D01*
X140827873Y-105219500D01*
X140824550Y-105219500D01*
X139035439Y-105219500D01*
X139035420Y-105219500D01*
X139032128Y-105219501D01*
X139028848Y-105219853D01*
X139028840Y-105219854D01*
X138972515Y-105225909D01*
X138837669Y-105276204D01*
X138722454Y-105362454D01*
X138636204Y-105477668D01*
X138600842Y-105572480D01*
X138585909Y-105612517D01*
X138579500Y-105672127D01*
X138579500Y-105675448D01*
X138579500Y-105675449D01*
X138579500Y-107464560D01*
X138579500Y-107464578D01*
X138579501Y-107467872D01*
X138579853Y-107471152D01*
X138579854Y-107471159D01*
X138585909Y-107527484D01*
X138611056Y-107594906D01*
X138636204Y-107662331D01*
X138722454Y-107777546D01*
X138837669Y-107863796D01*
X138972517Y-107914091D01*
X139032127Y-107920500D01*
X140827872Y-107920499D01*
X140887483Y-107914091D01*
X141022331Y-107863796D01*
X141137546Y-107777546D01*
X141223796Y-107662331D01*
X141272810Y-107530916D01*
X141314681Y-107474983D01*
X141380146Y-107450566D01*
X141448419Y-107465418D01*
X141476673Y-107486569D01*
X141598599Y-107608495D01*
X141792170Y-107744035D01*
X142006337Y-107843903D01*
X142234592Y-107905063D01*
X142470000Y-107925659D01*
X142705408Y-107905063D01*
X142933663Y-107843903D01*
X143147830Y-107744035D01*
X143341401Y-107608495D01*
X143508495Y-107441401D01*
X143644035Y-107247830D01*
X143743903Y-107033663D01*
X143805063Y-106805408D01*
X143825659Y-106570000D01*
X143805063Y-106334592D01*
X143743903Y-106106337D01*
X143644035Y-105892171D01*
X143508495Y-105698599D01*
X143341401Y-105531505D01*
X143316591Y-105514133D01*
X143273375Y-105483872D01*
X143229751Y-105429295D01*
X143220500Y-105382298D01*
X143220500Y-101408705D01*
X143221809Y-101390735D01*
X143221961Y-101389691D01*
X143225289Y-101366977D01*
X143220972Y-101317629D01*
X143220500Y-101306823D01*
X143220500Y-101304901D01*
X143220500Y-101301291D01*
X143216903Y-101270520D01*
X143216536Y-101266929D01*
X143209889Y-101190949D01*
X143205672Y-101171930D01*
X143190621Y-101130578D01*
X143179591Y-101100273D01*
X143178408Y-101096868D01*
X143154417Y-101024468D01*
X143145929Y-101006936D01*
X143145237Y-101005884D01*
X143145237Y-101005883D01*
X143103999Y-100943184D01*
X143102087Y-100940181D01*
X143062050Y-100875270D01*
X143049750Y-100860172D01*
X142994290Y-100807848D01*
X142991703Y-100805335D01*
X137927771Y-95741403D01*
X137897521Y-95692040D01*
X137842179Y-95521715D01*
X137747533Y-95357783D01*
X137620870Y-95217110D01*
X137467730Y-95105848D01*
X137294802Y-95028855D01*
X137109648Y-94989500D01*
X137109646Y-94989500D01*
X136920354Y-94989500D01*
X136920352Y-94989500D01*
X136735197Y-95028855D01*
X136562269Y-95105848D01*
X136409129Y-95217110D01*
X136282466Y-95357783D01*
X136187821Y-95521714D01*
X136132478Y-95692040D01*
X136102228Y-95741402D01*
X133110451Y-98733181D01*
X133049128Y-98766666D01*
X133022770Y-98769500D01*
X127692374Y-98769500D01*
X127625335Y-98749815D01*
X127579580Y-98697011D01*
X127569636Y-98627853D01*
X127598661Y-98564297D01*
X127647425Y-98532957D01*
X127646664Y-98531324D01*
X127712238Y-98500745D01*
X127862734Y-98430568D01*
X128049139Y-98300047D01*
X128210047Y-98139139D01*
X128340568Y-97952734D01*
X128436739Y-97746496D01*
X128495635Y-97526692D01*
X128515468Y-97300000D01*
X128495635Y-97073308D01*
X128436739Y-96853504D01*
X128340568Y-96647266D01*
X128210047Y-96460861D01*
X128210046Y-96460859D01*
X128049140Y-96299953D01*
X127862735Y-96169432D01*
X127656497Y-96073261D01*
X127436689Y-96014364D01*
X127209999Y-95994531D01*
X126983310Y-96014364D01*
X126763502Y-96073261D01*
X126557264Y-96169432D01*
X126370859Y-96299953D01*
X126209953Y-96460859D01*
X126079431Y-96647266D01*
X126052380Y-96705276D01*
X126006207Y-96757714D01*
X125939013Y-96776865D01*
X125872132Y-96756648D01*
X125827617Y-96705273D01*
X125800568Y-96647266D01*
X125670046Y-96460859D01*
X125509140Y-96299953D01*
X125322735Y-96169432D01*
X125116497Y-96073261D01*
X124896689Y-96014364D01*
X124670000Y-95994531D01*
X124443310Y-96014364D01*
X124223502Y-96073261D01*
X124017264Y-96169432D01*
X123830859Y-96299953D01*
X123669953Y-96460859D01*
X123539433Y-96647263D01*
X123512382Y-96705275D01*
X123466209Y-96757714D01*
X123399015Y-96776865D01*
X123332134Y-96756649D01*
X123287618Y-96705275D01*
X123287617Y-96705273D01*
X123260568Y-96647266D01*
X123130047Y-96460861D01*
X123130046Y-96460859D01*
X122969140Y-96299953D01*
X122782735Y-96169432D01*
X122576497Y-96073261D01*
X122356689Y-96014364D01*
X122129999Y-95994531D01*
X121903310Y-96014364D01*
X121683502Y-96073261D01*
X121477264Y-96169432D01*
X121290859Y-96299953D01*
X121129953Y-96460859D01*
X120999433Y-96647263D01*
X120972382Y-96705275D01*
X120926209Y-96757714D01*
X120859015Y-96776865D01*
X120792134Y-96756649D01*
X120747618Y-96705275D01*
X120747617Y-96705273D01*
X120720568Y-96647266D01*
X120590047Y-96460861D01*
X120590046Y-96460859D01*
X120429140Y-96299953D01*
X120242735Y-96169432D01*
X120036497Y-96073261D01*
X119816689Y-96014364D01*
X119589999Y-95994531D01*
X119363310Y-96014364D01*
X119143502Y-96073261D01*
X118937264Y-96169432D01*
X118750859Y-96299953D01*
X118589953Y-96460859D01*
X118459432Y-96647264D01*
X118363261Y-96853502D01*
X118304364Y-97073310D01*
X118284531Y-97299999D01*
X100300500Y-97299999D01*
X100300500Y-82449450D01*
X105025000Y-82449450D01*
X105025281Y-82455359D01*
X105039964Y-82609120D01*
X105099149Y-82810687D01*
X105195412Y-82997412D01*
X105325269Y-83162538D01*
X105484036Y-83300111D01*
X105665963Y-83405146D01*
X105864485Y-83473855D01*
X105875000Y-83475366D01*
X105874999Y-82405617D01*
X105944052Y-82459363D01*
X106062424Y-82500000D01*
X106156073Y-82500000D01*
X106248446Y-82484586D01*
X106358514Y-82425019D01*
X106375000Y-82407110D01*
X106375000Y-83471257D01*
X106486410Y-83444229D01*
X106677505Y-83356960D01*
X106848624Y-83235105D01*
X106946479Y-83132478D01*
X107006987Y-83097543D01*
X107076778Y-83100867D01*
X107133692Y-83141395D01*
X107141761Y-83152951D01*
X107182288Y-83218657D01*
X107306342Y-83342711D01*
X107306344Y-83342712D01*
X107455666Y-83434814D01*
X107567016Y-83471712D01*
X107622202Y-83489999D01*
X107721858Y-83500180D01*
X107721859Y-83500180D01*
X107724991Y-83500500D01*
X108387769Y-83500499D01*
X108454808Y-83520183D01*
X108475450Y-83536818D01*
X118869267Y-93930634D01*
X118881048Y-93944266D01*
X118895389Y-93963529D01*
X118933339Y-93995373D01*
X118941314Y-94002681D01*
X118945224Y-94006591D01*
X118948056Y-94008830D01*
X118969541Y-94025818D01*
X118972304Y-94028069D01*
X119029786Y-94076302D01*
X119029788Y-94076303D01*
X119030750Y-94077110D01*
X119047180Y-94087578D01*
X119048322Y-94088110D01*
X119048323Y-94088111D01*
X119116350Y-94119832D01*
X119119527Y-94121371D01*
X119186567Y-94155040D01*
X119187702Y-94155610D01*
X119206085Y-94161999D01*
X119207322Y-94162254D01*
X119207328Y-94162257D01*
X119280852Y-94177437D01*
X119284286Y-94178199D01*
X119330566Y-94189168D01*
X119358506Y-94195791D01*
X119377879Y-94197770D01*
X119379141Y-94197733D01*
X119379145Y-94197734D01*
X119451534Y-94195627D01*
X119454132Y-94195552D01*
X119457738Y-94195500D01*
X124225663Y-94195500D01*
X124292702Y-94215185D01*
X124298550Y-94219183D01*
X124312271Y-94229152D01*
X124485197Y-94306144D01*
X124670352Y-94345500D01*
X124670354Y-94345500D01*
X124859648Y-94345500D01*
X124983083Y-94319262D01*
X125044803Y-94306144D01*
X125217730Y-94229151D01*
X125236953Y-94215185D01*
X125370870Y-94117889D01*
X125451719Y-94028098D01*
X125497533Y-93977216D01*
X125592179Y-93813284D01*
X125650674Y-93633256D01*
X125670460Y-93445000D01*
X125650674Y-93256744D01*
X125592179Y-93076716D01*
X125592179Y-93076715D01*
X125497533Y-92912783D01*
X125370870Y-92772110D01*
X125217730Y-92660848D01*
X125136415Y-92624644D01*
X136213900Y-92624644D01*
X136233686Y-92812901D01*
X136292180Y-92992928D01*
X136386826Y-93156860D01*
X136513489Y-93297533D01*
X136666629Y-93408795D01*
X136839557Y-93485788D01*
X137024712Y-93525144D01*
X137024714Y-93525144D01*
X137214008Y-93525144D01*
X137337443Y-93498906D01*
X137399163Y-93485788D01*
X137572090Y-93408795D01*
X137725231Y-93297532D01*
X137851893Y-93156860D01*
X137946539Y-92992928D01*
X138005034Y-92812900D01*
X138024820Y-92624644D01*
X138005034Y-92436388D01*
X137946539Y-92256360D01*
X137946539Y-92256359D01*
X137851893Y-92092427D01*
X137725230Y-91951754D01*
X137572090Y-91840492D01*
X137399162Y-91763499D01*
X137214008Y-91724144D01*
X137214006Y-91724144D01*
X137024714Y-91724144D01*
X137024712Y-91724144D01*
X136839557Y-91763499D01*
X136666629Y-91840492D01*
X136513489Y-91951754D01*
X136386826Y-92092427D01*
X136292180Y-92256359D01*
X136233686Y-92436386D01*
X136213900Y-92624644D01*
X125136415Y-92624644D01*
X125044802Y-92583855D01*
X124859648Y-92544500D01*
X124859646Y-92544500D01*
X124670354Y-92544500D01*
X124670352Y-92544500D01*
X124485197Y-92583855D01*
X124312271Y-92660847D01*
X124298550Y-92670817D01*
X124232744Y-92694298D01*
X124225663Y-92694500D01*
X119807229Y-92694500D01*
X119740190Y-92674815D01*
X119719548Y-92658181D01*
X109595818Y-82534450D01*
X120850000Y-82534450D01*
X120850281Y-82540359D01*
X120864964Y-82694120D01*
X120924149Y-82895687D01*
X121020412Y-83082412D01*
X121150269Y-83247538D01*
X121309036Y-83385111D01*
X121490963Y-83490146D01*
X121689485Y-83558855D01*
X121700000Y-83560366D01*
X121700000Y-82490617D01*
X121769052Y-82544363D01*
X121887424Y-82585000D01*
X121981073Y-82585000D01*
X122073446Y-82569586D01*
X122183514Y-82510019D01*
X122200000Y-82492110D01*
X122200000Y-83556257D01*
X122311410Y-83529229D01*
X122502505Y-83441960D01*
X122673624Y-83320105D01*
X122771479Y-83217478D01*
X122831987Y-83182543D01*
X122901778Y-83185867D01*
X122958692Y-83226395D01*
X122966761Y-83237951D01*
X123007288Y-83303657D01*
X123131342Y-83427711D01*
X123142858Y-83434814D01*
X123280666Y-83519814D01*
X123392016Y-83556712D01*
X123447202Y-83574999D01*
X123546858Y-83585180D01*
X123546859Y-83585180D01*
X123549991Y-83585500D01*
X124350008Y-83585499D01*
X124452797Y-83574999D01*
X124619334Y-83519814D01*
X124768656Y-83427712D01*
X124892712Y-83303656D01*
X124984814Y-83154334D01*
X125039999Y-82987797D01*
X125050500Y-82885009D01*
X125050500Y-82419450D01*
X136670000Y-82419450D01*
X136670281Y-82425359D01*
X136684964Y-82579120D01*
X136744149Y-82780687D01*
X136840412Y-82967412D01*
X136970269Y-83132538D01*
X137129036Y-83270111D01*
X137310963Y-83375146D01*
X137509485Y-83443855D01*
X137520000Y-83445366D01*
X137520000Y-82375617D01*
X137589052Y-82429363D01*
X137707424Y-82470000D01*
X137801073Y-82470000D01*
X137893446Y-82454586D01*
X138003514Y-82395019D01*
X138020000Y-82377110D01*
X138020000Y-83441257D01*
X138131410Y-83414229D01*
X138322505Y-83326960D01*
X138493624Y-83205105D01*
X138591479Y-83102478D01*
X138651987Y-83067543D01*
X138721778Y-83070867D01*
X138778692Y-83111395D01*
X138786761Y-83122951D01*
X138827288Y-83188657D01*
X138951342Y-83312711D01*
X138951344Y-83312712D01*
X139100666Y-83404814D01*
X139212017Y-83441712D01*
X139267202Y-83459999D01*
X139366858Y-83470180D01*
X139366859Y-83470180D01*
X139369991Y-83470500D01*
X140170008Y-83470499D01*
X140272797Y-83459999D01*
X140439334Y-83404814D01*
X140588656Y-83312712D01*
X140712712Y-83188656D01*
X140804814Y-83039334D01*
X140859999Y-82872797D01*
X140870500Y-82770009D01*
X140870499Y-81419992D01*
X140859999Y-81317203D01*
X140804814Y-81150666D01*
X140731216Y-81031344D01*
X140712711Y-81001342D01*
X140588657Y-80877288D01*
X140439334Y-80785186D01*
X140272797Y-80730000D01*
X140173141Y-80719819D01*
X140173122Y-80719818D01*
X140170009Y-80719500D01*
X140166860Y-80719500D01*
X139373141Y-80719500D01*
X139373121Y-80719500D01*
X139369992Y-80719501D01*
X139366860Y-80719820D01*
X139366858Y-80719821D01*
X139267203Y-80730000D01*
X139100665Y-80785186D01*
X138951342Y-80877288D01*
X138827287Y-81001343D01*
X138787905Y-81065192D01*
X138735957Y-81111917D01*
X138666995Y-81123138D01*
X138602913Y-81095295D01*
X138584897Y-81076748D01*
X138569728Y-81057460D01*
X138410963Y-80919888D01*
X138229036Y-80814853D01*
X138030511Y-80746143D01*
X138020000Y-80744631D01*
X138020000Y-81814382D01*
X137950948Y-81760637D01*
X137832576Y-81720000D01*
X137738927Y-81720000D01*
X137646554Y-81735414D01*
X137536486Y-81794981D01*
X137520000Y-81812889D01*
X137520000Y-80748740D01*
X137408593Y-80775768D01*
X137217494Y-80863039D01*
X137046378Y-80984892D01*
X136901407Y-81136933D01*
X136787833Y-81313655D01*
X136709755Y-81508685D01*
X136670000Y-81714962D01*
X136670000Y-81845000D01*
X137490440Y-81845000D01*
X137451722Y-81887059D01*
X137401449Y-82001670D01*
X137391114Y-82126395D01*
X137421837Y-82247719D01*
X137485394Y-82345000D01*
X136670000Y-82345000D01*
X136670000Y-82419450D01*
X125050500Y-82419450D01*
X125050499Y-81534992D01*
X125039999Y-81432203D01*
X124984814Y-81265666D01*
X124913881Y-81150665D01*
X124892711Y-81116342D01*
X124768657Y-80992288D01*
X124619334Y-80900186D01*
X124452797Y-80845000D01*
X124353141Y-80834819D01*
X124353122Y-80834818D01*
X124350009Y-80834500D01*
X124346860Y-80834500D01*
X123553141Y-80834500D01*
X123553121Y-80834500D01*
X123549992Y-80834501D01*
X123546860Y-80834820D01*
X123546858Y-80834821D01*
X123447203Y-80845000D01*
X123280665Y-80900186D01*
X123131342Y-80992288D01*
X123007287Y-81116343D01*
X122967905Y-81180192D01*
X122915957Y-81226917D01*
X122846995Y-81238138D01*
X122782913Y-81210295D01*
X122764897Y-81191748D01*
X122749728Y-81172460D01*
X122590963Y-81034888D01*
X122409036Y-80929853D01*
X122210511Y-80861143D01*
X122200000Y-80859631D01*
X122200000Y-81929382D01*
X122130948Y-81875637D01*
X122012576Y-81835000D01*
X121918927Y-81835000D01*
X121826554Y-81850414D01*
X121716486Y-81909981D01*
X121700000Y-81927889D01*
X121700000Y-80863740D01*
X121588593Y-80890768D01*
X121397494Y-80978039D01*
X121226378Y-81099892D01*
X121081407Y-81251933D01*
X120967833Y-81428655D01*
X120889755Y-81623685D01*
X120850000Y-81829962D01*
X120850000Y-81960000D01*
X121670440Y-81960000D01*
X121631722Y-82002059D01*
X121581449Y-82116670D01*
X121571114Y-82241395D01*
X121601837Y-82362719D01*
X121665394Y-82460000D01*
X120850000Y-82460000D01*
X120850000Y-82534450D01*
X109595818Y-82534450D01*
X109261818Y-82200450D01*
X109228333Y-82139127D01*
X109225499Y-82112769D01*
X109225499Y-81453140D01*
X109225499Y-81449992D01*
X109214999Y-81347203D01*
X109159814Y-81180666D01*
X109095717Y-81076748D01*
X109067711Y-81031342D01*
X108943657Y-80907288D01*
X108794334Y-80815186D01*
X108627797Y-80760000D01*
X108528141Y-80749819D01*
X108528122Y-80749818D01*
X108525009Y-80749500D01*
X108521860Y-80749500D01*
X107728141Y-80749500D01*
X107728121Y-80749500D01*
X107724992Y-80749501D01*
X107721860Y-80749820D01*
X107721858Y-80749821D01*
X107622203Y-80760000D01*
X107455665Y-80815186D01*
X107306342Y-80907288D01*
X107182287Y-81031343D01*
X107142905Y-81095192D01*
X107090957Y-81141917D01*
X107021995Y-81153138D01*
X106957913Y-81125295D01*
X106939897Y-81106748D01*
X106924728Y-81087460D01*
X106765963Y-80949888D01*
X106584036Y-80844853D01*
X106385511Y-80776143D01*
X106375000Y-80774631D01*
X106375000Y-81844382D01*
X106305948Y-81790637D01*
X106187576Y-81750000D01*
X106093927Y-81750000D01*
X106001554Y-81765414D01*
X105891486Y-81824981D01*
X105875000Y-81842889D01*
X105875000Y-80778740D01*
X105763593Y-80805768D01*
X105572494Y-80893039D01*
X105401378Y-81014892D01*
X105256407Y-81166933D01*
X105142833Y-81343655D01*
X105064755Y-81538685D01*
X105025000Y-81744962D01*
X105025000Y-81875000D01*
X105845440Y-81875000D01*
X105806722Y-81917059D01*
X105756449Y-82031670D01*
X105746114Y-82156395D01*
X105776837Y-82277719D01*
X105840394Y-82375000D01*
X105025000Y-82375000D01*
X105025000Y-82449450D01*
X100300500Y-82449450D01*
X100300500Y-80424500D01*
X100320185Y-80357461D01*
X100372989Y-80311706D01*
X100424500Y-80300500D01*
X144575500Y-80300500D01*
X144642539Y-80320185D01*
G37*
%TD.AperFunction*%
%TD*%
M02*
